<?xml version="1.0" encoding="utf-8"?>
<!-- Generator: Adobe Illustrator 26.3.1, SVG Export Plug-In . SVG Version: 6.00 Build 0)  -->
<svg version="1.1" id="Layer_1" xmlns="http://www.w3.org/2000/svg" xmlns:xlink="http://www.w3.org/1999/xlink" x="0px" y="0px"
	 viewBox="0 0 428.6 457.7" style="enable-background:new 0 0 428.6 457.7;" xml:space="preserve">
<style type="text/css">
	.st0{fill:#777777;}
	.st1{fill:#FFFFFF;}
	.st2{fill:#FAE95E;}
	.st3{fill:#F1F2F2;}
	.st4{fill:none;stroke:#FFFFFF;stroke-miterlimit:10;}
	.st5{fill:none;stroke:#000000;stroke-miterlimit:10;}
	.st6{fill:none;stroke:#000000;stroke-width:1;stroke-miterlimit:9.9994;}
	.st7{fill:none;stroke:#000000;stroke-width:1;stroke-miterlimit:10.0008;}
	.st8{fill:none;stroke:#000000;stroke-width:1.0002;stroke-miterlimit:10.0012;}
	.st9{fill:none;stroke:#000000;stroke-width:1;stroke-miterlimit:10.0006;}
	.st10{fill:none;stroke:#000000;stroke-width:1;stroke-miterlimit:9.9996;}
	.st11{fill:none;stroke:#000000;stroke-width:0.9999;stroke-miterlimit:9.9997;}
</style>
<g id="Layer_7">
	<g>
		<path class="st0" d="M326.6,429.6c-2,0-3.9-0.1-5.7-0.1c-11.3-0.4-22.3-3.3-32.6-8.6l-2-1l13-19.4l1.6,1
			c3.7,2.2,11.3,5.9,20.7,5.9c2,0,4.1-0.2,6.1-0.5c3.9-0.7,14.3-2.4,20.5-11.1c5.5-7.7,4.6-16.8,4.1-21.6c-0.6-6.2-2.3-9.8-4.2-13.6
			c-2.1-4.4-4.3-9-5-17.3c-0.5-6.1-0.1-11.9,1.3-16.8c0.8-2.7,3-10.9,10.2-17.8c2.8-2.7,8.1-7.7,15.8-8c0.3,0,0.7,0,1.2,0
			c4.3,0,7.6,1.3,9.8,3.9c2.7,3.2,3.3,8.1,1.6,12c-1.4,3.1-3.7,4.4-6,5.6c-1.8,1-3.7,1.9-5.4,4c-2.6,3.1-3.2,6.4-3.8,10
			c-1.4,7.8,0.5,14,2.3,20c0.3,1.2,0.7,2.3,1,3.5c2.3,8.4,6.6,24.1,1.9,38.6c-5.5,16.9-20.8,25.2-23.9,26.8
			C340.4,429.1,332.5,429.6,326.6,429.6L326.6,429.6z"/>
	</g>
	<g id="XMLID_00000037662185228088780550000006651602955230951040_">
		<g>
			<g>
				<g>
					<path class="st0" d="M196,230.6c5.5,10.1,8.5,17.6,6.9,26.2c-0.3,1.7-0.8,3.2-0.8,3.3c-1,2.6-2.6,4.3-3.7,5.3l-36.1,23.9
						c-37.6,27.2-66.1,46.4-75.7,51.6c-5,2.8-8.6,3.7-13.3,5c-4.5,1.2-9.9,2.3-14.9,0.7c-1.8-0.6-3.1-1.3-3.3-1.5
						c-3.3-1.9-5.1-4.5-5.9-5.7c-11.9-17.3-17.9-25.9-24.5-40.9c-1.4-3.2-3.8-8.5-6.3-14.5c-2.6-6-5.4-12.7-7.7-18.7
						c-6.6-17.1-9.8-25.7-7.3-29.8c2.9-4.7,9.2-6.4,16-8.3c6.3-1.8,11.8-2.1,15.4-2l23.9-0.5c4.5-4.1,11.1-9.3,20.1-13.7
						c10.7-5.2,20.5-7.2,27.1-8c0.2-3.7,1-8.7,3.1-14.1c2.1-5.6,4.8-9.3,6.6-11.9c1.8-2.5,5-6.6,9.8-10.8c5.5-4.8,8.3-7.2,11.9-7.2
						c5,0,8.7,4.5,11.7,8.2c14.6,18.2,21.9,27.4,23.8,29.8c6.3,8.2,12.9,16.2,20.1,28C193.9,226.8,194.9,228.5,196,230.6z"/>
				</g>
			</g>
		</g>
	</g>
	<g>
		<path class="st0" d="M222,457.7c-3.1,0-6-0.2-8.8-0.5c-12-1.5-20.3-5.5-34.1-12.1c-12.7-6.1-23.7-11.5-36.5-21.2l-0.1-0.1
			c-14.6-11.2-36.7-28.2-44-57c-2.8-10.8-3.2-22.2-1.3-33.8l0.1-0.8l100.1-68.6l7.8-2.5l38.6,22.7l50.5,7.1c1.4-2,4.7-5.8,10.3-6.1
			c0.1,0,0.2,0,0.5,0c1.4,0,6.1,0.3,9.4,3.9c3.7,4,3.3,9.5,3.1,12.1c-0.4,5.2-0.7,11.5-1.1,18.7c-0.3,5.4-0.7,11.3-1.1,17.8v0.2v0.2
			c-1,3.7-2.5,7.2-4.7,10.2c-0.5,0.7-1,1.4-1.5,2c3.4,7.1,5.1,14.4,5,21.8c-0.2,9.2-3,17.3-10.2,28.8c-13.8,22.1-26.8,43-54,52.6
			C238.8,456.9,228.6,457.7,222,457.7z"/>
	</g>
	<g id="Layer_8">
		<polyline class="st1" points="128,316.4 175.4,361.2 216.6,332 185.5,273 		"/>
	</g>
	<g>
		<path class="st1" d="M295.5,318.6l-2.1-26l0.2-0.5c0.1-0.3,3.6-7,11-7.4c0.1,0,0.2,0,0.5,0c1.4,0,6.1,0.3,9.4,3.9
			c3.7,4,3.3,9.5,3.1,12.1c-0.3,4.6-0.6,10-1,16.1l-0.1,1.9L295.5,318.6L295.5,318.6z"/>
	</g>
	<g id="Layer_6">
		<g>
			<path class="st2" d="M220.8,409.3c-7.9,0-15.6-1.1-22.9-3.2c-19.3-5.6-31-17.6-35.2-22.5c-15.2-18-20.8-43.4-14.5-66.3
				c9.4-34.5,42.6-53.6,70.5-54.8c0.9,0,1.9-0.1,2.8-0.1c14,0,27.6,4.2,40.5,12.3c9.3,5.9,31.5,23,35.4,53.3c1,8,2,28.7-11,48.4
				C272.8,397.1,248.2,409.3,220.8,409.3L220.8,409.3z"/>
		</g>
		<g>
			<path class="st1" d="M259,277.2l-7.1-115l-20.5-162l4.4,5.5c12.6,15.7,26.7,30.5,41.8,43.7c13.7,12,28.4,23,43.8,32.7h0.1
				l0.1,0.1c12.4,9.6,26.1,17.4,40.8,22.9c16.2,6.2,33.1,9.6,50.5,10.3l6.7,0.2l-5.7,3.5c-12.6,7.6-33.2,17-59.6,18.3
				c-2.1,0.1-4.3,0.2-6.4,0.2l0,0c-27.3,0-49.1-8.8-63.4-16.9L298,335.6L259,277.2z"/>
		</g>
		<g>
			<path class="st2" d="M259,277.2l-7.1-115l-20.5-162l4.4,5.5c12.6,15.7,26.7,30.5,41.8,43.7c13.7,12,28.4,23,43.8,32.7h0.1
				l0.1,0.1c12.4,9.6,26.1,17.4,40.8,22.9c16.2,6.2,33.1,9.6,50.5,10.3l6.7,0.2l-5.7,3.5c-12.6,7.6-33.2,17-59.6,18.3
				c-2.1,0.1-4.3,0.2-6.4,0.2c-27.3,0-49.1-8.8-63.4-16.9L298,335.6L259,277.2z"/>
		</g>
		<path class="st2" d="M83,58.2"/>
	</g>
	<g>
		<path class="st0" d="M209.5,420.1l-0.8-28.2v-0.1c0.1-4.2,1.3-12.4,7.7-19.2c5.6-6,12.3-7.8,15.2-8.6c3-0.8,6-1.2,9.2-1.2
			c1.1,0,2.2,0,3.3,0.2c-5.1-8.8-16.3-28.6-21.3-40.6c-1.4-3.3-1.7-6.4-0.9-9.3c1.6-5.9,7.7-10.4,14.2-10.4c0.8,0,1.7,0.1,2.4,0.2
			c3.4,0.6,6.5,2.7,9.1,6.1c10.9,13.9,35.8,63.2,38.6,68.8v0.1v0.1c0.5,1.3,0.7,2.7,0.7,4c0,0.9-0.1,1.8-0.3,2.8v0.2l-21,46
			L209.5,420.1z"/>
	</g>
	<g>
		<path class="st0" d="M117.8,366.1l0.1-1.1c0.6-8.5,3.3-16.8,7.8-23.9c2.9-4.7,6.6-8.8,10.9-12.3l30.1-27.1
			c1.7-1.5,6.2-5.2,12.5-5.2c0.5,0,1.1,0,1.6,0.1c1.7,0.2,6.9,0.7,10,5.1c2.6,3.6,2.2,7.7,2.1,9.2c-0.2,2.4-1,4.8-2.6,7.6
			c-2.4,4.2-4.9,6.6-7.8,9.3c-0.6,0.6-1.2,1.1-1.8,1.8c-3.1,3-6,6.3-8.8,9.8c-1.5,2.6-2.8,5.4-3.7,8.2c-2.2,6.8-2.1,12.4-2.1,16.1
			c0.1,5.5,0.1,11.2,0.2,17.5c0,4.7,0.1,9.8,0.1,15.1v3.9L117.8,366.1z"/>
	</g>
	<g>
		<path class="st0" d="M230.8,298.5c-3,0-5.9-0.9-8.2-2.7c-2.9-2.2-4.5-5.4-5.5-11.6c-1.2-6.7-1.2-14.1,0-21.5l-9.7,1l-0.8,0.8
			l-3-2.7c1.9-2,3.8-4,5.8-6c3.3-3.2,5-4.9,6.7-6.1c2.1-1.5,7.2-5.2,14.1-5.2h0.4c1.8,0,10.7,0.5,14.4,7c1.7,2.9,1.6,5.8,1.5,7.2
			c-0.3,10.4-0.9,20.4-1.4,26.9v0.1v0.1c-0.2,1.5-1.4,6.8-6.3,10.1C236.6,297.6,233.7,298.5,230.8,298.5z"/>
	</g>
	<path class="st1" d="M189.2,302.7c-2.6-3.6-7.1-4.1-8.6-4.2c-6.7-0.7-11.6,3.7-12.6,4.6c-7.7,6.9-15.4,13.9-23.1,20.8l23.2,18.3
		c0.8-1.6,1.5-3,2.1-4.1c3.6-4.5,6.8-7.8,9-10.1c3.7-3.6,6.6-5.9,9.2-10.7c1.7-3,2.2-5,2.4-6.8C191.1,309.2,191.4,305.7,189.2,302.7
		z"/>
	<path class="st1" d="M246,310.3c-1.2-1.5-3.8-4.6-7.9-5.4c-6-1.1-12.7,2.9-14.3,8.7c-1,3.5,0.3,6.7,0.8,8c2.6,6.2,6.8,14.3,11,22
		l22.7-14C253.5,321.5,249.1,314.3,246,310.3z"/>
	<g>
		<path class="st3" d="M230.8,298.4c-3,0-5.9-0.9-8.2-2.7c-2.9-2.2-4.5-5.4-5.5-11.6c-1.8-10.6-0.3-20.5,0.8-25.5
			c0.1-0.3,0.2-0.6,0.3-0.8l0.5-1.2l27.8-1.2v2c0,0.5,0,1,0,1.4c-0.3,10.4-0.9,20.4-1.4,26.9v0.1v0.1c-0.2,1.5-1.4,6.8-6.3,10.1
			C236.6,297.5,233.7,298.4,230.8,298.4L230.8,298.4z"/>
	</g>
</g>
<g id="outline">
	<g id="Layer_2_00000176025097799778512610000000085478498933954216_">
		<line class="st4" x1="314.6" y1="316.6" x2="296.8" y2="316.6"/>
		<g>
			<path d="M326.7,428.8c-2,0-4-0.1-5.8-0.1c-11.3-0.4-22.3-3.3-32.6-8.6l1.8-3.6c9.8,5,20.2,7.8,31,8.2c7.3,0.3,16.3,0.6,26.2-4.3
				c2.8-1.4,16.9-9,21.8-24.4c4.3-13.4,0.4-27.8-2-36.3c-0.3-1.1-0.7-2.3-1-3.4c-1.8-6.2-3.9-13.2-2.4-21.9c0.7-3.7,1.4-8,4.7-11.9
				c2.2-2.6,4.6-3.9,6.6-4.9c2-1.1,3.4-1.8,4.2-3.6c1.1-2.5,0.7-5.8-1-7.8c-2.2-2.6-6-2.5-7.8-2.4c-6.2,0.2-10.5,4.4-13.1,6.9
				c-6.4,6.1-8.4,13.3-9.1,16c-0.9,3.1-1.8,8.3-1.1,15.4c0.7,7.7,2.6,11.7,4.6,16c1.9,4,3.9,8.1,4.5,15c0.5,5,1.5,15.4-4.8,24.3
				c-7.1,10-18.7,12-23.1,12.7c-13.3,2.2-24.2-2.7-29.5-5.9l2-3.4c4.8,2.9,14.8,7.4,26.8,5.4c3.9-0.7,14.3-2.4,20.5-11.1
				c5.5-7.7,4.6-16.8,4.1-21.6c-0.6-6.2-2.3-9.8-4.2-13.6c-2.1-4.4-4.3-9-5-17.3c-0.5-6.1-0.1-11.9,1.3-16.8
				c0.8-2.7,3-10.9,10.2-17.8c2.8-2.7,8.1-7.7,15.8-8c2.1-0.1,7.5-0.2,11,3.8c2.7,3.2,3.3,8.1,1.6,12c-1.4,3.1-3.7,4.4-6,5.6
				c-1.8,0.9-3.7,1.9-5.4,4c-2.6,3.1-3.2,6.4-3.8,10c-1.4,7.8,0.5,14,2.3,20c0.3,1.2,0.7,2.3,1,3.5c2.3,8.4,6.6,24.1,1.9,38.6
				c-5.5,16.9-20.8,25.2-23.9,26.8C340.8,428.1,333.2,428.8,326.7,428.8z"/>
			<path class="st5" d="M326.7,428.8c-2,0-4-0.1-5.8-0.1c-11.3-0.4-22.3-3.3-32.6-8.6l1.8-3.6c9.8,5,20.2,7.8,31,8.2
				c7.3,0.3,16.3,0.6,26.2-4.3c2.8-1.4,16.9-9,21.8-24.4c4.3-13.4,0.4-27.8-2-36.3c-0.3-1.1-0.7-2.3-1-3.4
				c-1.8-6.2-3.9-13.2-2.4-21.9c0.7-3.7,1.4-8,4.7-11.9c2.2-2.6,4.6-3.9,6.6-4.9c2-1.1,3.4-1.8,4.2-3.6c1.1-2.5,0.7-5.8-1-7.8
				c-2.2-2.6-6-2.5-7.8-2.4c-6.2,0.2-10.5,4.4-13.1,6.9c-6.4,6.1-8.4,13.3-9.1,16c-0.9,3.1-1.8,8.3-1.1,15.4
				c0.7,7.7,2.6,11.7,4.6,16c1.9,4,3.9,8.1,4.5,15c0.5,5,1.5,15.4-4.8,24.3c-7.1,10-18.7,12-23.1,12.7c-13.3,2.2-24.2-2.7-29.5-5.9
				l2-3.4c4.8,2.9,14.8,7.4,26.8,5.4c3.9-0.7,14.3-2.4,20.5-11.1c5.5-7.7,4.6-16.8,4.1-21.6c-0.6-6.2-2.3-9.8-4.2-13.6
				c-2.1-4.4-4.3-9-5-17.3c-0.5-6.1-0.1-11.9,1.3-16.8c0.8-2.7,3-10.9,10.2-17.8c2.8-2.7,8.1-7.7,15.8-8c2.1-0.1,7.5-0.2,11,3.8
				c2.7,3.2,3.3,8.1,1.6,12c-1.4,3.1-3.7,4.4-6,5.6c-1.8,0.9-3.7,1.9-5.4,4c-2.6,3.1-3.2,6.4-3.8,10c-1.4,7.8,0.5,14,2.3,20
				c0.3,1.2,0.7,2.3,1,3.5c2.3,8.4,6.6,24.1,1.9,38.6c-5.5,16.9-20.8,25.2-23.9,26.8C340.8,428.1,333.2,428.8,326.7,428.8z"/>
		</g>
		<g>
			<path d="M222,456.9c-3.8,0-6.8-0.3-8.8-0.5c-12-1.5-20.3-5.5-34.1-12.1c-12.8-6.2-23.8-11.5-36.5-21.2l-0.1-0.1
				c-14.6-11.2-36.7-28.2-44-57c-2.8-10.8-3.2-22.2-1.3-33.8l4,0.7c-1.8,11-1.4,21.8,1.2,32.1c7,27.4,27.6,43.2,42.6,54.8l0.1,0.1
				c12.4,9.5,23.2,14.8,35.8,20.8c14.5,7,22,10.4,32.9,11.8c5.2,0.7,19.1,1.5,34.8-4.1c25.9-9.2,38.5-29.5,52-51
				c6.8-10.8,9.5-18.3,9.6-26.8c0.1-7.2-1.6-14.2-5.2-21.1l-0.6-1.2l1-1c0.8-0.8,1.5-1.7,2.2-2.7c1.8-2.6,3.2-5.6,4-8.8
				c0.4-6.4,0.7-12.2,1-17.6c0.4-7.2,0.8-13.5,1.1-18.7c0.2-2.3,0.4-6.4-2-9.2c-2.5-2.8-6.5-2.6-6.7-2.6c-5.1,0.3-7.7,5.2-7.7,5.2
				l-3.6-1.8c0.1-0.3,3.6-7,11-7.4c0.6,0,6.1-0.2,9.8,3.9c3.7,4,3.3,9.5,3.1,12.1c-0.4,5.2-0.7,11.5-1.1,18.7
				c-0.3,5.4-0.7,11.3-1.1,17.8l-0.1,0.4c-1,3.7-2.5,7.2-4.7,10.2c-0.5,0.7-1,1.4-1.5,2c3.4,7.1,5.1,14.4,5,21.8
				c-0.2,9.2-3,17.3-10.2,28.8c-13.8,22.1-26.8,43-54,52.6C239.1,455.9,229.2,456.9,222,456.9z"/>
			<path class="st5" d="M222,456.9c-3.8,0-6.8-0.3-8.8-0.5c-12-1.5-20.3-5.5-34.1-12.1c-12.8-6.2-23.8-11.5-36.5-21.2l-0.1-0.1
				c-14.6-11.2-36.7-28.2-44-57c-2.8-10.8-3.2-22.2-1.3-33.8l4,0.7c-1.8,11-1.4,21.8,1.2,32.1c7,27.4,27.6,43.2,42.6,54.8l0.1,0.1
				c12.4,9.5,23.2,14.8,35.8,20.8c14.5,7,22,10.4,32.9,11.8c5.2,0.7,19.1,1.5,34.8-4.1c25.9-9.2,38.5-29.5,52-51
				c6.8-10.8,9.5-18.3,9.6-26.8c0.1-7.2-1.6-14.2-5.2-21.1l-0.6-1.2l1-1c0.8-0.8,1.5-1.7,2.2-2.7c1.8-2.6,3.2-5.6,4-8.8
				c0.4-6.4,0.7-12.2,1-17.6c0.4-7.2,0.8-13.5,1.1-18.7c0.2-2.3,0.4-6.4-2-9.2c-2.5-2.8-6.5-2.6-6.7-2.6c-5.1,0.3-7.7,5.2-7.7,5.2
				l-3.6-1.8c0.1-0.3,3.6-7,11-7.4c0.6,0,6.1-0.2,9.8,3.9c3.7,4,3.3,9.5,3.1,12.1c-0.4,5.2-0.7,11.5-1.1,18.7
				c-0.3,5.4-0.7,11.3-1.1,17.8l-0.1,0.4c-1,3.7-2.5,7.2-4.7,10.2c-0.5,0.7-1,1.4-1.5,2c3.4,7.1,5.1,14.4,5,21.8
				c-0.2,9.2-3,17.3-10.2,28.8c-13.8,22.1-26.8,43-54,52.6C239.1,455.9,229.2,456.9,222,456.9z"/>
		</g>
		<g>
			<path d="M266.2,428.9l-3.6-1.7l20.2-44.2c0.1-0.5,0.2-1.1,0.2-1.6c0-0.9-0.2-1.7-0.5-2.6c-3-6-27.5-54.5-38.1-68
				c-2-2.6-4.3-4.2-6.7-4.6c-5.1-1-10.7,2.5-12,7.3c-0.8,3,0.4,5.8,0.8,6.7c5.9,13.9,20.4,38.9,23.2,43.7l2.3,3.9l-4.4-0.9
				c-4.9-1-10.1-0.9-14.8,0.4c-2.8,0.7-8.5,2.3-13.3,7.5c-5.4,5.9-6.5,12.9-6.6,16.6l0.8,26.5l-4,0.1l-0.8-26.6V391
				c0.1-4.2,1.3-12.4,7.7-19.2c5.6-6,12.3-7.8,15.2-8.6c4-1.1,8.3-1.4,12.5-1c-5.1-8.8-16.3-28.6-21.3-40.6
				c-1.4-3.3-1.7-6.4-0.9-9.3c1.9-6.8,9.5-11.5,16.6-10.1c3.4,0.6,6.5,2.7,9.1,6.1c10.9,13.9,35.8,63.2,38.6,68.8l0.1,0.2
				c0.5,1.3,0.7,2.7,0.7,4c0,0.9-0.1,1.8-0.3,2.8l-0.1,0.4L266.2,428.9z"/>
			<path class="st5" d="M266.2,428.9l-3.6-1.7l20.2-44.2c0.1-0.5,0.2-1.1,0.2-1.6c0-0.9-0.2-1.7-0.5-2.6c-3-6-27.5-54.5-38.1-68
				c-2-2.6-4.3-4.2-6.7-4.6c-5.1-1-10.7,2.5-12,7.3c-0.8,3,0.4,5.8,0.8,6.7c5.9,13.9,20.4,38.9,23.2,43.7l2.3,3.9l-4.4-0.9
				c-4.9-1-10.1-0.9-14.8,0.4c-2.8,0.7-8.5,2.3-13.3,7.5c-5.4,5.9-6.5,12.9-6.6,16.6l0.8,26.5l-4,0.1l-0.8-26.6V391
				c0.1-4.2,1.3-12.4,7.7-19.2c5.6-6,12.3-7.8,15.2-8.6c4-1.1,8.3-1.4,12.5-1c-5.1-8.8-16.3-28.6-21.3-40.6
				c-1.4-3.3-1.7-6.4-0.9-9.3c1.9-6.8,9.5-11.5,16.6-10.1c3.4,0.6,6.5,2.7,9.1,6.1c10.9,13.9,35.8,63.2,38.6,68.8l0.1,0.2
				c0.5,1.3,0.7,2.7,0.7,4c0,0.9-0.1,1.8-0.3,2.8l-0.1,0.4L266.2,428.9z"/>
		</g>
		<g>
			<path d="M162.4,395.4c-0.1-5.3-0.1-10.4-0.1-15.1c0-6.3-0.1-12-0.2-17.4c-0.1-4-0.1-10,2.3-17.5c1-3.2,2.5-6.2,4.2-9.2l0.2-0.2
				c2.9-3.7,6-7.1,9.2-10.3c0.6-0.6,1.2-1.2,1.8-1.8c2.8-2.7,5-4.8,7.1-8.4c1.7-2.9,2-4.7,2.1-6c0.1-1.2,0.4-4.1-1.4-6.5
				c-2.1-2.9-5.8-3.3-7.2-3.4c-5.5-0.6-9.9,3-11,4l-30.2,27.2c-4,3.3-7.4,7.2-10.1,11.5c-4.1,6.5-6.6,14.2-7.2,22l-4-0.3
				c0.6-8.5,3.3-16.8,7.8-23.9c2.9-4.7,6.6-8.8,10.9-12.3l30.1-27.1c1.9-1.8,7.1-5.8,14.1-5.1c1.7,0.2,6.9,0.7,10,5.1
				c2.6,3.6,2.2,7.7,2.1,9.2c-0.2,2.4-1,4.8-2.6,7.6c-2.4,4.2-4.9,6.6-7.8,9.3c-0.6,0.6-1.2,1.1-1.8,1.8c-3.1,3-6,6.3-8.8,9.8
				c-1.5,2.6-2.8,5.4-3.7,8.2c-2.2,6.8-2.1,12.4-2.1,16.1c0.1,5.5,0.1,11.2,0.2,17.5c0,4.7,0.1,9.8,0.1,15.1L162.4,395.4z"/>
			<path class="st5" d="M162.4,395.4c-0.1-5.3-0.1-10.4-0.1-15.1c0-6.3-0.1-12-0.2-17.4c-0.1-4-0.1-10,2.3-17.5
				c1-3.2,2.5-6.2,4.2-9.2l0.2-0.2c2.9-3.7,6-7.1,9.2-10.3c0.6-0.6,1.2-1.2,1.8-1.8c2.8-2.7,5-4.8,7.1-8.4c1.7-2.9,2-4.7,2.1-6
				c0.1-1.2,0.4-4.1-1.4-6.5c-2.1-2.9-5.8-3.3-7.2-3.4c-5.5-0.6-9.9,3-11,4l-30.2,27.2c-4,3.3-7.4,7.2-10.1,11.5
				c-4.1,6.5-6.6,14.2-7.2,22l-4-0.3c0.6-8.5,3.3-16.8,7.8-23.9c2.9-4.7,6.6-8.8,10.9-12.3l30.1-27.1c1.9-1.8,7.1-5.8,14.1-5.1
				c1.7,0.2,6.9,0.7,10,5.1c2.6,3.6,2.2,7.7,2.1,9.2c-0.2,2.4-1,4.8-2.6,7.6c-2.4,4.2-4.9,6.6-7.8,9.3c-0.6,0.6-1.2,1.1-1.8,1.8
				c-3.1,3-6,6.3-8.8,9.8c-1.5,2.6-2.8,5.4-3.7,8.2c-2.2,6.8-2.1,12.4-2.1,16.1c0.1,5.5,0.1,11.2,0.2,17.5c0,4.7,0.1,9.8,0.1,15.1
				L162.4,395.4z"/>
		</g>
		<g>
			<path d="M230.9,297.6c-3,0-5.9-0.9-8.3-2.7c-2.9-2.2-4.5-5.4-5.5-11.6c-1.5-8.8-1.1-18.1,1.3-27.7l3.9,1c-2.3,9-2.7,17.8-1.2,26
				c1,5.8,2.3,7.8,4,9c3.3,2.5,8.1,2.5,11.7,0.1c3.5-2.3,4.4-6.1,4.6-7.3c0.5-6.5,1-16.4,1.3-26.7c0-1.2,0.1-3.2-1-5.1
				c-2.8-4.8-10.7-5-11-5c-0.1,0-0.2,0-0.3,0c-5.7,0-9.9,3.1-11.8,4.4c-1.4,1-3,2.6-6.2,5.7c-2,1.9-3.9,3.9-5.7,5.8l-2.9-2.7
				c1.9-2,3.8-4,5.8-6c3.3-3.2,5-4.9,6.7-6.1c2.2-1.6,7.3-5.3,14.5-5.2c1.8,0,10.7,0.5,14.4,7c1.7,2.9,1.6,5.8,1.5,7.2
				c-0.3,10.4-0.9,20.4-1.4,26.9v0.2c-0.2,1.5-1.4,6.8-6.3,10.1C236.5,296.8,233.7,297.6,230.9,297.6z"/>
			<path class="st5" d="M230.9,297.6c-3,0-5.9-0.9-8.3-2.7c-2.9-2.2-4.5-5.4-5.5-11.6c-1.5-8.8-1.1-18.1,1.3-27.7l3.9,1
				c-2.3,9-2.7,17.8-1.2,26c1,5.8,2.3,7.8,4,9c3.3,2.5,8.1,2.5,11.7,0.1c3.5-2.3,4.4-6.1,4.6-7.3c0.5-6.5,1-16.4,1.3-26.7
				c0-1.2,0.1-3.2-1-5.1c-2.8-4.8-10.7-5-11-5c-0.1,0-0.2,0-0.3,0c-5.7,0-9.9,3.1-11.8,4.4c-1.4,1-3,2.6-6.2,5.7
				c-2,1.9-3.9,3.9-5.7,5.8l-2.9-2.7c1.9-2,3.8-4,5.8-6c3.3-3.2,5-4.9,6.7-6.1c2.2-1.6,7.3-5.3,14.5-5.2c1.8,0,10.7,0.5,14.4,7
				c1.7,2.9,1.6,5.8,1.5,7.2c-0.3,10.4-0.9,20.4-1.4,26.9v0.2c-0.2,1.5-1.4,6.8-6.3,10.1C236.5,296.8,233.7,297.6,230.9,297.6z"/>
		</g>
	</g>
	<g id="Layer_3">
		<path d="M174.8,397.6c13,8.6,26.3,10.7,36.5,11.1c0-1.7-0.1-3.3-0.1-5c-9.4-0.4-21.7-2.4-33.5-10.3c-5.5-3.7-9.9-7.9-13.2-11.9
			c0,2.4,0,4.9,0.1,7.5C167.3,392,170.7,394.9,174.8,397.6z"/>
		<path d="M207.5,259.9c-0.9,0.9-1.7,1.8-2.4,2.5C205.8,261.7,206.5,260.9,207.5,259.9c-10.4,1.8-23.2,6-35.2,15.4
			c-7.3,5.7-20.4,18.2-26.4,38.5c-1.1,3.6-1.8,7.1-2.3,10.5c2-1.8,4.1-3.7,6.2-5.5c0.3-1.2,0.6-2.3,1-3.5
			c5.6-18.9,17.9-30.6,24.7-36c15.8-12.3,33-15.1,43.4-15.5c0.2-1.6,0.5-3.3,0.9-5C216.3,258.8,212.1,259.1,207.5,259.9z"/>
		<path d="M414.5,111.7c-15.5-0.5-30.8-3.2-45.2-8c-16.5-5.5-27.7-12.8-46.1-24.9l-1.3-0.8c-9.1-5.9-26-17-45.8-34.8
			c-14.1-12.7-27.2-26.7-39-41.6L235.9,0l-7.1,3.1l0.3,1.9c6.7,39.9,12.2,80.5,16.4,120.7c4.9,46.5,8.2,93.8,9.8,140.6
			c-3.5-1.7-7.1-3-10.8-4.2c-0.1,1.8-0.1,3.5-0.2,5.2c4.3,1.4,8.5,3.2,12.5,5.3l3.8,2l-0.1-4.3c-1.6-48.3-4.9-97.1-10-145.1
			c-4.2-39.7-9.6-79.7-16.2-119.1l0,0c11.6,14.6,24.5,28.3,38.4,40.7c20.1,18.1,37.2,29.3,46.5,35.3l1.3,0.8
			c18.8,12.3,30.2,19.7,47.3,25.4c14.4,4.8,29.6,7.6,45.1,8.2c-10.1,6.5-21,11.4-32.4,14.4c-9.3,2.5-18.9,3.7-28.6,3.7
			c-14.3,0-25.9-2.7-32.1-4.1c-11.6-2.6-22.8-6.8-33.5-12.3l-3.9-2L296,336.6c0.2,8.5-1.2,25-12.4,39.4c-0.1,0.1-0.1,0.1-0.2,0.2
			c0.4,0.8,0.7,1.4,0.9,1.7c0.3,0.8,0.6,1.9,0.6,3.4c0,0.3,0,0.7,0,1c0.9-1,1.8-2.1,2.7-3.2c12.1-15.6,13.6-33.4,13.4-42.7
			l-13.2-211.6c9.9,4.7,20.2,8.3,30.8,10.8c6.4,1.5,18.4,4.2,33.3,4.2c10.2,0,20.2-1.3,29.9-3.9c12.5-3.3,24.3-8.7,35.2-15.9
			l11.7-7.8L414.5,111.7z"/>
	</g>
	<g id="Layer_4">
		<g>
			<path d="M64.1,348.6c-2.1,0-4.2-0.3-6.3-0.9c-1.8-0.6-3.2-1.3-3.7-1.6c-3.8-2.2-5.7-5-6.6-6.3c-12-17.3-18-26-24.7-41.2
				c-2.8-6.4-9.4-21.3-14.1-33.4c-6.7-17.6-10.2-26.5-7-31.6c3.3-5.3,10-7.2,17.1-9.2c5.2-1.5,10.5-2.2,15.9-2.1l23-0.5
				c6-5.4,12.7-10,20-13.5c8.2-4,17-6.7,26.1-8c0.4-4.5,1.5-8.9,3.1-13c2.3-5.9,5.1-10,6.9-12.4c2.9-4.1,6.3-7.8,10.2-11.1
				c5.7-5,8.9-7.7,13.2-7.7l0,0c6.1,0,10.4,5.4,13.2,8.9c14.3,17.8,21.9,27.3,23.8,29.8c1,1.3,2,2.5,2.9,3.8
				c5.5,7.1,11.1,14.4,17.3,24.4c1.1,1.7,2.1,3.5,3.3,5.7c5.8,10.6,8.8,18.5,7.1,27.5c-0.3,1.8-0.8,3.4-0.9,3.6
				c-0.9,2.3-2.3,4.3-4.2,6.1L197,263c1.4-1.3,2.5-2.9,3.2-4.6c0-0.2,0.5-1.4,0.7-2.9c1.5-7.8-1.2-14.8-6.7-24.8
				c-1.2-2.1-2.2-3.9-3.2-5.5c-6.1-9.9-11.7-17.1-17.1-24.1c-1-1.3-2-2.5-2.9-3.8c-1.9-2.5-9.5-12-23.7-29.8
				c-2.5-3.1-6-7.5-10.1-7.5l0,0c-2.8,0-5.1,1.9-10.6,6.7c-3.6,3.1-6.8,6.6-9.5,10.4c-1.7,2.4-4.3,6-6.4,11.5
				c-1.6,4.3-2.6,8.9-3,13.5l-0.1,1.7L106,204c-9.2,1.1-18.1,3.7-26.5,7.8c-7.1,3.5-13.8,8-19.6,13.4l-0.6,0.5l-24.6,0.5
				c-5-0.1-10,0.6-14.9,1.9c-6.4,1.8-12.4,3.5-14.8,7.5c-2.1,3.4,1.7,13.2,7.4,28.1c4.6,12,11.2,26.8,14,33.2
				c6.5,14.8,12.5,23.4,24.3,40.5c0.7,1,2.3,3.4,5.3,5.1c0.3,0.2,1.5,0.8,2.9,1.3c4.7,1.5,9.8,0.4,13.8-0.7
				c4.7-1.3,8.1-2.2,12.9-4.9c8.6-4.7,35.9-22.9,75.5-51.5l2.4,3.2c-39.9,28.9-66.9,46.8-75.9,51.8c-5.2,2.9-9,3.9-13.7,5.2
				C71.1,347.8,67.6,348.6,64.1,348.6z"/>
			<path class="st5" d="M64.1,348.6c-2.1,0-4.2-0.3-6.3-0.9c-1.8-0.6-3.2-1.3-3.7-1.6c-3.8-2.2-5.7-5-6.6-6.3
				c-12-17.3-18-26-24.7-41.2c-2.8-6.4-9.4-21.3-14.1-33.4c-6.7-17.6-10.2-26.5-7-31.6c3.3-5.3,10-7.2,17.1-9.2
				c5.2-1.5,10.5-2.2,15.9-2.1l23-0.5c6-5.4,12.7-10,20-13.5c8.2-4,17-6.7,26.1-8c0.4-4.5,1.5-8.9,3.1-13c2.3-5.9,5.1-10,6.9-12.4
				c2.9-4.1,6.3-7.8,10.2-11.1c5.7-5,8.9-7.7,13.2-7.7l0,0c6.1,0,10.4,5.4,13.2,8.9c14.3,17.8,21.9,27.3,23.8,29.8
				c1,1.3,2,2.5,2.9,3.8c5.5,7.1,11.1,14.4,17.3,24.4c1.1,1.7,2.1,3.5,3.3,5.7c5.8,10.6,8.8,18.5,7.1,27.5c-0.3,1.8-0.8,3.4-0.9,3.6
				c-0.9,2.3-2.3,4.3-4.2,6.1L197,263c1.4-1.3,2.5-2.9,3.2-4.6c0-0.2,0.5-1.4,0.7-2.9c1.5-7.8-1.2-14.8-6.7-24.8
				c-1.2-2.1-2.2-3.9-3.2-5.5c-6.1-9.9-11.7-17.1-17.1-24.1c-1-1.3-2-2.5-2.9-3.8c-1.9-2.5-9.5-12-23.7-29.8
				c-2.5-3.1-6-7.5-10.1-7.5l0,0c-2.8,0-5.1,1.9-10.6,6.7c-3.6,3.1-6.8,6.6-9.5,10.4c-1.7,2.4-4.3,6-6.4,11.5
				c-1.6,4.3-2.6,8.9-3,13.5l-0.1,1.7L106,204c-9.2,1.1-18.1,3.7-26.5,7.8c-7.1,3.5-13.8,8-19.6,13.4l-0.6,0.5l-24.6,0.5
				c-5-0.1-10,0.6-14.9,1.9c-6.4,1.8-12.4,3.5-14.8,7.5c-2.1,3.4,1.7,13.2,7.4,28.1c4.6,12,11.2,26.8,14,33.2
				c6.5,14.8,12.5,23.4,24.3,40.5c0.7,1,2.3,3.4,5.3,5.1c0.3,0.2,1.5,0.8,2.9,1.3c4.7,1.5,9.8,0.4,13.8-0.7
				c4.7-1.3,8.1-2.2,12.9-4.9c8.6-4.7,35.9-22.9,75.5-51.5l2.4,3.2c-39.9,28.9-66.9,46.8-75.9,51.8c-5.2,2.9-9,3.9-13.7,5.2
				C71.1,347.8,67.6,348.6,64.1,348.6z"/>
		</g>
		<g>
			<rect x="16.1" y="307.2" transform="matrix(0.9017 -0.4323 0.4323 0.9017 -130.8844 42.6219)" width="24.4" height="4"/>
			
				<rect x="16.1" y="307.2" transform="matrix(0.9017 -0.4323 0.4323 0.9017 -130.8844 42.6219)" class="st6" width="24.4" height="4"/>
		</g>
		<g>
			<rect x="26.9" y="322.4" transform="matrix(0.8491 -0.5283 0.5283 0.8491 -165.8576 68.2541)" width="19.2" height="4"/>
			
				<rect x="26.9" y="322.4" transform="matrix(0.8491 -0.5283 0.5283 0.8491 -165.8576 68.2541)" class="st7" width="19.2" height="4"/>
		</g>
		<g>
			<rect x="38.9" y="333.7" transform="matrix(0.7502 -0.6613 0.6613 0.7502 -209.8925 115.8799)" width="19" height="4"/>
			
				<rect x="38.9" y="333.7" transform="matrix(0.7502 -0.6613 0.6613 0.7502 -209.8925 115.8799)" class="st8" width="19" height="4"/>
		</g>
		<g>
			<rect x="176.6" y="218.6" transform="matrix(0.7442 -0.668 0.668 0.7442 -99.2706 182.0519)" width="22.9" height="4"/>
			
				<rect x="176.6" y="218.6" transform="matrix(0.7442 -0.668 0.668 0.7442 -99.2706 182.0519)" class="st9" width="22.9" height="4"/>
		</g>
		<g>
			<rect x="188.9" y="232.8" transform="matrix(0.7556 -0.655 0.655 0.7556 -105.5253 186.7197)" width="17.1" height="4"/>
			
				<rect x="188.9" y="232.8" transform="matrix(0.7556 -0.655 0.655 0.7556 -105.5253 186.7197)" class="st10" width="17.1" height="4"/>
		</g>
		<g>
			<rect x="195.7" y="245.5" transform="matrix(0.8791 -0.4767 0.4767 0.8791 -93.4348 126.6747)" width="14.5" height="4"/>
			
				<rect x="195.7" y="245.5" transform="matrix(0.8791 -0.4767 0.4767 0.8791 -93.4348 126.6747)" class="st11" width="14.5" height="4"/>
		</g>
		<g>
			<path d="M25.2,257.3c-1.9-1.4-3.4-3.1-4.5-5.1c-1.8-3.1-2.1-6.2-2.1-8.2v-0.7l0.5-0.6c1.4-1.6,3.8-3.8,7.3-5
				c2.7-1,5.6-1.3,8.4-0.9l-0.6,4c-1.5-0.2-3.9-0.3-6.5,0.7c-2.4,0.9-4,2.2-5.2,3.3c0.1,1.5,0.5,3.4,1.6,5.4c0.9,1.5,2,2.8,3.4,3.8
				L25.2,257.3z"/>
			<path d="M25.3,258l-0.4-0.3c-1.9-1.4-3.5-3.2-4.6-5.2c-1.8-3.2-2.2-6.3-2.2-8.4v-0.9l0.6-0.7c1.4-1.6,3.9-3.9,7.5-5.2
				c2.8-1,5.7-1.3,8.6-0.9l0.5,0.1l-0.7,5l-0.5-0.1c-1.5-0.2-3.7-0.3-6.3,0.6c-2.2,0.8-3.8,2.1-4.8,3.1c0.1,1.3,0.4,3.1,1.5,5
				c0.8,1.5,1.9,2.7,3.3,3.7l0.4,0.3L25.3,258z M19.1,243.5v0.5c0,1.9,0.3,4.9,2,7.9c1,1.8,2.4,3.3,4,4.6l1.8-2.4
				c-1.3-1-2.3-2.3-3.1-3.7c-1-1.7-1.5-3.7-1.6-5.7v-0.2l0.1-0.2c1-1.1,2.8-2.5,5.4-3.5c2.4-0.9,4.7-0.9,6.2-0.8l0.4-3
				c-2.6-0.3-5.2,0-7.7,0.9c-3.5,1.2-5.8,3.3-7.1,4.9L19.1,243.5z"/>
		</g>
		<g>
			<path d="M127.9,187.2l-3.9-1c0.5-2,2-5.8,5.8-8.5c2-1.4,4.3-2.3,6.8-2.6l0.4-0.1l0.4,0.1c2.2,0.7,4.3,1.8,6.1,3.2
				c1.8,1.5,3.3,3.2,4.4,5.3l-3.5,1.9c-0.9-1.6-2-3-3.4-4.1c-1.3-1-2.7-1.8-4.3-2.4c-1.2,0.2-2.9,0.7-4.5,1.9
				C129.3,182.9,128.3,185.7,127.9,187.2z"/>
			<path d="M128.2,187.8l-4.8-1.2l0.1-0.5c0.5-2.1,2-6,6-8.8c2-1.5,4.5-2.4,7-2.7l0.5-0.1l0.5,0.2c2.3,0.7,4.4,1.8,6.2,3.3
				c1.9,1.5,3.4,3.3,4.5,5.4l0.2,0.4l-4.4,2.4l-0.2-0.4c-0.8-1.5-1.9-2.9-3.3-4c-1.2-1-2.6-1.7-4-2.2c-1.1,0.2-2.7,0.7-4.2,1.8
				c-2.7,1.9-3.7,4.6-4,6L128.2,187.8z M124.6,185.9l2.9,0.8c0.5-1.6,1.6-4.2,4.3-6.1c1.7-1.2,3.5-1.8,4.7-2h0.1h0.1
				c1.6,0.5,3.1,1.4,4.5,2.5c1.3,1.1,2.4,2.4,3.3,3.8l2.6-1.4c-1-1.8-2.4-3.4-4-4.7c-1.8-1.4-3.7-2.5-5.9-3.1l-0.3-0.1h-0.3
				c-2.4,0.3-4.6,1.2-6.5,2.5C126.7,180.5,125.2,183.8,124.6,185.9z"/>
		</g>
		<g>
			<ellipse transform="matrix(0.9103 -0.414 0.414 0.9103 -107.1183 55.1585)" cx="73.7" cy="274.7" rx="9.1" ry="14.7"/>
			<path d="M77.3,289.1c-4.4,0-9.5-4.1-12.4-10.4l0,0c-3.5-7.6-2.4-15.6,2.5-17.8c4.8-2.2,11.6,2.2,15.1,9.8s2.4,15.6-2.5,17.8
				C79.2,288.9,78.3,289.1,77.3,289.1z M65.8,278.3c3.2,7.1,9.4,11.3,13.7,9.3c4.3-2,5.2-9.4,2-16.5s-9.4-11.3-13.7-9.3
				S62.6,271.2,65.8,278.3L65.8,278.3z"/>
		</g>
		<g>
			<path d="M115,296.4c-2.3,0-4.5-0.9-5.9-2.7c-2.3-2.7-1.7-6.1-1.5-6.8l3.9,0.9c0,0.2-0.4,2,0.7,3.3c1,1.2,2.7,1.6,4.3,1
				c1.1-1,2-2.3,2.6-3.6c1.2-2.8,0.8-5.4,0.5-6.7l3.4-1.8c0.1,0.1,2.9,3.1,6.5,2.4c0,0,4.1-0.9,4.4-3.5c0.1-1.5-0.9-3.1-2.6-4
				l1.9-3.5c3.2,1.7,5,4.8,4.7,8c-0.4,4.4-5,6.5-7.6,7c-2.5,0.5-4.7,0-6.4-0.8c-0.1,1.4-0.4,3-1.1,4.6c-0.9,2-2.2,3.9-3.9,5.3
				l-0.2,0.2l-0.3,0.1C117.2,296.2,116.1,296.4,115,296.4z"/>
			<path d="M115,296.9c-2.5,0-4.8-1-6.3-2.9c-2.5-2.9-1.8-6.5-1.6-7.2l0.1-0.5l4.9,1.1l-0.1,0.5c0,0.2-0.4,1.8,0.6,2.9
				c0.8,1,2.3,1.3,3.7,0.9c1-1,1.8-2.1,2.4-3.4c1.1-2.6,0.8-5.1,0.5-6.4l-0.1-0.4l4.1-2.2l0.3,0.3c0,0,2.7,2.9,6,2.2
				c0,0,3.8-0.9,4-3.1c0.1-1.3-0.8-2.7-2.4-3.5l-0.4-0.2l2.3-4.4l0.4,0.2c3.4,1.8,5.3,5.1,5,8.5c-0.5,4.7-5.2,6.9-8,7.5
				c-2,0.4-4.1,0.2-6.1-0.6c-0.2,1.4-0.5,2.8-1.1,4.1c-0.9,2.1-2.3,4-4,5.5l-0.4,0.3l-0.3,0.1C117.3,296.7,116.2,296.9,115,296.9z
				 M107.9,287.6c-0.2,1.1-0.3,3.7,1.5,5.8c1.3,1.6,3.4,2.5,5.5,2.5c1,0,2.1-0.2,3.1-0.6l0.2-0.1l0.2-0.2c1.6-1.4,2.9-3.2,3.8-5.1
				c0.6-1.4,1-2.9,1-4.5v-0.7l0.7,0.3c2,0.9,4.1,1.2,6.1,0.8c2.5-0.5,6.8-2.5,7.2-6.6c0.3-2.8-1.3-5.6-4-7.2l-1.4,2.7
				c1.6,1,2.6,2.7,2.5,4.3c-0.3,2.9-4.6,3.9-4.8,4c-3.2,0.7-5.8-1.5-6.7-2.2l-2.8,1.5c0.3,1.5,0.5,4-0.6,6.6
				c-0.6,1.4-1.5,2.7-2.7,3.8l-0.2,0.1c-1.8,0.6-3.8,0.1-4.9-1.2c-0.9-1.1-1-2.5-0.9-3.2L107.9,287.6z"/>
		</g>
		<g>
			<ellipse transform="matrix(0.9103 -0.414 0.414 0.9103 -86.6812 77.6482)" cx="135.8" cy="238.8" rx="9.1" ry="14.7"/>
			<path d="M139.4,253.2c-4.4,0-9.5-4.1-12.4-10.4l0,0c-3.5-7.6-2.4-15.6,2.5-17.8c4.8-2.2,11.6,2.2,15.1,9.8s2.4,15.6-2.5,17.8
				C141.2,253,140.3,253.2,139.4,253.2z M127.9,242.4c3.2,7.1,9.4,11.3,13.7,9.3s5.2-9.4,2-16.5s-9.4-11.3-13.7-9.3
				C125.6,227.9,124.7,235.3,127.9,242.4L127.9,242.4z"/>
		</g>
	</g>
</g>
</svg>
