<?xml version="1.0" encoding="utf-8"?>
<!-- Generator: Adobe Illustrator 26.3.1, SVG Export Plug-In . SVG Version: 6.00 Build 0)  -->
<svg version="1.1"
	 id="svg3033" xmlns:sodipodi="http://sodipodi.sourceforge.net/DTD/sodipodi-0.dtd" xmlns:ns1="http://sozi.baierouge.fr" xmlns:cc="http://creativecommons.org/ns#" xmlns:inkscape="http://www.inkscape.org/namespaces/inkscape" xmlns:svg="http://www.w3.org/2000/svg" xmlns:rdf="http://www.w3.org/1999/02/22-rdf-syntax-ns#" xmlns:dc="http://purl.org/dc/elements/1.1/"
	 xmlns="http://www.w3.org/2000/svg" xmlns:xlink="http://www.w3.org/1999/xlink" x="0px" y="0px" viewBox="0 0 2020.4 999.5"
	 style="enable-background:new 0 0 2020.4 999.5;" xml:space="preserve">
<style type="text/css">
	.st0{opacity:0.51;}
	.st1{opacity:0.18;}
	.st2{fill:none;stroke:#00155F;stroke-width:3;stroke-linecap:round;}
	.st3{opacity:0.18;fill:none;stroke:#00155F;stroke-width:3;stroke-linecap:round;stroke-linejoin:round;}
	.st4{fill:#EADE88;stroke:#9B8D49;stroke-miterlimit:10;}
	.st5{fill-rule:evenodd;clip-rule:evenodd;fill:#EADE88;stroke:#9B8D49;stroke-width:1.601;stroke-miterlimit:39.5289;}
</style>
<g id="layer1" transform="translate(488.93 951.06)" class="st0">
	<g id="g5167" transform="translate(3.0031 1.6684)" class="st1">
		<path id="path5157" class="st2" d="M-469.3-861.2c314.1,132.2,262.8,75.1,1170.9-54.3c293-41.7,564.5,125.3,315.6,320.1
			C827.3-446.6,332.8-419,112.5-327.5C-64.3-254-135-118.9,231.3-52.1c349.5,35.6,923.5-114.4,1295-183.3"/>
		<path id="path5159" class="st2" d="M-480.8-794c304.7,85,274.4,32.9,1182.5-96.5c293-41.7,579.6,110.2,330.7,305
			c-190,148.7-693.9,197.1-914.2,288.6C-58.6-223.4-139-100.2,227.4-33.4c349.5,35.6,926.9-127,1298.4-195.9"/>
		<path id="path5161" class="st2" d="M-488.3-707C-159.1-688.1-197-730.5,711-859.9c293-41.7,573.9,100.8,325.1,295.6
			C846.2-415.6,334.7-352.1,114.4-260.6C-62.4-187.1-137.6-73.5,228.7-6.7c349.5,35.6,926.8-148,1298.2-216.9"/>
		<path id="path5163" class="st2" d="M-482.4-605.7c321.6-43.4,279.7-94.3,1187.8-223.6c293-41.7,573.9,91.3,325.1,286.2
			c-190,148.7-693.9,219.8-914.2,311.3C-60.5-158.4-140.3-50.8,226,16c349.5,35.6,929.4-164,1300.9-232.9"/>
		<path id="path5165" class="st2" d="M-468.7-522.4c13-2.8,256.5-137.5,1164.7-266.9c293-41.7,594.7,57.4,345.8,252.2
			c-190,148.7-709,242.4-929.2,333.9C-64.2-129.7-136.3-25.5,230,41.4c349.5,35.6,925-183.1,1296.5-252"/>
	</g>
	<path id="path4478" class="st3" d="M-467.5-861.8c314.1,132.2,261,75.7,1169.1-53.7c293-41.7,564.5,125.3,315.6,320.1
		C827.3-446.6,332.8-419,112.5-327.5C-64.3-254-135-118.9,231.3-52.1c349.5,35.6,923.5-114.4,1295-183.3"/>
	<path id="path4486" class="st3" d="M-480.8-794c304.7,85,274.4,32.9,1182.5-96.5c293-41.7,579.6,110.2,330.7,305
		c-190,148.7-693.9,197.1-914.2,288.6C-58.6-223.4-139-100.2,227.4-33.4c349.5,35.6,926.9-127,1298.4-195.9"/>
	<path id="path4488" class="st3" d="M-487.4-707.1c329.2,18.9,290.4-23.4,1198.5-152.8c293-41.7,573.9,100.8,325.1,295.6
		c-190,148.7-701.5,212.2-921.8,303.7C-62.5-187.1-137.7-73.5,228.6-6.7c349.5,35.6,926.8-148,1298.2-216.9"/>
	<path id="path4490" class="st3" d="M-482.1-605.8c321.6-43.4,279.5-94.2,1187.6-223.5c293-41.7,573.9,91.3,325.1,286.2
		c-190.1,148.7-694,219.8-914.3,311.3C-60.6-158.4-140.4-50.8,225.9,16c349.5,35.6,929.4-164,1300.9-232.9"/>
	<path id="path4492" class="st3" d="M-469-521.7c13-2.8,256.9-138.2,1165-267.6c293-41.7,594.7,57.4,345.8,252.2
		c-190,148.7-709,242.4-929.2,333.9C-64.3-129.7-136.3-25.5,230,41.4c349.5,35.6,925-183.1,1296.5-252"/>
	<g id="g10838" transform="matrix(2.2833 -.65777 .34030 1.3546 -5.2893 -890.88)">
		<path id="path1320-2" class="st4" d="M99.6,12.1c-0.5-0.2-1.2-0.1-1.9,0.4c-5.5,3.1-11.9,3.6-16.7,4.1c-4.7,0.5-8.4,0.7-13,0.5
			c-4.2-0.2-7-0.4-9.5-0.9c-1.8-0.3-4.2-1.5-5.2-0.4c2.9,6.8,4.1,16.2,3.9,21.5C57,47,56,54.1,54.5,62.4c-1.4,8-4.2,15.3-6.8,22.8
			c-1.8,6-5.7,0-8.5-1.2c-4-1.8-7.5-1.9-11.4,0s-6,4.7-7,9.1c-0.9,4.3,1.2,9.6,4.8,12.5c3.5,2.8,8.6,3.2,12.8,1.9
			c4.1-1.4,7.8-5.3,9.3-9.3c0.8-1.9,1.3-2.7,2.2-5.7s2.2-7.3,3.2-11c1.9-6.8,4.6-13,6.2-28.4c0.5-4.1,2-17.3,0.8-25.4
			c6.4,0.5,8.9,0.5,11.7,0.6c4.8,0.1,10.8-0.5,14.3-1.1c4.4-0.7,10.2-2.3,12.9-2.8c0.7,2.6,0.7,4.1,1.1,7.8c0.5,5.7,0.3,16-0.2,20.7
			c-0.8,8-3,21.4-5.2,29.1c-1.1,3.9-2.3,6.8-3.5,10c-1.6,2.9-5.3-1.9-7.7-2.9c-4-1.8-7.5-1.9-11.4,0s-6.1,4.7-7,9.1
			c-0.9,4.3,1.2,9.6,4.8,12.5c3.5,2.8,8.6,3.2,12.8,1.9c4.1-1.4,7.8-5.3,9.3-9.3c4.2-11.2,6.4-19.5,7.4-23.8
			c1.5-5.9,4.2-18.9,4.5-35.2c0.1-3,0.1-11.4-0.6-18.2C103.4,23.2,101.2,12.5,99.6,12.1L99.6,12.1z"/>
		<path id="path2279-7" class="st4" d="M35.5,98.3c-4.2,3.8-9.8,4.2-12.6,1s-1.7-8.9,2.5-12.6c4.2-3.8,9.8-4.2,12.6-1
			S39.7,94.5,35.5,98.3"/>
		<path id="path2281-6" class="st4" d="M80,103c-4.2,3.8-9.8,4.2-12.6,1c-2.8-3.2-1.7-8.9,2.5-12.6c4.2-3.8,9.8-4.2,12.6-1
			C85.3,93.6,84.2,99.2,80,103"/>
		<path id="path5636-1" class="st4" d="M98.9,12.8c-0.2,0-0.5,0.2-0.9,0.4c-5.7,3.1-12.2,3.6-16.9,4.2c-4.7,0.5-8.5,0.7-13.1,0.5
			c-1.5-0.1-2.6-0.1-3.8-0.2c4.4,2.3,8.7,3.4,12.9,4.4c11.6,2.7,17.2,0.9,25.2,0.3c-0.4-1.9-0.8-4.1-1.3-6c-0.3-1-0.6-1.9-0.9-2.6
			c-0.1-0.3-0.3-0.6-0.4-0.7s-0.2-0.2-0.2-0.2C99.3,12.8,99.1,12.8,98.9,12.8L98.9,12.8z"/>
		<path id="path7829-4" class="st4" d="M55.3,15.8c-0.3,0-0.6,0-0.9,0c-0.2,0-0.4,0.1-0.5,0.2c2.9,6.8,4,16,3.8,21.3
			c-0.3,9.8-1.3,16.9-2.7,25.1c-1.4,8.1-4.1,15.2-6.7,22.7c0.4-0.4,1.3-2,1.8-3.6c2.5-7.8,4.3-11.1,6.7-26l0,0l0.1-0.2l0,0
			c2.3-14.6,2.3-27.4-0.7-39.3C55.8,15.9,55.5,15.8,55.3,15.8L55.3,15.8z"/>
		<path id="path7834" class="st4" d="M99.9,24.9L99.9,24.9C99.8,24.9,99.8,24.9,99.9,24.9C99.8,24.9,99.8,24.9,99.9,24.9
			C99.8,24.9,99.8,24.9,99.9,24.9C99.8,25,99.8,25,99.8,25l0,0l0,0c0.5,2.1,0.6,3.6,0.9,6.9c0.5,5.7,0.3,16-0.2,20.7
			c-0.8,8-3,21.4-5.2,29.1c-1,3.6-2,6.3-3.2,9.2l0,0l0,0l0,0l0,0l0,0l0,0l0,0l0,0l0,0l0,0l0,0l0,0l0,0c0.5-0.6,1.1-1.6,1.8-3.4
			c1.6-4.4,4.1-13.8,6.2-28.1v-0.3c1-7,1.3-14.4,1.1-22c-0.1-3.8-0.3-7.2-0.7-9.5C100.3,26.4,100.1,25.5,99.9,24.9
			c-0.1-0.1-0.1-0.1-0.2-0.1s0,0-0.1-0.1l0,0l0,0C100,24.9,100,24.9,99.9,24.9C100,24.9,100,24.9,99.9,24.9L99.9,24.9L99.9,24.9
			L99.9,24.9z"/>
	</g>
	<g id="layer1-7" transform="matrix(1.6797 -.94111 .93884 1.6757 -124.35 -804.72)">
		<g id="g2442">
			<path id="path1318" class="st4" d="M34.5,0.6c-0.4,0-0.7,0.2-1,0.5c2.9,6.8,4.1,16.2,3.9,21.5c-0.3,9.7-1.3,16.8-2.7,25.1
				c-1.4,8-4.2,15.3-6.8,22.8c-1.8,6-5.7,0-8.5-1.2c-4-1.8-7.5-1.9-11.4,0S2,74,1,78.4C0.1,82.7,2.2,88,5.8,90.9
				c3.5,2.8,8.6,3.2,12.8,1.9c4.1-1.4,7.8-5.3,9.3-9.3c0.8-1.9,1.3-2.7,2.2-5.7s2.2-7.3,3.2-11c1.9-6.8,4.6-13,6.2-28.4
				c0.4-3.1,1.2-11.2,1.2-18.5c0-0.8,0.2-0.8,0.3-0.8c0.7-0.1,2.3,1.1,4.6,2.6s5.5,3.6,7.1,4.5c7.6,4.6,11.7,10.7,12.1,17.9
				c0.3,5-0.7,9-3.5,15c-1.1,2.3-1.2,2.8-0.8,3c0.7,0.4,0.8,0.4,1.8-1c3-4.4,4.8-11,4.8-17.7c0-4.2-0.6-6.8-1.8-9.4
				c-1.6-3.7-5.3-8.6-10.2-13.8c-2.6-2.7-5.1-5.4-5.6-5.9c-3.5-3.7-8.3-8.6-9.2-11.9C40.2,1.5,35.7,0.5,34.5,0.6L34.5,0.6z"/>
			<path id="path2279" class="st4" d="M15.6,83.5c-4.2,3.8-9.8,4.2-12.6,1s-1.7-8.9,2.5-12.6c4.2-3.8,9.8-4.2,12.6-1
				S19.8,79.7,15.6,83.5"/>
			<path id="path7829" class="st4" d="M35.4,1.1c-0.3,0-0.6,0-0.9,0c-0.2,0-0.4,0.1-0.5,0.2c2.9,6.8,4,16,3.8,21.3
				c-0.3,9.8-1.3,16.9-2.7,25.1c-1.4,8.1-4.1,15.2-6.7,22.7c0.4-0.4,1.3-2,1.8-3.6c2.5-7.8,4.3-11.1,6.7-26l0,0l0.1-0.2l0,0
				c2.3-14.6,2.3-27.4-0.7-39.3C35.9,1.2,35.6,1.1,35.4,1.1L35.4,1.1z"/>
			<path id="path3014" class="st4" d="M42.5,6.9c1,9.3,6.5,15.6,8.8,17.1c0.7,0.4,1.5,1,1.9,1.2c7.8,4.7,12.1,11,12.4,18.5
				c0.3,5.2-0.7,9.2-3.6,15.3c-0.4,0.9-0.6,1.3-0.7,1.7c0.1-0.2,0.1-0.1,0.3-0.4c2.9-4.2,4.6-10.7,4.6-17.3c0-4.2-0.5-6.6-1.7-9.1
				c-0.1-0.3-0.8-1.6-1.5-2.8c-0.7-1.2-1.3-2.4-1.4-2.7c-0.4-0.8-2.3-3-7.2-8.2c-2.4-2.5-5-5.2-5.4-5.7C46.8,12.1,43.9,9.4,42.5,6.9
				L42.5,6.9z"/>
		</g>
	</g>
	<g id="layer1-1" transform="matrix(1.4685 -.46083 .62452 1.0836 324.41 -839.34)">
		<g id="g1408" transform="translate(-9.75 -9.25)">
			<path id="path1318-3" class="st4" d="M44.2,9.9c-0.4,0-0.7,0.2-1,0.5c2.9,6.8,4.1,16.2,3.9,21.5c-0.3,9.7-1.3,16.8-2.7,25.1
				c-1.4,8-4.2,15.3-6.8,22.8c-1.8,6-5.7,0-8.5-1.2c-4-1.8-7.5-1.9-11.4,0s-6,4.7-7,9.1c-0.9,4.3,1.2,9.6,4.8,12.5
				c3.5,2.8,8.6,3.2,12.7,1.9c4.1-1.4,7.8-5.3,9.3-9.3c0.8-1.9,1.3-2.7,2.2-5.7s2.2-7.3,3.2-11c1.9-6.8,4.6-13,6.2-28.4
				c0.4-3.1,1.2-11.2,1.2-18.5c0-0.8,0.2-0.8,0.3-0.8c0.7-0.1,2.3,1.1,4.6,2.6c2.3,1.5,5.5,3.6,7.1,4.5c7.6,4.6,11.7,10.7,12.1,17.9
				c0.3,5-0.7,9-3.5,15c-1.1,2.3-1.2,2.8-0.8,3c0.7,0.4,0.8,0.4,1.8-1c3-4.4,4.8-11,4.8-17.7c0-4.2-0.6-6.8-1.8-9.4
				c-1.6-3.7-5.3-8.6-10.2-13.8c-2.6-2.7-5.1-5.4-5.6-5.9c-3.5-3.7-8.3-8.6-9.2-11.9C50,10.7,45.4,9.8,44.2,9.9L44.2,9.9z"/>
			<path id="path3014-3" class="st4" d="M52.3,16.2c1,9.3,6.5,15.6,8.8,17.1c0.7,0.4,1.5,1,1.9,1.2c7.8,4.7,12.1,11,12.4,18.5
				c0.3,5.2-0.7,9.2-3.6,15.3c-0.4,0.9-0.6,1.3-0.7,1.7c0.1-0.2,0.1-0.1,0.3-0.4c2.9-4.2,4.6-10.7,4.6-17.3c0-4.2-0.5-6.6-1.7-9.1
				c-0.1-0.3-0.8-1.6-1.5-2.8s-1.3-2.4-1.4-2.7c-0.4-0.8-2.3-3-7.2-8.2c-2.6-2.7-5.1-5.4-5.6-5.9C56.5,21.4,53.7,18.7,52.3,16.2
				L52.3,16.2z"/>
			<g id="g1404">
				<path id="path1357" class="st4" d="M49.8,43.3c0.1-0.8,0.3-0.8,0.4-0.8c0.7-0.1,2.2,1.2,4.5,2.8c2.2,1.6,5.3,3.9,6.8,4.9
					c7.4,5.1,11.1,11.3,11,18.5c0,5.1-1.2,8.9-4.3,14.8c-1.2,2.2-1.3,2.7-1,3c0.7,0.5,0.8,0.4,1.8-0.9c3.3-4.2,5.4-10.7,5.7-17.4
					c0.2-4.2-0.2-6.8-1.2-9.5c-1.4-3.8-4.9-8.9-9.4-14.3c-2.4-2.9-4.8-5.7-5.3-6.2c-3.3-3.9-7.8-9.1-8.5-12.4
					C50.2,25,49.2,50.5,49.8,43.3L49.8,43.3z"/>
				<path id="path1363" class="st4" d="M52.2,30.5c0.4,9.3,5.6,16,7.8,17.6c0.6,0.5,1.4,1.1,1.8,1.3c7.5,5.2,11.4,11.7,11.4,19.2
					c0,5.2-1.3,9.2-4.4,15.1c-0.5,0.9-0.6,1.3-0.8,1.6c0.1-0.2,0.1-0.1,0.4-0.4c3.1-4,5.2-10.4,5.6-17c0.2-4.1-0.1-6.6-1.1-9.2
					c-0.1-0.3-0.7-1.6-1.3-2.9c-0.6-1.3-1.2-2.5-1.3-2.7c-0.4-0.8-2.1-3.2-6.7-8.5c-2.4-2.9-4.8-5.7-5.3-6.2
					C56.1,36,53.4,33.1,52.2,30.5L52.2,30.5z"/>
			</g>
			<path id="path2279-4" class="st4" d="M25.4,92.8c-4.2,3.8-9.8,4.2-12.6,1s-1.7-8.9,2.5-12.6c4.2-3.8,9.8-4.2,12.6-1
				S29.6,89,25.4,92.8"/>
			<path id="path7829-1" class="st4" d="M45.1,10.3c-0.3,0-0.6,0-0.9,0c-0.2,0-0.4,0.1-0.5,0.2c2.9,6.8,4,16,3.8,21.3
				c-0.3,9.8-1.3,16.9-2.7,25.1c-1.4,8.1-4.1,15.2-6.7,22.7c0.4-0.4,1.3-2,1.8-3.6c2.5-7.8,4.3-11.1,6.7-26l0,0l0.1-0.2l0,0
				C49,35.1,49,22.4,46,10.5C45.7,10.4,45.4,10.3,45.1,10.3L45.1,10.3z"/>
		</g>
	</g>
	<g id="layer1-3" transform="matrix(.56920 .18334 -.18334 .56920 61.967 -118.22)">
		<g id="g2869" transform="translate(-20.494 -11.505)">
			<path id="path1320" class="st4" d="M99.6,12.1c-0.5-0.2-1.2-0.1-1.9,0.4c-5.5,3.1-11.9,3.6-16.7,4.1c-4.7,0.5-8.4,0.7-13,0.5
				c-4.2-0.2-7-0.4-9.5-0.9c-1.8-0.3-4.2-1.5-5.2-0.4c2.9,6.8,4.1,16.2,3.9,21.5C57,47,56,54.1,54.5,62.4c-1.4,8-4.2,15.3-6.8,22.8
				c-1.8,6-5.7,0-8.5-1.2c-4-1.8-7.5-1.9-11.4,0s-6,4.7-7,9.1c-0.9,4.3,1.2,9.6,4.8,12.5c3.5,2.8,8.6,3.2,12.7,1.9
				c4.1-1.4,7.8-5.3,9.3-9.3c0.8-1.9,1.3-2.7,2.2-5.7s2.2-7.3,3.2-11c1.9-6.8,4.6-13,6.2-28.4c0.3-2.7,1-9.3,1.2-15.7
				c1,0.1,2.2,0.5,3.3,0.6c2.4,0.4,5.1,0.5,9.3,0.5c4.5,0,8.1-0.3,12.6-1c4.1-0.7,9.6-1.4,14.6-4c0.4,5.8,0.2,14.9-0.2,19.3
				c-0.8,8-3,21.4-5.2,29.1c-1.1,3.9-2.3,6.8-3.5,10C89.7,94.8,86,90,83.6,89c-4-1.8-7.5-1.9-11.4,0s-6.1,4.7-7,9.1
				c-0.9,4.3,1.2,9.6,4.8,12.5c3.5,2.8,8.6,3.2,12.7,1.9c4.1-1.4,7.8-5.3,9.3-9.3c4.2-11.2,6.4-19.5,7.4-23.8
				c1.5-5.9,4.2-18.9,4.5-35.2c0.1-3,0.1-11.4-0.6-18.2C103.4,23.2,101.2,12.5,99.6,12.1L99.6,12.1z M99.2,24.3
				c0.5,1.9,0.6,3.7,0.8,5.7c-5.1,2.9-10.9,3.7-15.3,4.4c-4.5,0.7-8.1,1-12.6,1c-4.1,0-6.8-0.2-9.3-0.5c-0.7-0.1-1.4-0.3-2.2-0.5
				c0-2.4-0.2-4.7-0.5-6.7c6.4,0.5,8.9,0.5,11.8,0.6c4.8,0.1,10.8-0.6,14.3-1.2C90.7,26.4,96.4,24.8,99.2,24.3L99.2,24.3z"/>
			<path id="path2279-1" class="st4" d="M35.5,98.3c-4.2,3.8-9.8,4.2-12.6,1s-1.7-8.9,2.5-12.6c4.2-3.8,9.8-4.2,12.6-1
				S39.7,94.5,35.5,98.3"/>
			<path id="path2281-9" class="st4" d="M80,103c-4.2,3.8-9.8,4.2-12.6,1c-2.8-3.2-1.7-8.9,2.5-12.6c4.2-3.8,9.8-4.2,12.6-1
				C85.3,93.6,84.2,99.2,80,103"/>
			<path id="path5636" class="st4" d="M98.9,12.8c-0.2,0-0.5,0.2-0.9,0.4c-5.7,3.1-12.2,3.6-16.9,4.2c-4.7,0.5-8.5,0.7-13.1,0.5
				c-1.5-0.1-2.6-0.1-3.8-0.2c4.4,2.3,8.7,3.4,12.9,4.4c11.6,2.7,17.2,0.9,25.2,0.3c-0.4-1.9-0.8-4.1-1.3-6c-0.3-1-0.6-1.9-0.9-2.6
				c-0.1-0.3-0.3-0.6-0.4-0.7c-0.1-0.2-0.2-0.2-0.2-0.2C99.3,12.8,99.1,12.8,98.9,12.8L98.9,12.8z"/>
			<path id="path7829-8" class="st4" d="M55.3,15.8c-0.3,0-0.6,0-0.9,0c-0.2,0-0.4,0.1-0.5,0.2c2.9,6.8,4,16,3.8,21.3
				c-0.3,9.8-1.3,16.9-2.7,25.1c-1.4,8.1-4.1,15.2-6.7,22.7c0.4-0.4,1.3-2,1.8-3.6c2.5-7.8,4.3-11.1,6.7-26l0,0l0.1-0.2l0,0
				c2.3-14.6,2.3-27.4-0.7-39.3C55.8,15.9,55.5,15.8,55.3,15.8L55.3,15.8z"/>
			<path id="path7834-6" class="st4" d="M99.9,24.8C99.9,24.9,99.9,24.9,99.9,24.8C99.8,24.9,99.8,24.9,99.9,24.8
				C99.8,24.9,99.8,24.9,99.9,24.8C99.8,24.9,99.8,24.9,99.9,24.8c-0.1,0.1-0.1,0.1-0.1,0.1l0,0l0,0c0.4,1.8,0.5,4.1,0.8,6.5
				c-0.5-0.1-1,0-1.7,0.4c-5.2,3.3-8.7,3.5-13.3,4.2c-4.5,0.7-10.9,1-15.3,0.9c-3.3,0-5.3-0.2-7.3-0.4c2.1,0.3,4.2,0.6,7.6,0.8
				c4.5,0.2,8,0.3,12.5-0.2c4.6-0.5,11-1.1,16.4-4.1c0.5-0.3,1.1-0.4,1.3-0.2c0.4,5.8,0.3,15.2-0.2,19.6c-0.8,8-3,21.4-5.2,29.1
				c-1,3.6-2,6.3-3.2,9.2l0,0l0,0l0,0l0,0l0,0l0,0l0,0l0,0l0,0l0,0l0,0l0,0l0,0c0.5-0.6,1.1-1.6,1.8-3.4c1.6-4.4,4.1-13.8,6.2-28.1
				v-0.3c1-7,1.3-14.4,1.1-22.1c0-1.8-0.5-8.5-0.7-9.5c-0.2-1.2-0.4-2.1-0.7-2.7c0-0.1,0-0.1-0.1-0.1s0,0-0.1-0.1l0,0l0,0
				C100,24.9,100,24.9,99.9,24.8C100,24.9,99.9,24.9,99.9,24.8L99.9,24.8L99.9,24.8L99.9,24.8z"/>
		</g>
	</g>
	<g id="g4466" transform="matrix(3.0596 -.72185 .72185 3.0596 -1156.2 -2343.4)">
		<path id="path11" class="st5" d="M128.5,621.5c0,3.9,4.4,8.3,7.8,8.9c0,0,3.6,0.9,6.6,0.2c0.5,0.1,9.6-1.5,9.8-13.7l-1.9-14.8
			c1.3-0.2,5.5-2.2,6.7-3c3.5-2.1,5.1-5.1,6.5-7.4c1.5-3.4,2.5-5.7,2.5-9.3c0-9.3-7.5-16.8-16.8-16.8c-1.3,0-2.6,0.2-3.9,0.5
			l-1.7-11.9c6.3-7,12.6-15.5,14.8-23.4c2.1-10.4,1.1-17.4-4.5-20.4c-5.1-1.2-11.3,5.8-14.9,15.8c-2.4,5.4,0.6,15.6,2,19.8
			c-10,9.6-19.9,16.4-20.9,33c0,13,10.5,23.5,23.5,23.5c1.2,0,3.3,0,5.6-0.3l1.1,14.8c0,0,0.4,10.8-7.8,12.3
			c-3.3,0.6-6.4,1.3-5.5-0.9c2.5-1.3,5.5-3.4,5.5-6.9c0-4.3-3.3-7.8-7.3-7.8C131.8,613.6,128.5,617.1,128.5,621.5L128.5,621.5z
			 M143.3,555.2l1.5,11.1c-6.8,2.1-11.8,8.5-11.8,16c0,8.5,10.2,12.5,9.9,10.5c-4-1.7-5.4-3.6-5.4-8.2c0-5.2,3.6-9.6,8.4-10.8
			l3.7,26.5c-0.8,0.2-1.7,0.4-2.7,0.6c-14-0.3-20.5-7.7-20.5-20.7C126.3,572.8,134.9,564.4,143.3,555.2L143.3,555.2z M150.6,599.9
			l-3.7-26.4c0.6-0.1,1.1-0.1,1.7-0.1c6.2,0,11.2,5,11.2,11.2C159.7,589.5,159.5,596.9,150.6,599.9L150.6,599.9z M142.8,544.4
			c-2.5-8.5-0.2-12.7,1.2-16c3.5-7.7,6.6-10.5,9.7-13c4.1,1.6,2.2,13,1.6,13C153.4,535.1,146.6,540.4,142.8,544.4L142.8,544.4z"/>
		<path id="path2281" class="st4" d="M136.9,622.3c-2.4,2.1-5.6,2.4-7.2,0.6c-1.6-1.8-1-5,1.4-7.1s5.6-2.4,7.2-0.6
			C139.9,617,139.3,620.2,136.9,622.3"/>
	</g>
	<g id="g4494" transform="matrix(3.0596 -.72185 .72185 3.0596 -1156.2 -2343.4)">
		<path id="path4496" class="st5" d="M128.5,621.5c0,3.9,4.4,8.3,7.8,8.9c0,0,3.6,0.9,6.6,0.2c0.5,0.1,9.6-1.5,9.8-13.7l-1.9-14.8
			c1.3-0.2,5.5-2.2,6.7-3c3.5-2.1,5.1-5.1,6.5-7.4c1.5-3.4,2.5-5.7,2.5-9.3c0-9.3-7.5-16.8-16.8-16.8c-1.3,0-2.6,0.2-3.9,0.5
			l-1.7-11.9c6.3-7,12.6-15.5,14.8-23.4c2.1-10.4,1.1-17.4-4.5-20.4c-5.1-1.2-11.3,5.8-14.9,15.8c-2.4,5.4,0.6,15.6,2,19.8
			c-10,9.6-19.9,16.4-20.9,33c0,13,10.5,23.5,23.5,23.5c1.2,0,3.3,0,5.6-0.3l1.1,14.8c0,0,0.4,10.8-7.8,12.3
			c-3.3,0.6-6.4,1.3-5.5-0.9c2.5-1.3,5.5-3.4,5.5-6.9c0-4.3-3.3-7.8-7.3-7.8C131.8,613.6,128.5,617.1,128.5,621.5L128.5,621.5z
			 M143.3,555.2l1.5,11.1c-6.8,2.1-11.8,8.5-11.8,16c0,8.5,10.2,12.5,9.9,10.5c-4-1.7-5.4-3.6-5.4-8.2c0-5.2,3.6-9.6,8.4-10.8
			l3.7,26.5c-0.8,0.2-1.7,0.4-2.7,0.6c-14-0.3-20.5-7.7-20.5-20.7C126.3,572.8,134.9,564.4,143.3,555.2L143.3,555.2z M150.6,599.9
			l-3.7-26.4c0.6-0.1,1.1-0.1,1.7-0.1c6.2,0,11.2,5,11.2,11.2C159.7,589.5,159.5,596.9,150.6,599.9L150.6,599.9z M142.8,544.4
			c-2.5-8.5-0.2-12.7,1.2-16c3.5-7.7,6.6-10.5,9.7-13c4.1,1.6,2.2,13,1.6,13C153.4,535.1,146.6,540.4,142.8,544.4L142.8,544.4z"/>
		<path id="path4498" class="st4" d="M136.9,622.3c-2.4,2.1-5.6,2.4-7.2,0.6c-1.6-1.8-1-5,1.4-7.1s5.6-2.4,7.2-0.6
			C139.9,617,139.3,620.2,136.9,622.3"/>
	</g>
	<g id="g4500" transform="matrix(1.5904 -.47395 .23704 .97606 486.91 -861.2)">
		<path id="path4502" class="st4" d="M99.6,12.1c-0.5-0.2-1.2-0.1-1.9,0.4c-5.5,3.1-11.9,3.6-16.7,4.1c-4.7,0.5-8.4,0.7-13,0.5
			c-4.2-0.2-7-0.4-9.5-0.9c-1.8-0.3-4.2-1.5-5.2-0.4c2.9,6.8,4.1,16.2,3.9,21.5C57,47,56,54.1,54.5,62.4c-1.4,8-4.2,15.3-6.8,22.8
			c-1.8,6-5.7,0-8.5-1.2c-4-1.8-7.5-1.9-11.4,0s-6,4.7-7,9.1c-0.9,4.3,1.2,9.6,4.8,12.5c3.5,2.8,8.6,3.2,12.8,1.9
			c4.1-1.4,7.8-5.3,9.3-9.3c0.8-1.9,1.3-2.7,2.2-5.7s2.2-7.3,3.2-11c1.9-6.8,4.6-13,6.2-28.4c0.5-4.1,2-17.3,0.8-25.4
			c6.4,0.5,8.9,0.5,11.7,0.6c4.8,0.1,10.8-0.5,14.3-1.1c4.4-0.7,10.2-2.3,12.9-2.8c0.7,2.6,0.7,4.1,1.1,7.8c0.5,5.7,0.3,16-0.2,20.7
			c-0.8,8-3,21.4-5.2,29.1c-1.1,3.9-2.3,6.8-3.5,10c-1.6,2.9-5.3-1.9-7.7-2.9c-4-1.8-7.5-1.9-11.4,0s-6.1,4.7-7,9.1
			c-0.9,4.3,1.2,9.6,4.8,12.5c3.5,2.8,8.6,3.2,12.8,1.9c4.1-1.4,7.8-5.3,9.3-9.3c4.2-11.2,6.4-19.5,7.4-23.8
			c1.5-5.9,4.2-18.9,4.5-35.2c0.1-3,0.1-11.4-0.6-18.2C103.4,23.2,101.2,12.5,99.6,12.1L99.6,12.1z"/>
		<path id="path4504" class="st4" d="M35.5,98.3c-4.2,3.8-9.8,4.2-12.6,1s-1.7-8.9,2.5-12.6c4.2-3.8,9.8-4.2,12.6-1
			S39.7,94.5,35.5,98.3"/>
		<path id="path4506" class="st4" d="M80,103c-4.2,3.8-9.8,4.2-12.6,1c-2.8-3.2-1.7-8.9,2.5-12.6c4.2-3.8,9.8-4.2,12.6-1
			C85.3,93.6,84.2,99.2,80,103"/>
		<path id="path4508" class="st4" d="M98.9,12.8c-0.2,0-0.5,0.2-0.9,0.4c-5.7,3.1-12.2,3.6-16.9,4.2c-4.7,0.5-8.5,0.7-13.1,0.5
			c-1.5-0.1-2.6-0.1-3.8-0.2c4.4,2.3,8.7,3.4,12.9,4.4c11.6,2.7,17.2,0.9,25.2,0.3c-0.4-1.9-0.8-4.1-1.3-6c-0.3-1-0.6-1.9-0.9-2.6
			c-0.1-0.3-0.3-0.6-0.4-0.7s-0.2-0.2-0.2-0.2C99.3,12.8,99.1,12.8,98.9,12.8L98.9,12.8z"/>
		<path id="path4510" class="st4" d="M55.3,15.8c-0.3,0-0.6,0-0.9,0c-0.2,0-0.4,0.1-0.5,0.2c2.9,6.8,4,16,3.8,21.3
			c-0.3,9.8-1.3,16.9-2.7,25.1c-1.4,8.1-4.1,15.2-6.7,22.7c0.4-0.4,1.3-2,1.8-3.6c2.5-7.8,4.3-11.1,6.7-26l0,0l0.1-0.2l0,0
			c2.3-14.6,2.3-27.4-0.7-39.3C55.8,15.9,55.5,15.8,55.3,15.8L55.3,15.8z"/>
		<path id="path4512" class="st4" d="M99.9,24.9L99.9,24.9C99.8,24.9,99.8,24.9,99.9,24.9C99.8,24.9,99.8,24.9,99.9,24.9
			C99.8,24.9,99.8,24.9,99.9,24.9C99.8,25,99.8,25,99.8,25l0,0l0,0c0.5,2.1,0.6,3.6,0.9,6.9c0.5,5.7,0.3,16-0.2,20.7
			c-0.8,8-3,21.4-5.2,29.1c-1,3.6-2,6.3-3.2,9.2l0,0l0,0l0,0l0,0l0,0l0,0l0,0l0,0l0,0l0,0l0,0l0,0l0,0c0.5-0.6,1.1-1.6,1.8-3.4
			c1.6-4.4,4.1-13.8,6.2-28.1v-0.3c1-7,1.3-14.4,1.1-22c-0.1-3.8-0.3-7.2-0.7-9.5C100.3,26.4,100.1,25.5,99.9,24.9
			c-0.1-0.1-0.1-0.1-0.2-0.1s0,0-0.1-0.1l0,0l0,0C100,24.9,100,24.9,99.9,24.9C100,24.9,100,24.9,99.9,24.9L99.9,24.9L99.9,24.9
			L99.9,24.9z"/>
	</g>
	<g id="g4524" transform="translate(846.13 -936.2)">
		<g id="g4526" transform="translate(-20.494 -11.505)">
			<path id="path4528" class="st4" d="M99.6,12.1c-0.5-0.2-1.2-0.1-1.9,0.4c-5.5,3.1-11.9,3.6-16.7,4.1c-4.7,0.5-8.4,0.7-13,0.5
				c-4.2-0.2-7-0.4-9.5-0.9c-1.8-0.3-4.2-1.5-5.2-0.4c2.9,6.8,4.1,16.2,3.9,21.5C57,47,56,54.1,54.5,62.4c-1.4,8-4.2,15.3-6.8,22.8
				c-1.8,6-5.7,0-8.5-1.2c-4-1.8-7.5-1.9-11.4,0s-6,4.7-7,9.1c-0.9,4.3,1.2,9.6,4.8,12.5c3.5,2.8,8.6,3.2,12.8,1.9
				c4.1-1.4,7.8-5.3,9.3-9.3c0.8-1.9,1.3-2.7,2.2-5.7s2.2-7.3,3.2-11c1.9-6.8,4.6-13,6.2-28.4c0.3-2.7,1-9.3,1.2-15.8
				c1,0.1,2.2,0.5,3.3,0.6c2.4,0.4,5.1,0.5,9.2,0.5c4.5,0,8.1-0.3,12.6-1c4.1-0.7,9.6-1.4,14.6-4c0.4,5.8,0.2,14.9-0.2,19.3
				c-0.8,8-3,21.4-5.2,29.1c-1.1,3.9-2.3,6.8-3.5,10c-1.6,2.9-5.3-1.9-7.7-2.9c-4-1.8-7.5-1.9-11.4,0s-6.1,4.7-7,9.1
				c-0.9,4.3,1.2,9.6,4.8,12.5c3.5,2.8,8.6,3.2,12.8,1.9c4.1-1.4,7.8-5.3,9.3-9.3c4.2-11.2,6.4-19.5,7.4-23.8
				c1.5-5.9,4.2-18.9,4.5-35.2c0.1-3,0.1-11.4-0.6-18.2C103.4,23.2,101.2,12.5,99.6,12.1L99.6,12.1z M99.2,24.3
				c0.5,1.9,0.6,3.7,0.8,5.7c-5.1,2.9-10.9,3.7-15.3,4.4c-4.5,0.7-8.1,1-12.6,1c-4.1,0-6.8-0.2-9.2-0.5c-0.7-0.1-1.4-0.3-2.2-0.5
				c0-2.4-0.2-4.7-0.5-6.7c6.4,0.5,8.9,0.5,11.8,0.6c4.8,0.1,10.8-0.6,14.3-1.2C90.7,26.4,96.4,24.8,99.2,24.3L99.2,24.3z"/>
			<path id="path4530" class="st4" d="M35.5,98.3c-4.2,3.8-9.8,4.2-12.6,1s-1.7-8.9,2.5-12.6c4.2-3.8,9.8-4.2,12.6-1
				S39.7,94.5,35.5,98.3"/>
			<path id="path4532" class="st4" d="M80,103c-4.2,3.8-9.8,4.2-12.6,1c-2.8-3.2-1.7-8.9,2.5-12.6c4.2-3.8,9.8-4.2,12.6-1
				C85.3,93.6,84.2,99.2,80,103"/>
			<path id="path4534" class="st4" d="M98.9,12.8c-0.2,0-0.5,0.2-0.9,0.4c-5.7,3.1-12.2,3.6-16.9,4.2c-4.7,0.5-8.5,0.7-13.1,0.5
				c-1.5-0.1-2.6-0.1-3.8-0.2c4.4,2.3,8.7,3.4,12.9,4.4c11.6,2.7,17.2,0.9,25.2,0.3c-0.4-1.9-0.8-4.1-1.3-6c-0.3-1-0.6-1.9-0.9-2.6
				c-0.1-0.3-0.3-0.6-0.4-0.7s-0.2-0.2-0.2-0.2C99.3,12.8,99.1,12.8,98.9,12.8L98.9,12.8z"/>
			<path id="path4536" class="st4" d="M55.3,15.8c-0.3,0-0.6,0-0.9,0c-0.2,0-0.4,0.1-0.5,0.2c2.9,6.8,4,16,3.8,21.3
				c-0.3,9.8-1.3,16.9-2.7,25.1c-1.4,8.1-4.1,15.2-6.7,22.7c0.4-0.4,1.3-2,1.8-3.6c2.5-7.8,4.3-11.1,6.7-26l0,0l0.1-0.2l0,0
				c2.3-14.6,2.3-27.4-0.7-39.3C55.8,15.9,55.5,15.8,55.3,15.8L55.3,15.8z"/>
			<path id="path4538" class="st4" d="M99.9,24.8C99.9,24.9,99.9,24.9,99.9,24.8C99.8,24.9,99.8,24.9,99.9,24.8
				C99.8,24.9,99.8,24.9,99.9,24.8C99.8,24.9,99.8,24.9,99.9,24.8c-0.1,0.1-0.1,0.1-0.1,0.1l0,0l0,0c0.4,1.8,0.5,4.1,0.8,6.5
				c-0.5-0.1-1,0-1.7,0.4c-5.2,3.3-8.7,3.5-13.3,4.2c-4.5,0.7-10.9,1-15.3,0.9c-3.3,0-5.3-0.2-7.3-0.4c2.1,0.3,4.2,0.6,7.6,0.8
				c4.5,0.2,8,0.3,12.5-0.2c4.6-0.5,11-1.1,16.4-4.1c0.5-0.3,1.1-0.4,1.3-0.2c0.4,5.8,0.3,15.2-0.2,19.6c-0.8,8-3,21.4-5.2,29.1
				c-1,3.6-2,6.3-3.2,9.2l0,0l0,0l0,0l0,0l0,0l0,0l0,0l0,0l0,0l0,0l0,0l0,0l0,0c0.5-0.6,1.1-1.6,1.8-3.4c1.6-4.4,4.1-13.8,6.2-28.1
				v-0.3c1-7,1.3-14.5,1.1-22.1c0-1.8-0.5-8.5-0.7-9.5c-0.2-1.2-0.4-2.1-0.7-2.7c0-0.1,0-0.1-0.1-0.1s0,0-0.1-0.1l0,0l0,0
				C100,24.9,100,24.9,99.9,24.8C100,24.9,99.9,24.9,99.9,24.8L99.9,24.8L99.9,24.8L99.9,24.8z"/>
		</g>
	</g>
	<g id="g4550" transform="matrix(-1.1829 -.038237 .070408 .81634 749.75 -489.94)">
		<path id="path4552" class="st4" d="M99.6,12.1c-0.5-0.2-1.2-0.1-1.9,0.4c-5.5,3.1-11.9,3.6-16.7,4.1c-4.7,0.5-8.4,0.7-13,0.5
			c-4.2-0.2-7-0.4-9.5-0.9c-1.8-0.3-4.2-1.5-5.2-0.4c2.9,6.8,4.1,16.2,3.9,21.5C57,47,56,54.1,54.5,62.4c-1.4,8-4.2,15.3-6.7,22.8
			c-1.8,6-5.7,0-8.5-1.2c-4-1.8-7.5-1.9-11.4,0s-6,4.7-7,9.1c-0.9,4.3,1.2,9.6,4.8,12.5c3.5,2.8,8.6,3.2,12.8,1.9
			c4.1-1.4,7.8-5.3,9.3-9.3c0.8-1.9,1.3-2.7,2.2-5.7s2.2-7.3,3.2-11c1.9-6.8,4.6-13,6.2-28.4c0.5-4.1,2-17.3,0.8-25.4
			c6.4,0.5,8.9,0.5,11.7,0.6c4.8,0.1,10.8-0.5,14.3-1.1c4.4-0.7,10.2-2.3,12.9-2.8c0.7,2.6,0.7,4.1,1.1,7.8c0.5,5.7,0.3,16-0.2,20.7
			c-0.8,8-3,21.4-5.2,29.1c-1.1,3.9-2.3,6.8-3.5,10c-1.6,2.9-5.3-1.9-7.7-2.9c-4-1.8-7.5-1.9-11.4,0s-6.1,4.7-7,9.1
			c-0.9,4.3,1.2,9.6,4.8,12.5c3.5,2.8,8.6,3.2,12.8,1.9c4.1-1.4,7.8-5.3,9.3-9.3c4.2-11.2,6.4-19.5,7.4-23.8
			c1.5-5.9,4.2-18.9,4.5-35.2c0.1-3,0.1-11.4-0.6-18.2C103.4,23.2,101.2,12.5,99.6,12.1L99.6,12.1z"/>
		<path id="path4554" class="st4" d="M35.5,98.3c-4.2,3.8-9.8,4.2-12.6,1s-1.7-8.9,2.5-12.6c4.2-3.8,9.8-4.2,12.6-1
			S39.7,94.5,35.5,98.3"/>
		<path id="path4556" class="st4" d="M80,103c-4.2,3.8-9.8,4.2-12.6,1c-2.8-3.2-1.7-8.9,2.5-12.6c4.2-3.8,9.8-4.2,12.6-1
			C85.3,93.6,84.2,99.2,80,103"/>
		<path id="path4558" class="st4" d="M98.9,12.8c-0.2,0-0.5,0.2-0.9,0.4c-5.7,3.1-12.2,3.6-16.9,4.2c-4.7,0.5-8.5,0.7-13.1,0.5
			c-1.5-0.1-2.6-0.1-3.8-0.2c4.4,2.3,8.7,3.4,12.9,4.4c11.6,2.7,17.2,0.9,25.2,0.3c-0.4-1.9-0.8-4.1-1.3-6c-0.3-1-0.6-1.9-0.9-2.6
			c-0.1-0.3-0.3-0.6-0.4-0.7s-0.2-0.2-0.2-0.2C99.3,12.8,99.1,12.8,98.9,12.8L98.9,12.8z"/>
		<path id="path4560" class="st4" d="M55.3,15.8c-0.3,0-0.6,0-0.9,0c-0.2,0-0.4,0.1-0.5,0.2c2.9,6.8,4,16,3.8,21.3
			c-0.3,9.8-1.3,16.9-2.7,25.1c-1.4,8.1-4.1,15.2-6.7,22.7c0.4-0.4,1.3-2,1.8-3.6c2.5-7.8,4.3-11.1,6.7-26l0,0l0.1-0.2l0,0
			c2.3-14.6,2.3-27.4-0.7-39.3C55.8,15.9,55.5,15.8,55.3,15.8L55.3,15.8z"/>
		<path id="path4562" class="st4" d="M99.9,24.9L99.9,24.9C99.8,24.9,99.8,24.9,99.9,24.9C99.8,24.9,99.8,24.9,99.9,24.9
			C99.8,24.9,99.8,24.9,99.9,24.9C99.8,25,99.8,25,99.8,25l0,0l0,0c0.5,2.1,0.6,3.6,0.9,6.9c0.5,5.7,0.3,16-0.2,20.7
			c-0.8,8-3,21.4-5.2,29.1c-1,3.6-2,6.3-3.2,9.2l0,0l0,0l0,0l0,0l0,0l0,0l0,0l0,0l0,0l0,0l0,0l0,0l0,0c0.5-0.6,1.1-1.6,1.8-3.4
			c1.6-4.4,4.1-13.8,6.2-28.1v-0.3c1-7,1.3-14.4,1.1-22c-0.1-3.8-0.3-7.2-0.7-9.5C100.3,26.4,100.1,25.5,99.9,24.9
			c-0.1-0.1-0.1-0.1-0.2-0.1s0,0-0.1-0.1l0,0l0,0C100,24.9,100,24.9,99.9,24.9C100,24.9,100,24.9,99.9,24.9L99.9,24.9L99.9,24.9
			L99.9,24.9z"/>
	</g>
	<g id="g4564" transform="matrix(-.86809 .063492 0.00768 .60875 1009.2 -578.72)">
		<g id="g4568">
			<path id="path4570" class="st4" d="M34.5,0.6c-0.4,0-0.7,0.2-1,0.5c2.9,6.8,4.1,16.2,3.9,21.5c-0.3,9.7-1.3,16.8-2.7,25.1
				c-1.4,8-4.2,15.3-6.8,22.8c-1.8,6-5.7,0-8.5-1.2c-4-1.8-7.5-1.9-11.4,0S2,74,1,78.4C0.1,82.7,2.2,88,5.8,90.9
				c3.5,2.8,8.6,3.2,12.8,1.9c4.1-1.4,7.8-5.3,9.3-9.3c0.8-1.9,1.3-2.7,2.2-5.7s2.2-7.3,3.2-11c1.9-6.8,4.6-13,6.2-28.4
				c0.4-3.1,1.2-11.2,1.2-18.5c0-0.8,0.2-0.8,0.3-0.8c0.7-0.1,2.3,1.1,4.6,2.6s5.5,3.6,7.1,4.5c7.6,4.6,11.7,10.7,12.1,17.9
				c0.3,5-0.7,9-3.5,15c-1.1,2.3-1.2,2.8-0.8,3c0.7,0.4,0.8,0.4,1.8-1c3-4.4,4.8-11,4.8-17.7c0-4.2-0.6-6.8-1.8-9.4
				c-1.6-3.7-5.3-8.6-10.2-13.8c-2.6-2.7-5.1-5.4-5.6-5.9c-3.5-3.7-8.3-8.6-9.2-11.9C40.2,1.5,35.7,0.5,34.5,0.6L34.5,0.6z"/>
			<path id="path4572" class="st4" d="M15.6,83.5c-4.2,3.8-9.8,4.2-12.6,1s-1.7-8.9,2.5-12.6c4.2-3.8,9.8-4.2,12.6-1
				S19.8,79.7,15.6,83.5"/>
			<path id="path4574" class="st4" d="M35.4,1.1c-0.3,0-0.6,0-0.9,0c-0.2,0-0.4,0.1-0.5,0.2c2.9,6.8,4,16,3.8,21.3
				c-0.3,9.8-1.3,16.9-2.7,25.1c-1.4,8.1-4.1,15.2-6.7,22.7c0.4-0.4,1.3-2,1.8-3.6c2.5-7.8,4.3-11.1,6.7-26l0,0l0.1-0.2l0,0
				c2.3-14.6,2.3-27.4-0.7-39.3C35.9,1.2,35.6,1.1,35.4,1.1L35.4,1.1z"/>
			<path id="path4576" class="st4" d="M42.5,6.9c1,9.3,6.5,15.6,8.8,17.1c0.7,0.4,1.5,1,1.9,1.2c7.8,4.7,12.1,11,12.4,18.5
				c0.3,5.2-0.7,9.2-3.6,15.3c-0.4,0.9-0.6,1.3-0.7,1.7c0.1-0.2,0.1-0.1,0.3-0.4c2.9-4.2,4.6-10.7,4.6-17.3c0-4.2-0.5-6.6-1.7-9.1
				c-0.1-0.3-0.8-1.6-1.5-2.8s-1.3-2.4-1.4-2.7c-0.4-0.8-2.3-3-7.2-8.2c-2.4-2.5-5-5.2-5.4-5.7C46.8,12.1,43.9,9.4,42.5,6.9
				L42.5,6.9z"/>
		</g>
	</g>
	<g id="g4578" transform="matrix(-1.0929 -.13156 -.22684 .96265 512.91 -454.45)">
		<g id="g4582" transform="translate(-9.75 -9.25)">
			<path id="path4584" class="st4" d="M44.2,9.9c-0.4,0-0.7,0.2-1,0.5c2.9,6.8,4.1,16.2,3.9,21.5c-0.3,9.7-1.3,16.8-2.7,25.1
				c-1.4,8-4.2,15.3-6.8,22.8c-1.8,6-5.7,0-8.5-1.2c-4-1.8-7.5-1.9-11.4,0s-6,4.7-7,9.1c-0.9,4.3,1.2,9.6,4.8,12.5
				c3.5,2.8,8.6,3.2,12.8,1.9c4.1-1.4,7.8-5.3,9.3-9.3c0.8-1.9,1.3-2.7,2.2-5.7s2.2-7.3,3.2-11c1.9-6.8,4.6-13,6.2-28.4
				c0.4-3.1,1.2-11.2,1.2-18.5c0-0.8,0.2-0.8,0.3-0.8c0.7-0.1,2.3,1.1,4.6,2.6c2.3,1.5,5.5,3.6,7.1,4.5c7.6,4.6,11.7,10.7,12.1,17.9
				c0.3,5-0.7,9-3.5,15c-1.1,2.3-1.2,2.8-0.8,3c0.7,0.4,0.8,0.4,1.8-1c3-4.4,4.8-11,4.8-17.7c0-4.2-0.6-6.8-1.8-9.4
				c-1.6-3.7-5.3-8.6-10.2-13.8c-2.6-2.7-5.1-5.4-5.6-5.9c-3.5-3.7-8.3-8.6-9.2-11.9C50,10.7,45.4,9.8,44.2,9.9L44.2,9.9z"/>
			<path id="path4586" class="st4" d="M52.3,16.2c1,9.3,6.5,15.6,8.8,17.1c0.7,0.4,1.5,1,1.9,1.2c7.8,4.7,12.1,11,12.4,18.5
				c0.3,5.2-0.7,9.2-3.6,15.3c-0.4,0.9-0.6,1.3-0.7,1.7c0.1-0.2,0.1-0.1,0.3-0.4c2.9-4.2,4.6-10.7,4.6-17.3c0-4.2-0.5-6.6-1.7-9.1
				c-0.1-0.3-0.8-1.6-1.5-2.8s-1.3-2.4-1.4-2.7c-0.4-0.8-2.3-3-7.2-8.2c-2.6-2.7-5.1-5.4-5.6-5.9C56.5,21.4,53.7,18.7,52.3,16.2
				L52.3,16.2z"/>
			<g id="g4588">
				<path id="path4590" class="st4" d="M49.8,43.3c0.1-0.8,0.3-0.8,0.4-0.8c0.7-0.1,2.2,1.2,4.5,2.8c2.2,1.6,5.3,3.9,6.8,4.9
					c7.4,5.1,11.1,11.3,11,18.5c0,5.1-1.2,8.9-4.3,14.8c-1.2,2.2-1.3,2.7-1,3c0.7,0.5,0.8,0.4,1.8-0.9c3.3-4.2,5.4-10.7,5.7-17.4
					c0.2-4.2-0.2-6.8-1.2-9.5c-1.4-3.8-4.9-8.9-9.4-14.3c-2.4-2.9-4.8-5.7-5.3-6.2c-3.3-3.9-7.8-9.1-8.5-12.4
					C50.2,25,49.2,50.5,49.8,43.3L49.8,43.3z"/>
				<path id="path4592" class="st4" d="M52.2,30.5c0.4,9.3,5.6,16,7.8,17.6c0.6,0.5,1.4,1.1,1.8,1.3c7.5,5.2,11.4,11.7,11.4,19.2
					c0,5.2-1.3,9.2-4.4,15.1c-0.5,0.9-0.6,1.3-0.8,1.6c0.1-0.2,0.1-0.1,0.4-0.4c3.1-4,5.2-10.4,5.6-17c0.2-4.1-0.1-6.6-1.1-9.2
					c-0.1-0.3-0.7-1.6-1.3-2.9c-0.6-1.3-1.2-2.5-1.3-2.7c-0.4-0.8-2.1-3.2-6.7-8.5c-2.4-2.9-4.8-5.7-5.3-6.2
					C56.1,36,53.4,33.1,52.2,30.5L52.2,30.5z"/>
			</g>
			<path id="path4594" class="st4" d="M25.4,92.8c-4.2,3.8-9.8,4.2-12.6,1s-1.7-8.9,2.5-12.6c4.2-3.8,9.8-4.2,12.6-1
				S29.6,89,25.4,92.8"/>
			<path id="path4596" class="st4" d="M45.1,10.3c-0.3,0-0.6,0-0.9,0c-0.2,0-0.4,0.1-0.5,0.2c2.9,6.8,4,16,3.8,21.3
				c-0.3,9.8-1.3,16.9-2.7,25.1c-1.4,8.1-4.1,15.2-6.7,22.7c0.4-0.4,1.3-2,1.8-3.6c2.5-7.8,4.3-11.1,6.7-26l0,0l0.1-0.2l0,0
				C49,35.1,49,22.4,46,10.5C45.7,10.4,45.4,10.3,45.1,10.3L45.1,10.3z"/>
		</g>
	</g>
	<g id="g4598" transform="matrix(-1.1911 -.10236 -.011514 .74729 310.03 -348.59)">
		<path id="path4600" class="st4" d="M99.6,12.1c-0.5-0.2-1.2-0.1-1.9,0.4c-5.5,3.1-11.9,3.6-16.7,4.1c-4.7,0.5-8.4,0.7-13,0.5
			c-4.2-0.2-7-0.4-9.5-0.9c-1.8-0.3-4.2-1.5-5.2-0.4c2.9,6.8,4.1,16.2,3.9,21.5C57,47,56,54.1,54.5,62.4c-1.4,8-4.2,15.3-6.8,22.8
			c-1.8,6-5.7,0-8.5-1.2c-4-1.8-7.5-1.9-11.4,0s-6,4.7-7,9.1c-0.9,4.3,1.2,9.6,4.8,12.5c3.5,2.8,8.6,3.2,12.8,1.9
			c4.1-1.4,7.8-5.3,9.3-9.3c0.8-1.9,1.3-2.7,2.2-5.7s2.2-7.3,3.2-11c1.9-6.8,4.6-13,6.2-28.4c0.5-4.1,2-17.3,0.8-25.4
			c6.4,0.5,8.9,0.5,11.7,0.6c4.8,0.1,10.8-0.5,14.3-1.1c4.4-0.7,10.2-2.3,12.9-2.8c0.7,2.6,0.7,4.1,1.1,7.8c0.5,5.7,0.3,16-0.2,20.7
			c-0.8,8-3,21.4-5.2,29.1c-1.1,3.9-2.3,6.8-3.5,10c-1.6,2.9-5.3-1.9-7.7-2.9c-4-1.8-7.5-1.9-11.4,0s-6.1,4.7-7,9.1
			c-0.9,4.3,1.2,9.6,4.8,12.5c3.5,2.8,8.6,3.2,12.8,1.9c4.1-1.4,7.8-5.3,9.3-9.3c4.2-11.2,6.4-19.5,7.4-23.8
			c1.5-5.9,4.2-18.9,4.5-35.2c0.1-3,0.1-11.4-0.6-18.2C103.4,23.2,101.2,12.5,99.6,12.1L99.6,12.1z"/>
		<path id="path4602" class="st4" d="M35.5,98.3c-4.2,3.8-9.8,4.2-12.6,1s-1.7-8.9,2.5-12.6c4.2-3.8,9.8-4.2,12.6-1
			S39.7,94.5,35.5,98.3"/>
		<path id="path4604" class="st4" d="M80,103c-4.2,3.8-9.8,4.2-12.6,1c-2.8-3.2-1.7-8.9,2.5-12.6c4.2-3.8,9.8-4.2,12.6-1
			C85.3,93.6,84.2,99.2,80,103"/>
		<path id="path4606" class="st4" d="M98.9,12.8c-0.2,0-0.5,0.2-0.9,0.4c-5.7,3.1-12.2,3.6-16.9,4.2c-4.7,0.5-8.5,0.7-13.1,0.5
			c-1.5-0.1-2.6-0.1-3.8-0.2c4.4,2.3,8.7,3.4,12.9,4.4c11.6,2.7,17.2,0.9,25.2,0.3c-0.4-1.9-0.8-4.1-1.3-6c-0.3-1-0.6-1.9-0.9-2.6
			c-0.1-0.3-0.3-0.6-0.4-0.7s-0.2-0.2-0.2-0.2C99.3,12.8,99.1,12.8,98.9,12.8L98.9,12.8z"/>
		<path id="path4608" class="st4" d="M55.3,15.8c-0.3,0-0.6,0-0.9,0c-0.2,0-0.4,0.1-0.5,0.2c2.9,6.8,4,16,3.8,21.3
			c-0.3,9.8-1.3,16.9-2.7,25.1c-1.4,8.1-4.1,15.2-6.7,22.7c0.4-0.4,1.3-2,1.8-3.6c2.5-7.8,4.3-11.1,6.7-26l0,0l0.1-0.2l0,0
			c2.3-14.6,2.3-27.4-0.7-39.3C55.8,15.9,55.5,15.8,55.3,15.8L55.3,15.8z"/>
		<path id="path4610" class="st4" d="M99.9,24.9L99.9,24.9C99.8,24.9,99.8,24.9,99.9,24.9C99.8,24.9,99.8,24.9,99.9,24.9
			C99.8,24.9,99.8,24.9,99.9,24.9C99.8,25,99.8,25,99.8,25l0,0l0,0c0.5,2.1,0.6,3.6,0.9,6.9c0.5,5.7,0.3,16-0.2,20.7
			c-0.8,8-3,21.4-5.2,29.1c-1,3.6-2,6.3-3.2,9.2l0,0l0,0l0,0l0,0l0,0l0,0l0,0l0,0l0,0l0,0l0,0l0,0l0,0c0.5-0.6,1.1-1.6,1.8-3.4
			c1.6-4.4,4.1-13.8,6.2-28.1v-0.3c1-7,1.3-14.4,1.1-22c-0.1-3.8-0.3-7.2-0.7-9.5C100.3,26.4,100.1,25.5,99.9,24.9
			c-0.1-0.1-0.1-0.1-0.2-0.1s0,0-0.1-0.1l0,0l0,0C100,24.9,100,24.9,99.9,24.9C100,24.9,100,24.9,99.9,24.9L99.9,24.9L99.9,24.9
			L99.9,24.9z"/>
	</g>
	<g id="g4612" transform="matrix(-.69610 .19509 .057151 .88657 96.831 -309.63)">
		<g id="g4614" transform="translate(-20.494 -11.505)">
			<path id="path4616" class="st4" d="M99.6,12.1c-0.5-0.2-1.2-0.1-1.9,0.4c-5.5,3.1-11.9,3.6-16.7,4.1c-4.7,0.5-8.4,0.7-13,0.5
				c-4.2-0.2-7-0.4-9.5-0.9c-1.8-0.3-4.2-1.5-5.2-0.4c2.9,6.8,4.1,16.2,3.9,21.5C57,47,56,54.1,54.5,62.4c-1.4,8-4.2,15.3-6.8,22.8
				c-1.8,6-5.7,0-8.5-1.2c-4-1.8-7.5-1.9-11.4,0s-6,4.7-7,9.1c-0.9,4.3,1.2,9.6,4.8,12.5c3.5,2.8,8.6,3.2,12.8,1.9
				c4.1-1.4,7.8-5.3,9.3-9.3c0.8-1.9,1.3-2.7,2.2-5.7s2.2-7.3,3.2-11c1.9-6.8,4.6-13,6.2-28.4c0.3-2.7,1-9.3,1.2-15.8
				c1,0.1,2.2,0.5,3.3,0.6c2.4,0.4,5.1,0.5,9.2,0.5c4.5,0,8.1-0.3,12.6-1c4.1-0.7,9.6-1.4,14.6-4c0.4,5.8,0.2,14.9-0.2,19.3
				c-0.8,8-3,21.4-5.2,29.1c-1.1,3.9-2.3,6.8-3.5,10c-1.6,2.9-5.3-1.9-7.7-2.9c-4-1.8-7.5-1.9-11.4,0s-6.1,4.7-7,9.1
				c-0.9,4.3,1.2,9.6,4.8,12.5c3.5,2.8,8.6,3.2,12.8,1.9c4.1-1.4,7.8-5.3,9.3-9.3c4.2-11.2,6.4-19.5,7.4-23.8
				c1.5-5.9,4.2-18.9,4.5-35.2c0.1-3,0.1-11.4-0.6-18.2C103.4,23.2,101.2,12.5,99.6,12.1L99.6,12.1z M99.2,24.3
				c0.5,1.9,0.6,3.7,0.8,5.7c-5.1,2.9-10.9,3.7-15.3,4.4c-4.5,0.7-8.1,1-12.6,1c-4.1,0-6.8-0.2-9.2-0.5c-0.7-0.1-1.4-0.3-2.2-0.5
				c0-2.4-0.2-4.7-0.5-6.7c6.4,0.5,8.9,0.5,11.8,0.6c4.8,0.1,10.8-0.6,14.3-1.2C90.7,26.4,96.4,24.8,99.2,24.3L99.2,24.3z"/>
			<path id="path4618" class="st4" d="M35.5,98.3c-4.2,3.8-9.8,4.2-12.6,1s-1.7-8.9,2.5-12.6c4.2-3.8,9.8-4.2,12.6-1
				S39.7,94.5,35.5,98.3"/>
			<path id="path4620" class="st4" d="M80,103c-4.2,3.8-9.8,4.2-12.6,1c-2.8-3.2-1.7-8.9,2.5-12.6c4.2-3.8,9.8-4.2,12.6-1
				C85.3,93.6,84.2,99.2,80,103"/>
			<path id="path4622" class="st4" d="M98.9,12.8c-0.2,0-0.5,0.2-0.9,0.4c-5.7,3.1-12.2,3.6-16.9,4.2c-4.7,0.5-8.5,0.7-13.1,0.5
				c-1.5-0.1-2.6-0.1-3.8-0.2c4.4,2.3,8.7,3.4,12.9,4.4c11.6,2.7,17.2,0.9,25.2,0.3c-0.4-1.9-0.8-4.1-1.3-6c-0.3-1-0.6-1.9-0.9-2.6
				c-0.1-0.3-0.3-0.6-0.4-0.7s-0.2-0.2-0.2-0.2C99.3,12.8,99.1,12.8,98.9,12.8L98.9,12.8z"/>
			<path id="path4624" class="st4" d="M55.3,15.8c-0.3,0-0.6,0-0.9,0c-0.2,0-0.4,0.1-0.5,0.2c2.9,6.8,4,16,3.8,21.3
				c-0.3,9.8-1.3,16.9-2.7,25.1c-1.4,8.1-4.1,15.2-6.7,22.7c0.4-0.4,1.3-2,1.8-3.6c2.5-7.8,4.3-11.1,6.7-26l0,0l0.1-0.2l0,0
				c2.3-14.6,2.3-27.4-0.7-39.3C55.8,15.9,55.5,15.8,55.3,15.8L55.3,15.8z"/>
			<path id="path4626" class="st4" d="M99.9,24.8C99.9,24.9,99.9,24.9,99.9,24.8C99.8,24.9,99.8,24.9,99.9,24.8
				C99.8,24.9,99.8,24.9,99.9,24.8C99.8,24.9,99.8,24.9,99.9,24.8c-0.1,0.1-0.1,0.1-0.1,0.1l0,0l0,0c0.4,1.8,0.5,4.1,0.8,6.5
				c-0.5-0.1-1,0-1.7,0.4c-5.2,3.3-8.7,3.5-13.3,4.2c-4.5,0.7-10.9,1-15.3,0.9c-3.3,0-5.3-0.2-7.3-0.4c2.1,0.3,4.2,0.6,7.6,0.8
				c4.5,0.2,8,0.3,12.5-0.2c4.6-0.5,11-1.1,16.4-4.1c0.5-0.3,1.1-0.4,1.3-0.2c0.4,5.8,0.3,15.2-0.2,19.6c-0.8,8-3,21.4-5.2,29.1
				c-1,3.6-2,6.3-3.2,9.2l0,0l0,0l0,0l0,0l0,0l0,0l0,0l0,0l0,0l0,0l0,0l0,0l0,0c0.5-0.6,1.1-1.6,1.8-3.4c1.6-4.4,4.1-13.8,6.2-28.1
				v-0.3c1-7,1.3-14.4,1.1-22.1c0-1.8-0.5-8.5-0.7-9.5c-0.2-1.2-0.4-2.1-0.7-2.7c0-0.1,0-0.1-0.1-0.1s0,0-0.1-0.1l0,0l0,0
				C100,24.9,100,24.9,99.9,24.8C100,24.9,99.9,24.9,99.9,24.8L99.9,24.8L99.9,24.8L99.9,24.8z"/>
		</g>
	</g>
	<g id="g4714" transform="matrix(.80374 -.082404 .082404 .80374 -59.674 204.54)">
		<path id="path4678" class="st4" d="M581-642.6c0.5,0.1,1,0.2,1.3,0.5c-4.8,6.2-7.4,15.2-7.8,20.2c-0.7,9.3-0.1,16.2,0.9,24.1
			c1,7.8,4,14.9,6.7,22.3c1.9,5.9,7.9,0.5,11.8-0.5c5.7-1.4,10.5-1.2,15.6,0.9c5.1,2.1,7.7,4.9,8.6,9.2c0.8,4.2-2.8,9.1-8,11.6
			c-5.1,2.4-12.2,2.4-17.7,0.8c-5.5-1.7-10.1-5.7-11.8-9.6c-0.9-1.8-1.4-2.7-2.4-5.6s-2.2-7.1-3.2-10.8c-1.9-6.7-4.8-12.8-5.3-27.6
			c-0.2-3-0.7-10.9,0.4-17.8l2.6-16.8C572.8-642.3,579.3-642.8,581-642.6L581-642.6z"/>
		<path id="path4680" class="st4" d="M597.5-562c5.3,3.9,13,4.8,17.2,2s3.3-8.3-2-12.2s-13-4.8-17.2-2S592.1-565.9,597.5-562"/>
		<path id="path4682" class="st4" d="M579.7-642.2c0.4,0,0.8,0,1.3,0.1c0.3,0,0.5,0.1,0.7,0.3c-4.7,6.3-7.3,15-7.6,20
			c-0.7,9.3-0.2,16.2,0.9,24.2c1,7.8,3.9,14.9,6.6,22.2c-0.5-0.4-1.6-2.1-2.1-3.5c-2.6-7.7-4.7-10.9-6.3-25.4l0,0l-0.1-0.2l0,0
			c-1.5-14.2-0.1-26.4,5.4-37.4C578.9-642.2,579.3-642.3,579.7-642.2L579.7-642.2z"/>
	</g>
	<g id="g4723" transform="matrix(-1.0957 0.145 -.016662 1.2645 1405.9 -222.26)">
		<path id="path4725" class="st4" d="M581-642.6c0.5,0.1,1,0.2,1.3,0.5c-4.8,6.2-7.4,15.2-7.8,20.2c-0.7,9.3-0.1,16.2,0.9,24.1
			c1,7.8,4,14.9,6.7,22.3c1.9,5.9,7.9,0.5,11.8-0.5c5.7-1.4,10.5-1.2,15.6,0.9c5.1,2.1,7.7,4.9,8.6,9.2c0.8,4.2-2.8,9.1-8,11.6
			c-5.1,2.4-12.2,2.4-17.7,0.8c-5.5-1.7-10.1-5.7-11.8-9.6c-0.9-1.8-1.4-2.7-2.4-5.6s-2.2-7.1-3.2-10.8c-1.9-6.7-4.8-12.8-5.3-27.6
			c-0.2-3-0.7-10.9,0.4-17.8l2.6-16.8C572.8-642.3,579.3-642.8,581-642.6L581-642.6z"/>
		<path id="path4727" class="st4" d="M597.5-562c5.3,3.9,13,4.8,17.2,2s3.3-8.3-2-12.2s-13-4.8-17.2-2S592.1-565.9,597.5-562"/>
		<path id="path4729" class="st4" d="M579.7-642.2c0.4,0,0.8,0,1.3,0.1c0.3,0,0.5,0.1,0.7,0.3c-4.7,6.3-7.3,15-7.6,20
			c-0.7,9.3-0.2,16.2,0.9,24.2c1,7.8,3.9,14.9,6.6,22.2c-0.5-0.4-1.6-2.1-2.1-3.5c-2.6-7.7-4.7-10.9-6.3-25.4l0,0l-0.1-0.2l0,0
			c-1.5-14.2-0.1-26.4,5.4-37.4C578.9-642.2,579.3-642.3,579.7-642.2L579.7-642.2z"/>
	</g>
	<g id="g4735" transform="matrix(.67847 -.35873 -.29418 -.82735 252.57 -724.21)">
		<path id="path4737" class="st4" d="M581-642.6c0.5,0.1,1,0.2,1.3,0.5c-4.8,6.2-7.4,15.2-7.8,20.2c-0.7,9.3-0.1,16.2,0.9,24.1
			c1,7.8,4,14.9,6.7,22.3c1.9,5.9,7.9,0.5,11.8-0.5c5.7-1.4,10.5-1.2,15.6,0.9c5.1,2.1,7.7,4.9,8.6,9.2c0.8,4.2-2.8,9.1-8,11.6
			c-5.1,2.4-12.2,2.4-17.7,0.8c-5.5-1.7-10.1-5.7-11.8-9.6c-0.9-1.8-1.4-2.7-2.4-5.6s-2.2-7.1-3.2-10.8c-1.9-6.7-4.8-12.8-5.3-27.6
			c-0.2-3-0.7-10.9,0.4-17.8l2.6-16.8C572.8-642.3,579.3-642.8,581-642.6L581-642.6z"/>
		<path id="path4739" class="st4" d="M597.5-562c5.3,3.9,13,4.8,17.2,2s3.3-8.3-2-12.2s-13-4.8-17.2-2S592.1-565.9,597.5-562"/>
		<path id="path4741" class="st4" d="M579.7-642.2c0.4,0,0.8,0,1.3,0.1c0.3,0,0.5,0.1,0.7,0.3c-4.7,6.3-7.3,15-7.6,20
			c-0.7,9.3-0.2,16.2,0.9,24.2c1,7.8,3.9,14.9,6.6,22.2c-0.5-0.4-1.6-2.1-2.1-3.5c-2.6-7.7-4.7-10.9-6.3-25.4l0,0l-0.1-0.2l0,0
			c-1.5-14.2-0.1-26.4,5.4-37.4C578.9-642.2,579.3-642.3,579.7-642.2L579.7-642.2z"/>
	</g>
	<g id="g4747" transform="matrix(.36601 -.40749 -.40095 -.48164 621.34 -629.39)">
		<path id="path4749" class="st4" d="M581-642.6c0.5,0.1,1,0.2,1.3,0.5c-4.8,6.2-7.4,15.2-7.8,20.2c-0.7,9.3-0.1,16.2,0.9,24.1
			c1,7.8,4,14.9,6.7,22.3c1.9,5.9,7.9,0.5,11.8-0.5c5.7-1.4,10.5-1.2,15.6,0.9c5.1,2.1,7.7,4.9,8.6,9.2c0.8,4.2-2.8,9.1-8,11.6
			c-5.1,2.4-12.2,2.4-17.7,0.8c-5.5-1.7-10.1-5.7-11.8-9.6c-0.9-1.8-1.4-2.7-2.4-5.6s-2.2-7.1-3.2-10.8c-1.9-6.7-4.8-12.8-5.3-27.6
			c-0.2-3-0.7-10.9,0.4-17.8l2.6-16.8C572.8-642.3,579.3-642.8,581-642.6L581-642.6z"/>
		<path id="path4751" class="st4" d="M597.5-562c5.3,3.9,13,4.8,17.2,2s3.3-8.3-2-12.2s-13-4.8-17.2-2S592.1-565.9,597.5-562"/>
		<path id="path4753" class="st4" d="M579.7-642.3c0.4,0,0.8,0,1.3,0.1c0.3,0,0.5,0.1,0.7,0.3c-4.7,6.3-7.3,15-7.6,20
			c-0.7,9.3-0.2,16.2,0.9,24.2c1,7.8,3.9,14.9,6.6,22.2c-0.5-0.4-1.6-2.1-2.1-3.5c-2.6-7.7-4.7-10.9-6.3-25.4l0,0l-0.1-0.2l0,0
			c-1.5-14.2-0.1-26.4,5.4-37.4C578.9-642.2,579.3-642.3,579.7-642.3L579.7-642.3z"/>
	</g>
	<g id="g4759" transform="matrix(.46565 .033648 .038750 .53275 643.46 -198.63)">
		<path id="path4761" class="st4" d="M581-642.6c0.5,0.1,1,0.2,1.3,0.5c-4.8,6.2-7.4,15.2-7.8,20.2c-0.7,9.3-0.1,16.2,0.9,24.1
			c1,7.8,4,14.9,6.7,22.3c1.9,5.9,7.9,0.5,11.8-0.5c5.7-1.4,10.5-1.2,15.6,0.9c5.1,2.1,7.7,4.9,8.6,9.2c0.8,4.2-2.8,9.1-8,11.6
			c-5.1,2.4-12.2,2.4-17.7,0.8c-5.5-1.7-10.1-5.7-11.8-9.6c-0.9-1.8-1.4-2.7-2.4-5.6s-2.2-7.1-3.2-10.8c-1.9-6.7-4.8-12.8-5.3-27.6
			c-0.2-3-0.7-10.9,0.4-17.8l2.6-16.8C572.8-642.3,579.3-642.8,581-642.6L581-642.6z"/>
		<path id="path4763" class="st4" d="M597.5-562c5.3,3.9,13,4.8,17.2,2s3.3-8.3-2-12.2s-13-4.8-17.2-2S592.1-565.9,597.5-562"/>
		<path id="path4765" class="st4" d="M579.7-642.2c0.4,0,0.8,0,1.3,0.1c0.3,0,0.5,0.1,0.7,0.3c-4.7,6.3-7.3,15-7.6,20
			c-0.7,9.3-0.2,16.2,0.9,24.2c1,7.8,3.9,14.9,6.6,22.2c-0.5-0.4-1.6-2.1-2.1-3.5c-2.6-7.7-4.7-10.9-6.3-25.4l0,0l-0.1-0.2l0,0
			c-1.5-14.2-0.1-26.4,5.4-37.4C578.9-642.2,579.3-642.3,579.7-642.2L579.7-642.2z"/>
	</g>
	<g id="g4771" transform="matrix(-.74822 0 0 .74822 697.86 429.65)">
		<path id="path4773" class="st4" d="M581-642.6c0.5,0.1,1,0.2,1.3,0.5c-4.8,6.2-7.4,15.2-7.8,20.2c-0.7,9.3-0.1,16.2,0.9,24.1
			c1,7.8,4,14.9,6.7,22.3c1.9,5.9,7.9,0.5,11.8-0.5c5.7-1.4,10.5-1.2,15.6,0.9c5.1,2.1,7.7,4.9,8.6,9.2c0.8,4.2-2.8,9.1-8,11.6
			c-5.1,2.4-12.2,2.4-17.7,0.8c-5.5-1.7-10.1-5.7-11.8-9.6c-0.9-1.8-1.4-2.7-2.4-5.6s-2.2-7.1-3.2-10.8c-1.9-6.7-4.8-12.8-5.3-27.6
			c-0.2-3-0.7-10.9,0.4-17.8l2.6-16.8C572.8-642.3,579.3-642.8,581-642.6L581-642.6z"/>
		<path id="path4775" class="st4" d="M597.5-562c5.3,3.9,13,4.8,17.2,2s3.3-8.3-2-12.2s-13-4.8-17.2-2S592.1-565.9,597.5-562"/>
		<path id="path4777" class="st4" d="M579.7-642.2c0.4,0,0.8,0,1.3,0.1c0.3,0,0.5,0.1,0.7,0.3c-4.7,6.3-7.3,15-7.6,20
			c-0.7,9.3-0.2,16.2,0.9,24.2c1,7.8,3.9,14.9,6.6,22.2c-0.5-0.4-1.6-2.1-2.1-3.5c-2.6-7.7-4.7-10.9-6.3-25.4l0,0l-0.1-0.2l0,0
			c-1.5-14.2-0.1-26.4,5.4-37.4C578.9-642.2,579.3-642.3,579.7-642.2L579.7-642.2z"/>
	</g>
	<g id="g4783" transform="matrix(.99087 -.085155 .0095791 .62168 335.72 -74.017)">
		<path id="path4785" class="st4" d="M99.6,12.1c-0.5-0.2-1.2-0.1-1.9,0.4c-5.5,3.1-11.9,3.6-16.7,4.1c-4.7,0.5-8.4,0.7-13,0.5
			c-4.2-0.2-7-0.4-9.5-0.9c-1.8-0.3-4.2-1.5-5.2-0.4c2.9,6.8,4.1,16.2,3.9,21.5C57,47,56,54.1,54.5,62.4c-1.4,8-4.2,15.3-6.8,22.8
			c-1.8,6-5.7,0-8.5-1.2c-4-1.8-7.5-1.9-11.4,0s-6,4.7-7,9.1c-0.9,4.3,1.2,9.6,4.8,12.5c3.5,2.8,8.6,3.2,12.8,1.9
			c4.1-1.4,7.8-5.3,9.3-9.3c0.8-1.9,1.3-2.7,2.2-5.7s2.2-7.3,3.2-11c1.9-6.8,4.6-13,6.2-28.4c0.5-4.1,2-17.3,0.8-25.4
			c6.4,0.5,8.9,0.5,11.7,0.6c4.8,0.1,10.8-0.5,14.3-1.1c4.4-0.7,10.2-2.3,12.9-2.8c0.7,2.6,0.7,4.1,1.1,7.8c0.5,5.7,0.3,16-0.2,20.7
			c-0.8,8-3,21.4-5.2,29.1c-1.1,3.9-2.3,6.8-3.5,10c-1.6,2.9-5.3-1.9-7.7-2.9c-4-1.8-7.5-1.9-11.4,0s-6.1,4.7-7,9.1
			c-0.9,4.3,1.2,9.6,4.8,12.5c3.5,2.8,8.6,3.2,12.8,1.9c4.1-1.4,7.8-5.3,9.3-9.3c4.2-11.2,6.4-19.5,7.4-23.8
			c1.5-5.9,4.2-18.9,4.5-35.2c0.1-3,0.1-11.4-0.6-18.2C103.4,23.2,101.2,12.5,99.6,12.1L99.6,12.1z"/>
		<path id="path4787" class="st4" d="M35.5,98.3c-4.2,3.8-9.8,4.2-12.6,1s-1.7-8.9,2.5-12.6c4.2-3.8,9.8-4.2,12.6-1
			S39.7,94.5,35.5,98.3"/>
		<path id="path4789" class="st4" d="M80,103c-4.2,3.8-9.8,4.2-12.6,1c-2.8-3.2-1.7-8.9,2.5-12.6c4.2-3.8,9.8-4.2,12.6-1
			C85.3,93.6,84.2,99.2,80,103"/>
		<path id="path4791" class="st4" d="M98.9,12.8c-0.2,0-0.5,0.2-0.9,0.4c-5.7,3.1-12.2,3.6-16.9,4.2c-4.7,0.5-8.5,0.7-13.1,0.5
			c-1.5-0.1-2.6-0.1-3.8-0.2c4.4,2.3,8.7,3.4,12.9,4.4c11.6,2.7,17.2,0.9,25.2,0.3c-0.4-1.9-0.8-4.1-1.3-6c-0.3-1-0.6-1.9-0.9-2.6
			c-0.1-0.3-0.3-0.6-0.4-0.7s-0.2-0.2-0.2-0.2C99.3,12.8,99.1,12.8,98.9,12.8L98.9,12.8z"/>
		<path id="path4793" class="st4" d="M55.3,15.8c-0.3,0-0.6,0-0.9,0c-0.2,0-0.4,0.1-0.5,0.2c2.9,6.8,4,16,3.8,21.3
			c-0.3,9.8-1.3,16.9-2.7,25.1c-1.4,8.1-4.1,15.2-6.7,22.7c0.4-0.4,1.3-2,1.8-3.6c2.5-7.8,4.3-11.1,6.7-26l0,0l0.1-0.2l0,0
			c2.3-14.6,2.3-27.4-0.7-39.3C55.8,15.9,55.5,15.8,55.3,15.8L55.3,15.8z"/>
		<path id="path4795" class="st4" d="M99.9,24.9L99.9,24.9C99.8,24.9,99.8,24.9,99.9,24.9C99.8,24.9,99.8,24.9,99.9,24.9
			C99.8,24.9,99.8,24.9,99.9,24.9C99.8,25,99.8,25,99.8,25l0,0l0,0c0.5,2.1,0.6,3.6,0.9,6.9c0.5,5.7,0.3,16-0.2,20.7
			c-0.8,8-3,21.4-5.2,29.1c-1,3.6-2,6.3-3.2,9.2l0,0l0,0l0,0l0,0l0,0l0,0l0,0l0,0l0,0l0,0l0,0l0,0l0,0c0.5-0.6,1.1-1.6,1.8-3.4
			c1.6-4.4,4.1-13.8,6.2-28.1v-0.3c1-7,1.3-14.4,1.1-22c-0.1-3.8-0.3-7.2-0.7-9.5C100.3,26.4,100.1,25.5,99.9,24.9
			c-0.1-0.1-0.1-0.1-0.2-0.1s0,0-0.1-0.1l0,0l0,0C100,24.9,100,24.9,99.9,24.9C100,24.9,100,24.9,99.9,24.9L99.9,24.9L99.9,24.9
			L99.9,24.9z"/>
	</g>
	<g id="g4807" transform="matrix(.92516 -.11137 .19202 .81491 508.3 -51.13)">
		<g id="g4811" transform="translate(-9.75 -9.25)">
			<path id="path4813" class="st4" d="M44.2,9.9c-0.4,0-0.7,0.2-1,0.5c2.9,6.8,4.1,16.2,3.9,21.5c-0.3,9.7-1.3,16.8-2.7,25.1
				c-1.4,8-4.2,15.3-6.8,22.8c-1.8,6-5.7,0-8.5-1.2c-4-1.8-7.5-1.9-11.4,0s-6,4.7-7,9.1c-0.9,4.3,1.2,9.6,4.8,12.5
				c3.5,2.8,8.6,3.2,12.8,1.9c4.1-1.4,7.8-5.3,9.3-9.3c0.8-1.9,1.3-2.7,2.2-5.7s2.2-7.3,3.2-11c1.9-6.8,4.6-13,6.2-28.4
				c0.4-3.1,1.2-11.2,1.2-18.5c0-0.8,0.2-0.8,0.3-0.8c0.7-0.1,2.3,1.1,4.6,2.6c2.3,1.5,5.5,3.6,7.1,4.5c7.6,4.6,11.7,10.7,12.1,17.9
				c0.3,5-0.7,9-3.5,15c-1.1,2.3-1.2,2.8-0.8,3c0.7,0.4,0.8,0.4,1.8-1c3-4.4,4.8-11,4.8-17.7c0-4.2-0.6-6.8-1.8-9.4
				c-1.6-3.7-5.3-8.6-10.2-13.8c-2.6-2.7-5.1-5.4-5.6-5.9c-3.5-3.7-8.3-8.6-9.2-11.9C50,10.7,45.4,9.8,44.2,9.9L44.2,9.9z"/>
			<path id="path4815" class="st4" d="M52.3,16.2c1,9.3,6.5,15.6,8.8,17.1c0.7,0.4,1.5,1,1.9,1.2c7.8,4.7,12.1,11,12.4,18.5
				c0.3,5.2-0.7,9.2-3.6,15.3c-0.4,0.9-0.6,1.3-0.7,1.7c0.1-0.2,0.1-0.1,0.3-0.4c2.9-4.2,4.6-10.7,4.6-17.3c0-4.2-0.5-6.6-1.7-9.1
				c-0.1-0.3-0.8-1.6-1.5-2.8s-1.3-2.4-1.4-2.7c-0.4-0.8-2.3-3-7.2-8.2c-2.6-2.7-5.1-5.4-5.6-5.9C56.5,21.4,53.7,18.7,52.3,16.2
				L52.3,16.2z"/>
			<g id="g4817">
				<path id="path4819" class="st4" d="M49.8,43.3c0.1-0.8,0.3-0.8,0.4-0.8c0.7-0.1,2.2,1.2,4.5,2.8c2.2,1.6,5.3,3.9,6.8,4.9
					c7.4,5.1,11.1,11.3,11,18.5c0,5.1-1.2,8.9-4.3,14.8c-1.2,2.2-1.3,2.7-1,3c0.7,0.5,0.8,0.4,1.8-0.9c3.3-4.2,5.4-10.7,5.7-17.4
					c0.2-4.2-0.2-6.8-1.2-9.5c-1.4-3.8-4.9-8.9-9.4-14.3c-2.4-2.9-4.8-5.7-5.3-6.2c-3.3-3.9-7.8-9.1-8.5-12.4
					C50.2,25,49.2,50.5,49.8,43.3L49.8,43.3z"/>
				<path id="path4821" class="st4" d="M52.2,30.5c0.4,9.3,5.6,16,7.8,17.6c0.6,0.5,1.4,1.1,1.8,1.3c7.5,5.2,11.4,11.7,11.4,19.2
					c0,5.2-1.3,9.2-4.4,15.1c-0.5,0.9-0.6,1.3-0.8,1.6c0.1-0.2,0.1-0.1,0.4-0.4c3.1-4,5.2-10.4,5.6-17c0.2-4.1-0.1-6.6-1.1-9.2
					c-0.1-0.3-0.7-1.6-1.3-2.9c-0.6-1.3-1.2-2.5-1.3-2.7c-0.4-0.8-2.1-3.2-6.7-8.5c-2.4-2.9-4.8-5.7-5.3-6.2
					C56.1,36,53.4,33.1,52.2,30.5L52.2,30.5z"/>
			</g>
			<path id="path4823" class="st4" d="M25.4,92.8c-4.2,3.8-9.8,4.2-12.6,1s-1.7-8.9,2.5-12.6c4.2-3.8,9.8-4.2,12.6-1
				S29.6,89,25.4,92.8"/>
			<path id="path4825" class="st4" d="M45.1,10.3c-0.3,0-0.6,0-0.9,0c-0.2,0-0.4,0.1-0.5,0.2c2.9,6.8,4,16,3.8,21.3
				c-0.3,9.8-1.3,16.9-2.7,25.1c-1.4,8.1-4.1,15.2-6.7,22.7c0.4-0.4,1.3-2,1.8-3.6c2.5-7.8,4.3-11.1,6.7-26l0,0l0.1-0.2l0,0
				C49,35.1,49,22.4,46,10.5C45.7,10.4,45.4,10.3,45.1,10.3L45.1,10.3z"/>
		</g>
	</g>
	<g id="g4835" transform="matrix(1.0587 -.23402 .072188 .73302 641.17 -95.534)">
		<path id="path4837" class="st4" d="M99.6,12.1c-0.5-0.2-1.2-0.1-1.9,0.4c-5.5,3.1-11.9,3.6-16.7,4.1c-4.7,0.5-8.4,0.7-13,0.5
			c-4.2-0.2-7-0.4-9.5-0.9c-1.8-0.3-4.2-1.5-5.2-0.4c2.9,6.8,4.1,16.2,3.9,21.5C57,47,56,54.1,54.5,62.4c-1.4,8-4.2,15.3-6.8,22.8
			c-1.8,6-5.7,0-8.5-1.2c-4-1.8-7.5-1.9-11.4,0s-6,4.7-7,9.1c-0.9,4.3,1.2,9.6,4.8,12.5c3.5,2.8,8.6,3.2,12.7,1.9
			c4.1-1.4,7.8-5.3,9.3-9.3c0.8-1.9,1.3-2.7,2.2-5.7s2.2-7.3,3.2-11c1.9-6.8,4.6-13,6.2-28.4c0.5-4.1,2-17.3,0.8-25.4
			c6.4,0.5,8.9,0.5,11.7,0.6c4.8,0.1,10.8-0.5,14.3-1.1c4.4-0.7,10.2-2.3,12.9-2.8c0.7,2.6,0.7,4.1,1.1,7.8c0.5,5.7,0.3,16-0.2,20.7
			c-0.8,8-3,21.4-5.2,29.1c-1.1,3.9-2.3,6.8-3.5,10c-1.6,2.9-5.3-1.9-7.7-2.9c-4-1.8-7.5-1.9-11.4,0s-6.1,4.7-7,9.1
			c-0.9,4.3,1.2,9.6,4.8,12.5c3.5,2.8,8.6,3.2,12.8,1.9c4.1-1.4,7.8-5.3,9.3-9.3c4.2-11.2,6.4-19.5,7.4-23.8
			c1.5-5.9,4.2-18.9,4.5-35.2c0.1-3,0.1-11.4-0.6-18.2C103.4,23.2,101.2,12.5,99.6,12.1L99.6,12.1z"/>
		<path id="path4839" class="st4" d="M35.5,98.3c-4.2,3.8-9.8,4.2-12.6,1s-1.7-8.9,2.5-12.6c4.2-3.8,9.8-4.2,12.6-1
			C40.8,88.9,39.7,94.5,35.5,98.3"/>
		<path id="path4841" class="st4" d="M80,103c-4.2,3.8-9.8,4.2-12.6,1c-2.8-3.2-1.7-8.9,2.5-12.6c4.2-3.8,9.8-4.2,12.6-1
			C85.3,93.6,84.2,99.2,80,103"/>
		<path id="path4843" class="st4" d="M98.9,12.8c-0.2,0-0.5,0.2-0.9,0.4c-5.7,3.1-12.2,3.6-16.9,4.2c-4.7,0.5-8.5,0.7-13.1,0.5
			c-1.5-0.1-2.6-0.1-3.8-0.2c4.4,2.3,8.7,3.4,12.9,4.4c11.6,2.7,17.2,0.9,25.2,0.3c-0.4-1.9-0.8-4.1-1.3-6c-0.3-1-0.6-1.9-0.9-2.6
			c-0.1-0.3-0.3-0.6-0.4-0.7s-0.2-0.2-0.2-0.2C99.3,12.8,99.1,12.8,98.9,12.8L98.9,12.8z"/>
		<path id="path4845" class="st4" d="M55.3,15.8c-0.3,0-0.6,0-0.9,0c-0.2,0-0.4,0.1-0.5,0.2c2.9,6.8,4,16,3.8,21.3
			c-0.3,9.8-1.3,16.9-2.7,25.1c-1.4,8.1-4.1,15.2-6.7,22.7c0.4-0.4,1.3-2,1.8-3.6c2.5-7.8,4.3-11.1,6.7-26l0,0l0.1-0.2l0,0
			c2.3-14.6,2.3-27.4-0.7-39.3C55.8,15.9,55.5,15.8,55.3,15.8L55.3,15.8z"/>
		<path id="path4847" class="st4" d="M99.9,24.9L99.9,24.9C99.8,24.9,99.8,24.9,99.9,24.9C99.8,24.9,99.8,24.9,99.9,24.9
			C99.8,24.9,99.8,24.9,99.9,24.9C99.8,25,99.8,25,99.8,25l0,0l0,0c0.5,2.1,0.6,3.6,0.9,6.9c0.5,5.7,0.3,16-0.2,20.7
			c-0.8,8-3,21.4-5.2,29.1c-1,3.6-2,6.3-3.2,9.2l0,0l0,0l0,0l0,0l0,0l0,0l0,0l0,0l0,0l0,0l0,0l0,0l0,0c0.5-0.6,1.1-1.6,1.8-3.4
			c1.6-4.4,4.1-13.8,6.2-28.1v-0.3c1-7,1.3-14.4,1.1-22c-0.1-3.8-0.3-7.2-0.7-9.5C100.3,26.4,100.1,25.5,99.9,24.9
			c-0.1-0.1-0.1-0.1-0.2-0.1s0,0-0.1-0.1l0,0l0,0C100,24.9,100,24.9,99.9,24.9C100,24.9,100,24.9,99.9,24.9L99.9,24.9L99.9,24.9
			L99.9,24.9z"/>
	</g>
	<g id="g4859" transform="matrix(.91327 -.26310 .13611 .54183 874.42 -122.86)">
		<path id="path4861" class="st4" d="M99.6,12.1c-0.5-0.2-1.2-0.1-1.9,0.4c-5.5,3.1-11.9,3.6-16.7,4.1c-4.7,0.5-8.4,0.7-13,0.5
			c-4.2-0.2-7-0.4-9.5-0.9c-1.8-0.3-4.2-1.5-5.2-0.4c2.9,6.8,4.1,16.2,3.9,21.5C57,47,56,54.1,54.5,62.4c-1.4,8-4.2,15.3-6.8,22.8
			c-1.8,6-5.7,0-8.5-1.2c-4-1.8-7.5-1.9-11.4,0s-6,4.7-7,9.1c-0.9,4.3,1.2,9.6,4.8,12.5c3.5,2.8,8.6,3.2,12.8,1.9
			c4.1-1.4,7.8-5.3,9.3-9.3c0.8-1.9,1.3-2.7,2.2-5.7s2.2-7.3,3.2-11c1.9-6.8,4.6-13,6.2-28.4c0.5-4.1,2-17.3,0.8-25.4
			c6.4,0.5,8.9,0.5,11.7,0.6c4.8,0.1,10.8-0.5,14.3-1.1c4.4-0.7,10.2-2.3,12.9-2.8c0.7,2.6,0.7,4.1,1.1,7.8c0.5,5.7,0.3,16-0.2,20.7
			c-0.8,8-3,21.4-5.2,29.1c-1.1,3.9-2.3,6.8-3.5,10c-1.6,2.9-5.3-1.9-7.7-2.9c-4-1.8-7.5-1.9-11.4,0s-6.1,4.7-7,9.1
			c-0.9,4.3,1.2,9.6,4.8,12.5c3.5,2.8,8.6,3.2,12.8,1.9c4.1-1.4,7.8-5.3,9.3-9.3c4.2-11.2,6.4-19.5,7.4-23.8
			c1.5-5.9,4.2-18.9,4.5-35.2c0.1-3,0.1-11.4-0.6-18.2C103.4,23.2,101.2,12.5,99.6,12.1L99.6,12.1z"/>
		<path id="path4863" class="st4" d="M35.5,98.3c-4.2,3.8-9.8,4.2-12.6,1s-1.7-8.9,2.5-12.6c4.2-3.8,9.8-4.2,12.6-1
			S39.7,94.5,35.5,98.3"/>
		<path id="path4865" class="st4" d="M80,103c-4.2,3.8-9.8,4.2-12.6,1c-2.8-3.2-1.7-8.9,2.5-12.6c4.2-3.8,9.8-4.2,12.6-1
			C85.3,93.6,84.2,99.2,80,103"/>
		<path id="path4867" class="st4" d="M98.9,12.8c-0.2,0-0.5,0.2-0.9,0.4c-5.7,3.1-12.2,3.6-16.9,4.2c-4.7,0.5-8.5,0.7-13.1,0.5
			c-1.5-0.1-2.6-0.1-3.8-0.2c4.4,2.3,8.7,3.4,12.9,4.4c11.6,2.7,17.2,0.9,25.2,0.3c-0.4-1.9-0.8-4.1-1.3-6c-0.3-1-0.6-1.9-0.9-2.6
			c-0.1-0.3-0.3-0.6-0.4-0.7s-0.2-0.2-0.2-0.2C99.3,12.8,99.1,12.8,98.9,12.8L98.9,12.8z"/>
		<path id="path4869" class="st4" d="M55.3,15.8c-0.3,0-0.6,0-0.9,0c-0.2,0-0.4,0.1-0.5,0.2c2.9,6.8,4,16,3.8,21.3
			c-0.3,9.8-1.3,16.9-2.7,25.1c-1.4,8.1-4.1,15.2-6.7,22.7c0.4-0.4,1.3-2,1.8-3.6c2.5-7.8,4.3-11.1,6.7-26l0,0l0.1-0.2l0,0
			c2.3-14.6,2.3-27.4-0.7-39.3C55.8,15.9,55.5,15.8,55.3,15.8L55.3,15.8z"/>
		<path id="path4871" class="st4" d="M99.9,24.9L99.9,24.9C99.8,24.9,99.8,24.9,99.9,24.9C99.8,24.9,99.8,24.9,99.9,24.9
			C99.8,24.9,99.8,24.9,99.9,24.9C99.8,25,99.8,25,99.8,25l0,0l0,0c0.5,2.1,0.6,3.6,0.9,6.9c0.5,5.7,0.3,16-0.2,20.7
			c-0.8,8-3,21.4-5.2,29.1c-1,3.6-2,6.3-3.2,9.2l0,0l0,0l0,0l0,0l0,0l0,0l0,0l0,0l0,0l0,0l0,0l0,0l0,0c0.5-0.6,1.1-1.6,1.8-3.4
			c1.6-4.4,4.1-13.8,6.2-28.1v-0.3c1-7,1.3-14.4,1.1-22c-0.1-3.8-0.3-7.2-0.7-9.5C100.3,26.4,100.1,25.5,99.9,24.9
			c-0.1-0.1-0.1-0.1-0.2-0.1s0,0-0.1-0.1l0,0l0,0C100,24.9,100,24.9,99.9,24.9C100,24.9,100,24.9,99.9,24.9L99.9,24.9L99.9,24.9
			L99.9,24.9z"/>
	</g>
	<g id="g4873" transform="matrix(.69353 -.38856 .38763 .69185 785.59 -125.77)">
		<g id="g4877">
			<path id="path4879" class="st4" d="M34.5,0.6c-0.4,0-0.7,0.2-1,0.5c2.9,6.8,4.1,16.2,3.9,21.5c-0.3,9.7-1.3,16.8-2.7,25.1
				c-1.4,8-4.2,15.3-6.8,22.8c-1.8,6-5.7,0-8.5-1.2c-4-1.8-7.5-1.9-11.4,0S2,74,1,78.4C0.1,82.7,2.2,88,5.8,90.9
				c3.5,2.8,8.6,3.2,12.8,1.9c4.1-1.4,7.8-5.3,9.3-9.3c0.8-1.9,1.3-2.7,2.2-5.7s2.2-7.3,3.2-11c1.9-6.8,4.6-13,6.2-28.4
				c0.4-3.1,1.2-11.2,1.2-18.5c0-0.8,0.2-0.8,0.3-0.8c0.7-0.1,2.3,1.1,4.6,2.6s5.5,3.6,7.1,4.5c7.6,4.6,11.7,10.7,12.1,17.9
				c0.3,5-0.7,9-3.5,15c-1.1,2.3-1.2,2.8-0.8,3c0.7,0.4,0.8,0.4,1.8-1c3-4.4,4.8-11,4.8-17.7c0-4.2-0.6-6.8-1.8-9.4
				c-1.6-3.7-5.3-8.6-10.2-13.8c-2.6-2.7-5.1-5.4-5.6-5.9c-3.5-3.7-8.3-8.6-9.2-11.9C40.2,1.5,35.7,0.5,34.5,0.6L34.5,0.6z"/>
			<path id="path4881" class="st4" d="M15.6,83.5c-4.2,3.8-9.8,4.2-12.6,1s-1.7-8.9,2.5-12.6c4.2-3.8,9.8-4.2,12.6-1
				S19.8,79.7,15.6,83.5"/>
			<path id="path4883" class="st4" d="M35.4,1.1c-0.3,0-0.6,0-0.9,0c-0.2,0-0.4,0.1-0.5,0.2c2.9,6.8,4,16,3.8,21.3
				c-0.3,9.8-1.3,16.9-2.7,25.1c-1.4,8.1-4.1,15.2-6.7,22.7c0.4-0.4,1.3-2,1.8-3.6c2.5-7.8,4.3-11.1,6.7-26l0,0l0.1-0.2l0,0
				c2.3-14.6,2.3-27.4-0.7-39.3C35.9,1.2,35.6,1.1,35.4,1.1L35.4,1.1z"/>
			<path id="path4885" class="st4" d="M42.5,6.9c1,9.3,6.5,15.6,8.8,17.1c0.7,0.4,1.5,1,1.9,1.2c7.8,4.7,12.1,11,12.4,18.5
				c0.3,5.2-0.7,9.2-3.6,15.3c-0.4,0.9-0.6,1.3-0.7,1.7c0.1-0.2,0.1-0.1,0.3-0.4c2.9-4.2,4.6-10.7,4.6-17.3c0-4.2-0.5-6.6-1.7-9.1
				c-0.1-0.3-0.8-1.6-1.5-2.8s-1.3-2.4-1.4-2.7c-0.4-0.8-2.3-3-7.2-8.2c-2.4-2.5-5-5.2-5.4-5.7C46.8,12.1,43.9,9.4,42.5,6.9
				L42.5,6.9z"/>
		</g>
	</g>
	<g id="g4887" transform="matrix(.54564 -.17122 .23204 .40262 1043.3 -145.1)">
		<g id="g4891" transform="translate(-9.75 -9.25)">
			<path id="path4893" class="st4" d="M44.2,9.9c-0.4,0-0.7,0.2-1,0.5c2.9,6.8,4.1,16.2,3.9,21.5c-0.3,9.7-1.3,16.8-2.7,25.1
				c-1.4,8-4.2,15.3-6.8,22.8c-1.8,6-5.7,0-8.5-1.2c-4-1.8-7.5-1.9-11.4,0s-6,4.7-7,9.1c-0.9,4.3,1.2,9.6,4.8,12.5
				c3.5,2.8,8.6,3.2,12.8,1.9c4.1-1.4,7.8-5.3,9.3-9.3c0.8-1.9,1.3-2.7,2.2-5.7c0.9-3,2.2-7.3,3.2-11c1.9-6.8,4.6-13,6.2-28.4
				c0.4-3.1,1.2-11.2,1.2-18.5c0-0.8,0.2-0.8,0.3-0.8c0.7-0.1,2.3,1.1,4.6,2.6s5.5,3.6,7.1,4.5c7.6,4.6,11.7,10.7,12.1,17.9
				c0.3,5-0.7,9-3.5,15c-1.1,2.3-1.2,2.8-0.8,3c0.7,0.4,0.8,0.4,1.8-1c3-4.4,4.8-11,4.8-17.7c0-4.2-0.6-6.8-1.8-9.4
				c-1.6-3.7-5.3-8.6-10.2-13.8c-2.6-2.7-5.1-5.4-5.6-5.9c-3.5-3.7-8.3-8.6-9.2-11.9C50,10.7,45.4,9.8,44.2,9.9L44.2,9.9z"/>
			<path id="path4895" class="st4" d="M52.3,16.2c1,9.3,6.5,15.6,8.8,17.1c0.7,0.4,1.5,1,1.9,1.2c7.8,4.7,12.1,11,12.4,18.5
				c0.3,5.2-0.7,9.2-3.6,15.3c-0.4,0.9-0.6,1.3-0.7,1.7c0.1-0.2,0.1-0.1,0.3-0.4c2.9-4.2,4.6-10.7,4.6-17.3c0-4.2-0.5-6.6-1.7-9.1
				c-0.1-0.3-0.8-1.6-1.5-2.8s-1.3-2.4-1.4-2.7c-0.4-0.8-2.3-3-7.2-8.2c-2.6-2.7-5.1-5.4-5.6-5.9C56.5,21.4,53.7,18.7,52.3,16.2
				L52.3,16.2z"/>
			<g id="g4897">
				<path id="path4899" class="st4" d="M49.8,43.3c0.1-0.8,0.3-0.8,0.4-0.8c0.7-0.1,2.2,1.2,4.5,2.8c2.2,1.6,5.3,3.9,6.8,4.9
					c7.4,5.1,11.1,11.3,11,18.5c0,5.1-1.2,8.9-4.3,14.8c-1.2,2.2-1.3,2.7-1,3c0.7,0.5,0.8,0.4,1.8-0.9c3.3-4.2,5.4-10.7,5.7-17.4
					c0.2-4.2-0.2-6.8-1.2-9.5c-1.4-3.8-4.9-8.9-9.4-14.3c-2.4-2.9-4.8-5.7-5.3-6.2c-3.3-3.9-7.8-9.1-8.5-12.4
					C50.2,25,49.2,50.5,49.8,43.3L49.8,43.3z"/>
				<path id="path4901" class="st4" d="M52.2,30.5c0.4,9.3,5.6,16,7.8,17.6c0.6,0.5,1.4,1.1,1.8,1.3c7.5,5.2,11.4,11.7,11.4,19.2
					c0,5.2-1.3,9.2-4.4,15.1c-0.5,0.9-0.6,1.3-0.8,1.6c0.1-0.2,0.1-0.1,0.4-0.4c3.1-4,5.2-10.4,5.6-17c0.2-4.1-0.1-6.6-1.1-9.2
					c-0.1-0.3-0.7-1.6-1.3-2.9c-0.6-1.3-1.2-2.5-1.3-2.7c-0.4-0.8-2.1-3.2-6.7-8.5c-2.4-2.9-4.8-5.7-5.3-6.2
					C56.1,36,53.4,33.1,52.2,30.5L52.2,30.5z"/>
			</g>
			<path id="path4903" class="st4" d="M25.4,92.8c-4.2,3.8-9.8,4.2-12.6,1s-1.7-8.9,2.5-12.6c4.2-3.8,9.8-4.2,12.6-1
				S29.6,89,25.4,92.8"/>
			<path id="path4905" class="st4" d="M45.1,10.3c-0.3,0-0.6,0-0.9,0c-0.2,0-0.4,0.1-0.5,0.2c2.9,6.8,4,16,3.8,21.3
				c-0.3,9.8-1.3,16.9-2.7,25.1c-1.4,8.1-4.1,15.2-6.7,22.7c0.4-0.4,1.3-2,1.8-3.6c2.5-7.8,4.3-11.1,6.7-26l0,0l0.1-0.2l0,0
				C49,35.1,49,22.4,46,10.5C45.7,10.4,45.4,10.3,45.1,10.3L45.1,10.3z"/>
		</g>
	</g>
	<g id="g4907" transform="matrix(.66456 -.19804 .099046 .40785 1146 -183.06)">
		<path id="path4909" class="st4" d="M99.6,12.1c-0.5-0.2-1.2-0.1-1.9,0.4c-5.5,3.1-11.9,3.6-16.7,4.1c-4.7,0.5-8.4,0.7-13,0.5
			c-4.2-0.2-7-0.4-9.5-0.9c-1.8-0.3-4.2-1.5-5.2-0.4c2.9,6.8,4.1,16.2,3.9,21.5C57,47,56,54.1,54.5,62.4c-1.4,8-4.2,15.3-6.8,22.8
			c-1.8,6-5.7,0-8.5-1.2c-4-1.8-7.5-1.9-11.4,0s-6,4.7-7,9.1c-0.9,4.3,1.2,9.6,4.8,12.5c3.5,2.8,8.6,3.2,12.8,1.9
			c4.1-1.4,7.8-5.3,9.3-9.3c0.8-1.9,1.3-2.7,2.2-5.7s2.2-7.3,3.2-11c1.9-6.8,4.6-13,6.2-28.4c0.5-4.1,2-17.3,0.8-25.4
			c6.4,0.5,8.9,0.5,11.7,0.6c4.8,0.1,10.8-0.5,14.3-1.1c4.4-0.7,10.2-2.3,12.9-2.8c0.7,2.6,0.7,4.1,1.1,7.8c0.5,5.7,0.3,16-0.2,20.7
			c-0.8,8-3,21.4-5.2,29.1c-1.1,3.9-2.3,6.8-3.5,10c-1.6,2.9-5.3-1.9-7.7-2.9c-4-1.8-7.5-1.9-11.4,0s-6.1,4.7-7,9.1
			c-0.9,4.3,1.2,9.6,4.8,12.5c3.5,2.8,8.6,3.2,12.8,1.9c4.1-1.4,7.8-5.3,9.3-9.3c4.2-11.2,6.4-19.5,7.4-23.8
			c1.5-5.9,4.2-18.9,4.5-35.2c0.1-3,0.1-11.4-0.6-18.2C103.4,23.2,101.2,12.5,99.6,12.1L99.6,12.1z"/>
		<path id="path4911" class="st4" d="M35.5,98.3c-4.2,3.8-9.8,4.2-12.6,1s-1.7-8.9,2.5-12.6c4.2-3.8,9.8-4.2,12.6-1
			S39.7,94.5,35.5,98.3"/>
		<path id="path4913" class="st4" d="M80,103c-4.2,3.8-9.8,4.2-12.6,1c-2.8-3.2-1.7-8.9,2.5-12.6c4.2-3.8,9.8-4.2,12.6-1
			C85.3,93.6,84.2,99.2,80,103"/>
		<path id="path4915" class="st4" d="M98.9,12.8c-0.2,0-0.5,0.2-0.9,0.4c-5.7,3.1-12.2,3.6-16.9,4.2c-4.7,0.5-8.5,0.7-13.1,0.5
			c-1.5-0.1-2.6-0.1-3.8-0.2c4.4,2.3,8.7,3.4,12.9,4.4c11.6,2.7,17.2,0.9,25.2,0.3c-0.4-1.9-0.8-4.1-1.3-6c-0.3-1-0.6-1.9-0.9-2.6
			c-0.1-0.3-0.3-0.6-0.4-0.7s-0.2-0.2-0.2-0.2C99.3,12.8,99.1,12.8,98.9,12.8L98.9,12.8z"/>
		<path id="path4917" class="st4" d="M55.3,15.8c-0.3,0-0.6,0-0.9,0c-0.2,0-0.4,0.1-0.5,0.2c2.9,6.8,4,16,3.8,21.3
			c-0.3,9.8-1.3,16.9-2.7,25.1c-1.4,8.1-4.1,15.2-6.7,22.7c0.4-0.4,1.3-2,1.8-3.6c2.5-7.8,4.3-11.1,6.7-26l0,0l0.1-0.2l0,0
			c2.3-14.6,2.3-27.4-0.7-39.3C55.8,15.9,55.5,15.8,55.3,15.8L55.3,15.8z"/>
		<path id="path4919" class="st4" d="M99.9,24.9L99.9,24.9C99.8,24.9,99.8,24.9,99.9,24.9C99.8,24.9,99.8,24.9,99.9,24.9
			C99.8,24.9,99.8,24.9,99.9,24.9C99.8,25,99.8,25,99.8,25l0,0l0,0c0.5,2.1,0.6,3.6,0.9,6.9c0.5,5.7,0.3,16-0.2,20.7
			c-0.8,8-3,21.4-5.2,29.1c-1,3.6-2,6.3-3.2,9.2l0,0l0,0l0,0l0,0l0,0l0,0l0,0l0,0l0,0l0,0l0,0l0,0l0,0c0.5-0.6,1.1-1.6,1.8-3.4
			c1.6-4.4,4.1-13.8,6.2-28.1v-0.3c1-7,1.3-14.4,1.1-22c-0.1-3.8-0.3-7.2-0.7-9.5C100.3,26.4,100.1,25.5,99.9,24.9
			c-0.1-0.1-0.1-0.1-0.2-0.1s0,0-0.1-0.1l0,0l0,0C100,24.9,100,24.9,99.9,24.9C100,24.9,100,24.9,99.9,24.9L99.9,24.9L99.9,24.9
			L99.9,24.9z"/>
	</g>
	<g id="g4921" transform="matrix(.41560 0 0 .41560 1326.8 -218.84)">
		<g id="g4923" transform="translate(-20.494 -11.505)">
			<path id="path4925" class="st4" d="M99.6,12.1c-0.5-0.2-1.2-0.1-1.9,0.4c-5.5,3.1-11.9,3.6-16.7,4.1c-4.7,0.5-8.4,0.7-13,0.5
				c-4.2-0.2-7-0.4-9.5-0.9c-1.8-0.3-4.2-1.5-5.2-0.4c2.9,6.8,4.1,16.2,3.9,21.5C57,47,56,54.1,54.5,62.4c-1.4,8-4.2,15.3-6.8,22.8
				c-1.8,6-5.7,0-8.5-1.2c-4-1.8-7.5-1.9-11.4,0s-6,4.7-7,9.1c-0.9,4.3,1.2,9.6,4.8,12.5c3.5,2.8,8.6,3.2,12.8,1.9
				c4.1-1.4,7.8-5.3,9.3-9.3c0.8-1.9,1.3-2.7,2.2-5.7s2.2-7.3,3.2-11c1.9-6.8,4.6-13,6.2-28.4c0.3-2.7,1-9.3,1.2-15.8
				c1,0.1,2.2,0.5,3.3,0.6c2.4,0.4,5.1,0.5,9.2,0.5c4.5,0,8.1-0.3,12.6-1c4.1-0.7,9.6-1.4,14.6-4c0.4,5.8,0.2,14.9-0.2,19.3
				c-0.8,8-3,21.4-5.2,29.1c-1.1,3.9-2.3,6.8-3.5,10c-1.6,2.9-5.3-1.9-7.7-2.9c-4-1.8-7.5-1.9-11.4,0s-6.1,4.7-7,9.1
				c-0.9,4.3,1.2,9.6,4.8,12.5c3.5,2.8,8.6,3.2,12.8,1.9c4.1-1.4,7.8-5.3,9.3-9.3c4.2-11.2,6.4-19.5,7.4-23.8
				c1.5-5.9,4.2-18.9,4.5-35.2c0.1-3,0.1-11.4-0.6-18.2C103.4,23.2,101.2,12.5,99.6,12.1L99.6,12.1z M99.2,24.3
				c0.5,1.9,0.6,3.7,0.8,5.7c-5.1,2.9-10.9,3.7-15.3,4.4c-4.5,0.7-8.1,1-12.6,1c-4.1,0-6.8-0.2-9.2-0.5c-0.7-0.1-1.4-0.3-2.2-0.5
				c0-2.4-0.2-4.7-0.5-6.7c6.4,0.5,8.9,0.5,11.8,0.6c4.8,0.1,10.8-0.6,14.3-1.2C90.7,26.4,96.4,24.8,99.2,24.3L99.2,24.3z"/>
			<path id="path4927" class="st4" d="M35.5,98.3c-4.2,3.8-9.8,4.2-12.6,1s-1.7-8.9,2.5-12.6c4.2-3.8,9.8-4.2,12.6-1
				S39.7,94.5,35.5,98.3"/>
			<path id="path4929" class="st4" d="M80,103c-4.2,3.8-9.8,4.2-12.6,1c-2.8-3.2-1.7-8.9,2.5-12.6c4.2-3.8,9.8-4.2,12.6-1
				C85.3,93.6,84.2,99.2,80,103"/>
			<path id="path4931" class="st4" d="M98.9,12.8c-0.2,0-0.5,0.2-0.9,0.4c-5.7,3.1-12.2,3.6-16.9,4.2c-4.7,0.5-8.5,0.7-13.1,0.5
				c-1.5-0.1-2.6-0.1-3.8-0.2c4.4,2.3,8.7,3.4,12.9,4.4c11.6,2.7,17.2,0.9,25.2,0.3c-0.4-1.9-0.8-4.1-1.3-6c-0.3-1-0.6-1.9-0.9-2.6
				c-0.1-0.3-0.3-0.6-0.4-0.7s-0.2-0.2-0.2-0.2C99.3,12.8,99.1,12.8,98.9,12.8L98.9,12.8z"/>
			<path id="path4933" class="st4" d="M55.3,15.8c-0.3,0-0.6,0-0.9,0c-0.2,0-0.4,0.1-0.5,0.2c2.9,6.8,4,16,3.8,21.3
				c-0.3,9.8-1.3,16.9-2.7,25.1c-1.4,8.1-4.1,15.2-6.7,22.7c0.4-0.4,1.3-2,1.8-3.6c2.5-7.8,4.3-11.1,6.7-26l0,0l0.1-0.2l0,0
				c2.3-14.6,2.3-27.4-0.7-39.3C55.8,15.9,55.5,15.8,55.3,15.8L55.3,15.8z"/>
			<path id="path4935" class="st4" d="M99.9,24.8C99.9,24.9,99.9,24.9,99.9,24.8C99.8,24.9,99.8,24.9,99.9,24.8
				C99.8,24.9,99.8,24.9,99.9,24.8C99.8,24.9,99.8,24.9,99.9,24.8c-0.1,0.1-0.1,0.1-0.1,0.1l0,0l0,0c0.4,1.8,0.5,4.1,0.8,6.5
				c-0.5-0.1-1,0-1.7,0.4c-5.2,3.3-8.7,3.5-13.3,4.2c-4.5,0.7-10.9,1-15.3,0.9c-3.3,0-5.3-0.2-7.3-0.4c2.1,0.3,4.2,0.6,7.6,0.8
				c4.5,0.2,8,0.3,12.5-0.2c4.6-0.5,11-1.1,16.4-4.1c0.5-0.3,1.1-0.4,1.3-0.2c0.4,5.8,0.3,15.2-0.2,19.6c-0.8,8-3,21.4-5.2,29.1
				c-1,3.6-2,6.3-3.2,9.2l0,0l0,0l0,0l0,0l0,0l0,0l0,0l0,0l0,0l0,0l0,0l0,0l0,0c0.5-0.6,1.1-1.6,1.8-3.4c1.6-4.4,4.1-13.8,6.2-28.1
				v-0.3c1-7,1.3-14.5,1.1-22.1c0-1.8-0.5-8.5-0.7-9.5c-0.2-1.2-0.4-2.1-0.7-2.7c0-0.1,0-0.1-0.1-0.1s0,0-0.1-0.1l0,0l0,0
				C100,24.9,100,24.9,99.9,24.8C100,24.9,99.9,24.9,99.9,24.8L99.9,24.8L99.9,24.8L99.9,24.8z"/>
		</g>
	</g>
	<g id="g4937" transform="matrix(-.34974 .046282 -.0053184 .40360 1478.9 21.027)">
		<path id="path4939" class="st4" d="M581-642.6c0.5,0.1,1,0.2,1.3,0.5c-4.8,6.2-7.4,15.2-7.8,20.2c-0.7,9.3-0.1,16.2,0.9,24.1
			c1,7.8,4,14.9,6.7,22.3c1.9,5.9,7.9,0.5,11.8-0.5c5.7-1.4,10.5-1.2,15.6,0.9c5.1,2.1,7.7,4.9,8.6,9.2c0.8,4.2-2.8,9.1-8,11.6
			c-5.1,2.4-12.2,2.4-17.7,0.8c-5.5-1.7-10.1-5.7-11.8-9.6c-0.9-1.8-1.4-2.7-2.4-5.6s-2.2-7.1-3.2-10.8c-1.9-6.7-4.8-12.8-5.3-27.6
			c-0.2-3-0.7-10.9,0.4-17.8l2.6-16.8C572.8-642.3,579.3-642.8,581-642.6L581-642.6z"/>
		<path id="path4941" class="st4" d="M597.4-562c5.3,3.9,13,4.8,17.2,2s3.3-8.3-2-12.2s-13-4.8-17.2-2
			C591.3-571.4,592.1-565.9,597.4-562"/>
		<path id="path4943" class="st4" d="M579.7-642.2c0.4,0,0.8,0,1.3,0.1c0.3,0,0.5,0.1,0.7,0.3c-4.7,6.3-7.3,15-7.6,20
			c-0.7,9.3-0.2,16.2,0.9,24.2c1,7.8,3.9,14.9,6.6,22.2c-0.5-0.4-1.6-2.1-2.1-3.5c-2.6-7.7-4.7-10.9-6.3-25.4l0,0l-0.1-0.2l0,0
			c-1.5-14.2-0.1-26.4,5.4-37.4C578.9-642.2,579.3-642.3,579.7-642.2L579.7-642.2z"/>
	</g>
	<g id="g4993" transform="matrix(1.1407 .17857 -.17569 .74482 85.394 -101.64)">
		<path id="path4995" class="st4" d="M99.6,12.1c-0.5-0.2-1.2-0.1-1.9,0.4c-5.5,3.1-11.9,3.6-16.7,4.1c-4.7,0.5-8.4,0.7-13,0.5
			c-4.2-0.2-7-0.4-9.5-0.9c-1.8-0.3-4.2-1.5-5.2-0.4c2.9,6.8,4.1,16.2,3.9,21.5C57,47,56,54.1,54.5,62.4c-1.4,8-4.2,15.3-6.8,22.8
			c-1.8,6-5.7,0-8.5-1.2c-4-1.8-7.5-1.9-11.4,0s-6,4.7-7,9.1c-0.9,4.3,1.2,9.6,4.8,12.5c3.5,2.8,8.6,3.2,12.8,1.9
			c4.1-1.4,7.8-5.3,9.3-9.3c0.8-1.9,1.3-2.7,2.2-5.7s2.2-7.3,3.2-11c1.9-6.8,4.6-13,6.2-28.4c0.5-4.1,2-17.3,0.8-25.4
			c6.4,0.5,8.9,0.5,11.7,0.6c4.8,0.1,10.8-0.5,14.3-1.1c4.4-0.7,10.2-2.3,12.9-2.8c0.7,2.6,0.7,4.1,1.1,7.8c0.5,5.7,0.3,16-0.2,20.7
			c-0.8,8-3,21.4-5.2,29.1c-1.1,3.9-2.3,6.8-3.5,10c-1.6,2.9-5.3-1.9-7.7-2.9c-4-1.8-7.5-1.9-11.4,0s-6.1,4.7-7,9.1
			c-0.9,4.3,1.2,9.6,4.8,12.5c3.5,2.8,8.6,3.2,12.8,1.9c4.1-1.4,7.8-5.3,9.3-9.3c4.2-11.2,6.4-19.5,7.4-23.8
			c1.5-5.9,4.2-18.9,4.5-35.2c0.1-3,0.1-11.4-0.6-18.2C103.4,23.2,101.2,12.5,99.6,12.1L99.6,12.1z"/>
		<path id="path4997" class="st4" d="M35.5,98.3c-4.2,3.8-9.8,4.2-12.6,1s-1.7-8.9,2.5-12.6c4.2-3.8,9.8-4.2,12.6-1
			S39.7,94.5,35.5,98.3"/>
		<path id="path4999" class="st4" d="M80,103c-4.2,3.8-9.8,4.2-12.6,1c-2.8-3.2-1.7-8.9,2.5-12.6c4.2-3.8,9.8-4.2,12.6-1
			C85.3,93.6,84.2,99.2,80,103"/>
		<path id="path5001" class="st4" d="M98.9,12.8c-0.2,0-0.5,0.2-0.9,0.4c-5.7,3.1-12.2,3.6-16.9,4.2c-4.7,0.5-8.5,0.7-13.1,0.5
			c-1.5-0.1-2.6-0.1-3.8-0.2c4.4,2.3,8.7,3.4,12.9,4.4c11.6,2.7,17.2,0.9,25.2,0.3c-0.4-1.9-0.8-4.1-1.3-6c-0.3-1-0.6-1.9-0.9-2.6
			c-0.1-0.3-0.3-0.6-0.4-0.7s-0.2-0.2-0.2-0.2C99.3,12.8,99.1,12.8,98.9,12.8L98.9,12.8z"/>
		<path id="path5003" class="st4" d="M55.3,15.8c-0.3,0-0.6,0-0.9,0c-0.2,0-0.4,0.1-0.5,0.2c2.9,6.8,4,16,3.8,21.3
			c-0.3,9.8-1.3,16.9-2.7,25.1c-1.4,8.1-4.1,15.2-6.7,22.7c0.4-0.4,1.3-2,1.8-3.6c2.5-7.8,4.3-11.1,6.7-26l0,0l0.1-0.2l0,0
			c2.3-14.6,2.3-27.4-0.7-39.3C55.8,15.9,55.5,15.8,55.3,15.8L55.3,15.8z"/>
		<path id="path5005" class="st4" d="M99.9,24.9L99.9,24.9C99.8,24.9,99.8,24.9,99.9,24.9C99.8,24.9,99.8,24.9,99.9,24.9
			C99.8,24.9,99.8,24.9,99.9,24.9C99.8,25,99.8,25,99.8,25l0,0l0,0c0.5,2.1,0.6,3.6,0.9,6.9c0.5,5.7,0.3,16-0.2,20.7
			c-0.8,8-3,21.4-5.2,29.1c-1,3.6-2,6.3-3.2,9.2l0,0l0,0l0,0l0,0l0,0l0,0l0,0l0,0l0,0l0,0l0,0l0,0l0,0c0.5-0.6,1.1-1.6,1.8-3.4
			c1.6-4.4,4.1-13.8,6.2-28.1v-0.3c1-7,1.3-14.4,1.1-22c-0.1-3.8-0.3-7.2-0.7-9.5C100.3,26.4,100.1,25.5,99.9,24.9
			c-0.1-0.1-0.1-0.1-0.2-0.1s0,0-0.1-0.1l0,0l0,0C100,24.9,100,24.9,99.9,24.9C100,24.9,100,24.9,99.9,24.9L99.9,24.9L99.9,24.9
			L99.9,24.9z"/>
	</g>
	<g id="g5017" transform="matrix(.32678 -.18309 .18265 .32599 1378.5 -217.34)">
		<g id="g5021">
			<path id="path5023" class="st4" d="M34.5,0.6c-0.4,0-0.7,0.2-1,0.5c2.9,6.8,4.1,16.2,3.9,21.5c-0.3,9.7-1.3,16.8-2.7,25.1
				c-1.4,8-4.2,15.3-6.8,22.8c-1.8,6-5.7,0-8.5-1.2c-4-1.8-7.5-1.9-11.4,0S2,74,1,78.4C0.1,82.7,2.2,88,5.8,90.9
				c3.5,2.8,8.6,3.2,12.7,1.9c4.1-1.4,7.8-5.3,9.3-9.3c0.8-1.9,1.3-2.7,2.2-5.7s2.2-7.3,3.2-11c1.9-6.8,4.6-13,6.2-28.4
				c0.4-3.1,1.2-11.2,1.2-18.5c0-0.8,0.2-0.8,0.3-0.8c0.7-0.1,2.3,1.1,4.6,2.6s5.5,3.6,7.1,4.5c7.6,4.6,11.7,10.7,12.1,17.9
				c0.3,5-0.7,9-3.5,15c-1.1,2.3-1.2,2.8-0.8,3c0.7,0.4,0.8,0.4,1.8-1c3-4.4,4.8-11,4.8-17.7c0-4.2-0.6-6.8-1.8-9.4
				c-1.6-3.7-5.3-8.6-10.2-13.8c-2.6-2.7-5.1-5.4-5.6-5.9c-3.5-3.7-8.3-8.6-9.2-11.9C40.2,1.5,35.7,0.5,34.5,0.6L34.5,0.6z"/>
			<path id="path5025" class="st4" d="M15.6,83.5c-4.2,3.8-9.8,4.2-12.6,1s-1.7-8.9,2.5-12.6c4.2-3.8,9.8-4.2,12.6-1
				S19.8,79.7,15.6,83.5"/>
			<path id="path5027" class="st4" d="M35.4,1.1c-0.3,0-0.6,0-0.9,0c-0.2,0-0.4,0.1-0.5,0.2c2.9,6.8,4,16,3.8,21.3
				c-0.3,9.8-1.3,16.9-2.7,25.1c-1.4,8.1-4.1,15.2-6.7,22.7c0.4-0.4,1.3-2,1.8-3.6c2.5-7.8,4.3-11.1,6.7-26l0,0l0.1-0.2l0,0
				c2.3-14.6,2.3-27.4-0.7-39.3C35.9,1.2,35.6,1.1,35.4,1.1L35.4,1.1z"/>
			<path id="path5029" class="st4" d="M42.5,6.9c1,9.3,6.5,15.6,8.8,17.1c0.7,0.4,1.5,1,1.9,1.2c7.8,4.7,12.1,11,12.4,18.5
				c0.3,5.2-0.7,9.2-3.6,15.3c-0.4,0.9-0.6,1.3-0.7,1.7c0.1-0.2,0.1-0.1,0.3-0.4c2.9-4.2,4.6-10.7,4.6-17.3c0-4.2-0.5-6.6-1.7-9.1
				c-0.1-0.3-0.8-1.6-1.5-2.8s-1.3-2.4-1.4-2.7c-0.4-0.8-2.3-3-7.2-8.2c-2.4-2.5-5-5.2-5.4-5.7C46.8,12.1,43.9,9.4,42.5,6.9
				L42.5,6.9z"/>
		</g>
	</g>
	<g id="g5037" transform="matrix(.45697 -.13618 .068106 .28045 1410.9 -230.62)">
		<path id="path5039" class="st4" d="M99.6,12.1c-0.5-0.2-1.2-0.1-1.9,0.4c-5.5,3.1-11.9,3.6-16.7,4.1c-4.7,0.5-8.4,0.7-13,0.5
			c-4.2-0.2-7-0.4-9.5-0.9c-1.8-0.3-4.2-1.5-5.2-0.4c2.9,6.8,4.1,16.2,3.9,21.5C57,47,56,54.1,54.5,62.4c-1.4,8-4.2,15.3-6.8,22.8
			c-1.8,6-5.7,0-8.5-1.2c-4-1.8-7.5-1.9-11.4,0s-6,4.7-7,9.1c-0.9,4.3,1.2,9.6,4.8,12.5c3.5,2.8,8.6,3.2,12.8,1.9
			c4.1-1.4,7.8-5.3,9.3-9.3c0.8-1.9,1.3-2.7,2.2-5.7s2.2-7.3,3.2-11c1.9-6.8,4.6-13,6.2-28.4c0.5-4.1,2-17.3,0.8-25.4
			c6.4,0.5,8.9,0.5,11.7,0.6c4.8,0.1,10.8-0.5,14.3-1.1c4.4-0.7,10.2-2.3,12.9-2.8c0.7,2.6,0.7,4.1,1.1,7.8c0.5,5.7,0.3,16-0.2,20.7
			c-0.8,8-3,21.4-5.2,29.1c-1.1,3.9-2.3,6.8-3.5,10c-1.6,2.9-5.3-1.9-7.7-2.9c-4-1.8-7.5-1.9-11.4,0s-6.1,4.7-7,9.1
			c-0.9,4.3,1.2,9.6,4.8,12.5c3.5,2.8,8.6,3.2,12.8,1.9c4.1-1.4,7.8-5.3,9.3-9.3c4.2-11.2,6.4-19.5,7.4-23.8
			c1.5-5.9,4.2-18.9,4.5-35.2c0.1-3,0.1-11.4-0.6-18.2C103.4,23.2,101.2,12.5,99.6,12.1L99.6,12.1z"/>
		<path id="path5041" class="st4" d="M35.5,98.3c-4.2,3.8-9.8,4.2-12.6,1s-1.7-8.9,2.5-12.6c4.2-3.8,9.8-4.2,12.6-1
			S39.7,94.5,35.5,98.3"/>
		<path id="path5043" class="st4" d="M80,103c-4.2,3.8-9.8,4.2-12.6,1c-2.8-3.2-1.7-8.9,2.5-12.6c4.2-3.8,9.8-4.2,12.6-1
			C85.3,93.6,84.2,99.2,80,103"/>
		<path id="path5045" class="st4" d="M98.9,12.8c-0.2,0-0.5,0.2-0.9,0.4c-5.7,3.1-12.2,3.6-16.9,4.2c-4.7,0.5-8.5,0.7-13.1,0.5
			c-1.5-0.1-2.6-0.1-3.8-0.2c4.4,2.3,8.7,3.4,12.9,4.4c11.6,2.7,17.2,0.9,25.2,0.3c-0.4-1.9-0.8-4.1-1.3-6c-0.3-1-0.6-1.9-0.9-2.6
			c-0.1-0.3-0.3-0.6-0.4-0.7s-0.2-0.2-0.2-0.2C99.3,12.8,99.1,12.8,98.9,12.8L98.9,12.8z"/>
		<path id="path5047" class="st4" d="M55.3,15.8c-0.3,0-0.6,0-0.9,0c-0.2,0-0.4,0.1-0.5,0.2c2.9,6.8,4,16,3.8,21.3
			c-0.3,9.8-1.3,16.9-2.7,25.1c-1.4,8.1-4.1,15.2-6.7,22.7c0.4-0.4,1.3-2,1.8-3.6c2.5-7.8,4.3-11.1,6.7-26l0,0l0.1-0.2l0,0
			c2.3-14.6,2.3-27.4-0.7-39.3C55.8,15.9,55.5,15.8,55.3,15.8L55.3,15.8z"/>
		<path id="path5049" class="st4" d="M99.9,24.9L99.9,24.9C99.8,24.9,99.8,24.9,99.9,24.9C99.8,24.9,99.8,24.9,99.9,24.9
			C99.8,24.9,99.8,24.9,99.9,24.9C99.8,25,99.8,25,99.8,25l0,0l0,0c0.5,2.1,0.6,3.6,0.9,6.9c0.5,5.7,0.3,16-0.2,20.7
			c-0.8,8-3,21.4-5.2,29.1c-1,3.6-2,6.3-3.2,9.2l0,0l0,0l0,0l0,0l0,0l0,0l0,0l0,0l0,0l0,0l0,0l0,0l0,0c0.5-0.6,1.1-1.6,1.8-3.4
			c1.6-4.4,4.1-13.8,6.2-28.1v-0.3c1-7,1.3-14.4,1.1-22c-0.1-3.8-0.3-7.2-0.7-9.5C100.3,26.4,100.1,25.5,99.9,24.9
			c-0.1-0.1-0.1-0.1-0.2-0.1s0,0-0.1-0.1l0,0l0,0C100,24.9,100,24.9,99.9,24.9C100,24.9,100,24.9,99.9,24.9L99.9,24.9L99.9,24.9
			L99.9,24.9z"/>
	</g>
	<g id="g5061" transform="matrix(-.23728 0.0314 -.0036082 .27382 1628.8 -77.563)">
		<path id="path5063" class="st4" d="M581-642.6c0.5,0.1,1,0.2,1.3,0.5c-4.8,6.2-7.4,15.2-7.8,20.2c-0.7,9.3-0.1,16.2,0.9,24.1
			c1,7.8,4,14.9,6.7,22.3c1.9,5.9,7.9,0.5,11.8-0.5c5.7-1.4,10.5-1.2,15.6,0.9c5.1,2.1,7.7,4.9,8.6,9.2c0.8,4.2-2.8,9.1-8,11.6
			c-5.1,2.4-12.2,2.4-17.7,0.8c-5.5-1.7-10.1-5.7-11.8-9.6c-0.9-1.8-1.4-2.7-2.4-5.6s-2.2-7.1-3.2-10.8c-1.9-6.7-4.8-12.8-5.3-27.6
			c-0.2-3-0.7-10.9,0.4-17.8l2.6-16.8C572.8-642.3,579.3-642.8,581-642.6L581-642.6z"/>
		<path id="path5065" class="st4" d="M597.4-562c5.3,3.9,13,4.8,17.2,2s3.3-8.3-2-12.2s-13-4.8-17.2-2
			C591.3-571.4,592.1-565.9,597.4-562"/>
		<path id="path5067" class="st4" d="M579.7-642.2c0.4,0,0.8,0,1.3,0.1c0.3,0,0.5,0.1,0.7,0.3c-4.7,6.3-7.3,15-7.6,20
			c-0.7,9.3-0.2,16.2,0.9,24.2c1,7.8,3.9,14.9,6.6,22.2c-0.5-0.4-1.6-2.1-2.1-3.5c-2.6-7.7-4.7-10.9-6.3-25.4l0,0l-0.1-0.2l0,0
			c-1.5-14.2-0.1-26.4,5.4-37.4C578.9-642.2,579.3-642.3,579.7-642.2L579.7-642.2z"/>
	</g>
	<g id="g5073" transform="matrix(1.4786 .35888 -.28568 .79763 969.57 -878.69)">
		<path id="path5075" class="st4" d="M99.6,12.1c-0.5-0.2-1.2-0.1-1.9,0.4c-5.5,3.1-11.9,3.6-16.7,4.1c-4.7,0.5-8.4,0.7-13,0.5
			c-4.2-0.2-7-0.4-9.5-0.9c-1.8-0.3-4.2-1.5-5.2-0.4c2.9,6.8,4.1,16.2,3.9,21.5C57,47,56,54.1,54.5,62.4c-1.4,8-4.2,15.3-6.8,22.8
			c-1.8,6-5.7,0-8.5-1.2c-4-1.8-7.5-1.9-11.4,0s-6,4.7-7,9.1c-0.9,4.3,1.2,9.6,4.8,12.5c3.5,2.8,8.6,3.2,12.8,1.9
			c4.1-1.4,7.8-5.3,9.3-9.3c0.8-1.9,1.3-2.7,2.2-5.7s2.2-7.3,3.2-11c1.9-6.8,4.6-13,6.2-28.4c0.5-4.1,2-17.3,0.8-25.4
			c6.4,0.5,8.9,0.5,11.7,0.6c4.8,0.1,10.8-0.5,14.3-1.1c4.4-0.7,10.2-2.3,12.9-2.8c0.7,2.6,0.7,4.1,1.1,7.8c0.5,5.7,0.3,16-0.2,20.7
			c-0.8,8-3,21.4-5.2,29.1c-1.1,3.9-2.3,6.8-3.5,10c-1.6,2.9-5.3-1.9-7.7-2.9c-4-1.8-7.5-1.9-11.4,0s-6.1,4.7-7,9.1
			c-0.9,4.3,1.2,9.6,4.8,12.5c3.5,2.8,8.6,3.2,12.8,1.9c4.1-1.4,7.8-5.3,9.3-9.3c4.2-11.2,6.4-19.5,7.4-23.8
			c1.5-5.9,4.2-18.9,4.5-35.2c0.1-3,0.1-11.4-0.6-18.2C103.4,23.2,101.2,12.5,99.6,12.1L99.6,12.1z"/>
		<path id="path5077" class="st4" d="M35.5,98.3c-4.2,3.8-9.8,4.2-12.6,1s-1.7-8.9,2.5-12.6c4.2-3.8,9.8-4.2,12.6-1
			S39.7,94.5,35.5,98.3"/>
		<path id="path5079" class="st4" d="M80,103c-4.2,3.8-9.8,4.2-12.6,1c-2.8-3.2-1.7-8.9,2.5-12.6c4.2-3.8,9.8-4.2,12.6-1
			C85.3,93.6,84.2,99.2,80,103"/>
		<path id="path5081" class="st4" d="M98.9,12.8c-0.2,0-0.5,0.2-0.9,0.4c-5.7,3.1-12.2,3.6-16.9,4.2c-4.7,0.5-8.5,0.7-13.1,0.5
			c-1.5-0.1-2.6-0.1-3.8-0.2c4.4,2.3,8.7,3.4,12.9,4.4c11.6,2.7,17.2,0.9,25.2,0.3c-0.4-1.9-0.8-4.1-1.3-6c-0.3-1-0.6-1.9-0.9-2.6
			c-0.1-0.3-0.3-0.6-0.4-0.7s-0.2-0.2-0.2-0.2C99.3,12.8,99.1,12.8,98.9,12.8L98.9,12.8z"/>
		<path id="path5083" class="st4" d="M55.3,15.8c-0.3,0-0.6,0-0.9,0c-0.2,0-0.4,0.1-0.5,0.2c2.9,6.8,4,16,3.8,21.3
			c-0.3,9.8-1.3,16.9-2.7,25.1c-1.4,8.1-4.1,15.2-6.7,22.7c0.4-0.4,1.3-2,1.8-3.6c2.5-7.8,4.3-11.1,6.7-26l0,0l0.1-0.2l0,0
			c2.3-14.6,2.3-27.4-0.7-39.3C55.8,15.9,55.5,15.8,55.3,15.8L55.3,15.8z"/>
		<path id="path5085" class="st4" d="M99.9,24.9L99.9,24.9C99.8,24.9,99.8,24.9,99.9,24.9C99.8,24.9,99.8,24.9,99.9,24.9
			C99.8,24.9,99.8,24.9,99.9,24.9C99.8,25,99.8,25,99.8,25l0,0l0,0c0.5,2.1,0.6,3.6,0.9,6.9c0.5,5.7,0.3,16-0.2,20.7
			c-0.8,8-3,21.4-5.2,29.1c-1,3.6-2,6.3-3.2,9.2l0,0l0,0l0,0l0,0l0,0l0,0l0,0l0,0l0,0l0,0l0,0l0,0l0,0c0.5-0.6,1.1-1.6,1.8-3.4
			c1.6-4.4,4.1-13.8,6.2-28.1v-0.3c1-7,1.3-14.4,1.1-22c-0.1-3.8-0.3-7.2-0.7-9.5C100.3,26.4,100.1,25.5,99.9,24.9
			c-0.1-0.1-0.1-0.1-0.2-0.1s0,0-0.1-0.1l0,0l0,0C100,24.9,100,24.9,99.9,24.9C100,24.9,100,24.9,99.9,24.9L99.9,24.9L99.9,24.9
			L99.9,24.9z"/>
	</g>
	<g id="g5097" transform="matrix(-.55149 .32939 .24068 .52716 1103.6 -707.3)">
		<g id="g5101" transform="translate(-9.75 -9.25)">
			<path id="path5103" class="st4" d="M44.2,9.9c-0.4,0-0.7,0.2-1,0.5c2.9,6.8,4.1,16.2,3.9,21.5c-0.3,9.7-1.3,16.8-2.7,25.1
				c-1.4,8-4.2,15.3-6.8,22.8c-1.8,6-5.7,0-8.5-1.2c-4-1.8-7.5-1.9-11.4,0s-6,4.7-7,9.1c-0.9,4.3,1.2,9.6,4.8,12.5
				c3.5,2.8,8.6,3.2,12.8,1.9c4.1-1.4,7.8-5.3,9.3-9.3c0.8-1.9,1.3-2.7,2.2-5.7s2.2-7.3,3.2-11c1.9-6.8,4.6-13,6.2-28.4
				c0.4-3.1,1.2-11.2,1.2-18.5c0-0.8,0.2-0.8,0.3-0.8c0.7-0.1,2.3,1.1,4.6,2.6s5.5,3.6,7.1,4.5c7.6,4.6,11.7,10.7,12.1,17.9
				c0.3,5-0.7,9-3.5,15c-1.1,2.3-1.2,2.8-0.8,3c0.7,0.4,0.8,0.4,1.8-1c3-4.4,4.8-11,4.8-17.7c0-4.2-0.6-6.8-1.8-9.4
				c-1.6-3.7-5.3-8.6-10.2-13.8c-2.6-2.7-5.1-5.4-5.6-5.9c-3.5-3.7-8.3-8.6-9.2-11.9C50,10.7,45.4,9.8,44.2,9.9L44.2,9.9z"/>
			<path id="path5105" class="st4" d="M52.3,16.2c1,9.3,6.5,15.6,8.8,17.1c0.7,0.4,1.5,1,1.9,1.2c7.8,4.7,12.1,11,12.4,18.5
				c0.3,5.2-0.7,9.2-3.6,15.3c-0.4,0.9-0.6,1.3-0.7,1.7c0.1-0.2,0.1-0.1,0.3-0.4c2.9-4.2,4.6-10.7,4.6-17.3c0-4.2-0.5-6.6-1.7-9.1
				c-0.1-0.3-0.8-1.6-1.5-2.8s-1.3-2.4-1.4-2.7c-0.4-0.8-2.3-3-7.2-8.2c-2.6-2.7-5.1-5.4-5.6-5.9C56.5,21.4,53.7,18.7,52.3,16.2
				L52.3,16.2z"/>
			<g id="g5107">
				<path id="path5109" class="st4" d="M49.8,43.3c0.1-0.8,0.3-0.8,0.4-0.8c0.7-0.1,2.2,1.2,4.5,2.8c2.2,1.6,5.3,3.9,6.8,4.9
					c7.4,5.1,11.1,11.3,11,18.5c0,5.1-1.2,8.9-4.3,14.8c-1.2,2.2-1.3,2.7-1,3c0.7,0.5,0.8,0.4,1.8-0.9c3.3-4.2,5.4-10.7,5.7-17.4
					c0.2-4.2-0.2-6.8-1.2-9.5c-1.4-3.8-4.9-8.9-9.4-14.3c-2.4-2.9-4.8-5.7-5.3-6.2c-3.3-3.9-7.8-9.1-8.5-12.4
					C50.2,25,49.2,50.5,49.8,43.3L49.8,43.3z"/>
				<path id="path5111" class="st4" d="M52.2,30.5c0.4,9.3,5.6,16,7.8,17.6c0.6,0.5,1.4,1.1,1.8,1.3c7.5,5.2,11.4,11.7,11.4,19.2
					c0,5.2-1.3,9.2-4.4,15.1c-0.5,0.9-0.6,1.3-0.8,1.6c0.1-0.2,0.1-0.1,0.4-0.4c3.1-4,5.2-10.4,5.6-17c0.2-4.1-0.1-6.6-1.1-9.2
					c-0.1-0.3-0.7-1.6-1.3-2.9c-0.6-1.3-1.2-2.5-1.3-2.7c-0.4-0.8-2.1-3.2-6.7-8.5c-2.4-2.9-4.8-5.7-5.3-6.2
					C56.1,36,53.4,33.1,52.2,30.5L52.2,30.5z"/>
			</g>
			<path id="path5113" class="st4" d="M25.4,92.8c-4.2,3.8-9.8,4.2-12.6,1s-1.7-8.9,2.5-12.6c4.2-3.8,9.8-4.2,12.6-1
				S29.6,89,25.4,92.8"/>
			<path id="path5115" class="st4" d="M45.1,10.3c-0.3,0-0.6,0-0.9,0c-0.2,0-0.4,0.1-0.5,0.2c2.9,6.8,4,16,3.8,21.3
				c-0.3,9.8-1.3,16.9-2.7,25.1c-1.4,8.1-4.1,15.2-6.7,22.7c0.4-0.4,1.3-2,1.8-3.6c2.5-7.8,4.3-11.1,6.7-26l0,0l0.1-0.2l0,0
				C49,35.1,49,22.4,46,10.5C45.7,10.4,45.4,10.3,45.1,10.3L45.1,10.3z"/>
		</g>
	</g>
	<g id="g5125" transform="matrix(.66606 .20715 -.11831 .61543 -17.124 -140.85)">
		<g id="g5129" transform="translate(-9.75 -9.25)">
			<path id="path5131" class="st4" d="M44.2,9.9c-0.4,0-0.7,0.2-1,0.5c2.9,6.8,4.1,16.2,3.9,21.5c-0.3,9.7-1.3,16.8-2.7,25.1
				c-1.4,8-4.2,15.3-6.8,22.8c-1.8,6-5.7,0-8.5-1.2c-4-1.8-7.5-1.9-11.4,0s-6,4.7-7,9.1c-0.9,4.3,1.2,9.6,4.8,12.5
				c3.5,2.8,8.6,3.2,12.8,1.9c4.1-1.4,7.8-5.3,9.3-9.3c0.8-1.9,1.3-2.7,2.2-5.7s2.2-7.3,3.2-11c1.9-6.8,4.6-13,6.2-28.4
				c0.4-3.1,1.2-11.2,1.2-18.5c0-0.8,0.2-0.8,0.3-0.8c0.7-0.1,2.3,1.1,4.6,2.6c2.3,1.5,5.5,3.6,7.1,4.5c7.6,4.6,11.7,10.7,12.1,17.9
				c0.3,5-0.7,9-3.5,15c-1.1,2.3-1.2,2.8-0.8,3c0.7,0.4,0.8,0.4,1.8-1c3-4.4,4.8-11,4.8-17.7c0-4.2-0.6-6.8-1.8-9.4
				c-1.6-3.7-5.3-8.6-10.2-13.8c-2.6-2.7-5.1-5.4-5.6-5.9c-3.5-3.7-8.3-8.6-9.2-11.9C50,10.7,45.4,9.8,44.2,9.9L44.2,9.9z"/>
			<path id="path5133" class="st4" d="M52.3,16.2c1,9.3,6.5,15.6,8.8,17.1c0.7,0.4,1.5,1,1.9,1.2c7.8,4.7,12.1,11,12.4,18.5
				c0.3,5.2-0.7,9.2-3.6,15.3c-0.4,0.9-0.6,1.3-0.7,1.7c0.1-0.2,0.1-0.1,0.3-0.4c2.9-4.2,4.6-10.7,4.6-17.3c0-4.2-0.5-6.6-1.7-9.1
				c-0.1-0.3-0.8-1.6-1.5-2.8s-1.3-2.4-1.4-2.7c-0.4-0.8-2.3-3-7.2-8.2c-2.6-2.7-5.1-5.4-5.6-5.9C56.5,21.4,53.7,18.7,52.3,16.2
				L52.3,16.2z"/>
			<g id="g5135">
				<path id="path5137" class="st4" d="M49.8,43.3c0.1-0.8,0.3-0.8,0.4-0.8c0.7-0.1,2.2,1.2,4.5,2.8c2.2,1.6,5.3,3.9,6.8,4.9
					c7.4,5.1,11.1,11.3,11,18.5c0,5.1-1.2,8.9-4.3,14.8c-1.2,2.2-1.3,2.7-1,3c0.7,0.5,0.8,0.4,1.8-0.9c3.3-4.2,5.4-10.7,5.7-17.4
					c0.2-4.2-0.2-6.8-1.2-9.5c-1.4-3.8-4.9-8.9-9.4-14.3c-2.4-2.9-4.8-5.7-5.3-6.2c-3.3-3.9-7.8-9.1-8.5-12.4
					C50.2,25,49.2,50.5,49.8,43.3L49.8,43.3z"/>
				<path id="path5139" class="st4" d="M52.2,30.5c0.4,9.3,5.6,16,7.8,17.6c0.6,0.5,1.4,1.1,1.8,1.3c7.5,5.2,11.4,11.7,11.4,19.2
					c0,5.2-1.3,9.2-4.4,15.1c-0.5,0.9-0.6,1.3-0.8,1.6c0.1-0.2,0.1-0.1,0.4-0.4c3.1-4,5.2-10.4,5.6-17c0.2-4.1-0.1-6.6-1.1-9.2
					c-0.1-0.3-0.7-1.6-1.3-2.9c-0.6-1.3-1.2-2.5-1.3-2.7c-0.4-0.8-2.1-3.2-6.7-8.5c-2.4-2.9-4.8-5.7-5.3-6.2
					C56.1,36,53.4,33.1,52.2,30.5L52.2,30.5z"/>
			</g>
			<path id="path5141" class="st4" d="M25.4,92.8c-4.2,3.8-9.8,4.2-12.6,1s-1.7-8.9,2.5-12.6c4.2-3.8,9.8-4.2,12.6-1
				S29.6,89,25.4,92.8"/>
			<path id="path5143" class="st4" d="M45.1,10.3c-0.3,0-0.6,0-0.9,0c-0.2,0-0.4,0.1-0.5,0.2c2.9,6.8,4,16,3.8,21.3
				c-0.3,9.8-1.3,16.9-2.7,25.1c-1.4,8.1-4.1,15.2-6.7,22.7c0.4-0.4,1.3-2,1.8-3.6c2.5-7.8,4.3-11.1,6.7-26l0,0l0.1-0.2l0,0
				C49,35.1,49,22.4,46,10.5C45.7,10.4,45.4,10.3,45.1,10.3L45.1,10.3z"/>
		</g>
	</g>
	<g id="g5174" transform="matrix(2.2833 -.65777 .34030 1.3546 -5.2893 -890.88)">
		<path id="path5176" class="st4" d="M99.6,12.1c-0.5-0.2-1.2-0.1-1.9,0.4c-5.5,3.1-11.9,3.6-16.7,4.1c-4.7,0.5-8.4,0.7-13,0.5
			c-4.2-0.2-7-0.4-9.5-0.9c-1.8-0.3-4.2-1.5-5.2-0.4c2.9,6.8,4.1,16.2,3.9,21.5C57,47,56,54.1,54.5,62.4c-1.4,8-4.2,15.3-6.8,22.8
			c-1.8,6-5.7,0-8.5-1.2c-4-1.8-7.5-1.9-11.4,0s-6,4.7-7,9.1c-0.9,4.3,1.2,9.6,4.8,12.5c3.5,2.8,8.6,3.2,12.8,1.9
			c4.1-1.4,7.8-5.3,9.3-9.3c0.8-1.9,1.3-2.7,2.2-5.7s2.2-7.3,3.2-11c1.9-6.8,4.6-13,6.2-28.4c0.5-4.1,2-17.3,0.8-25.4
			c6.4,0.5,8.9,0.5,11.7,0.6c4.8,0.1,10.8-0.5,14.3-1.1c4.4-0.7,10.2-2.3,12.9-2.8c0.7,2.6,0.7,4.1,1.1,7.8c0.5,5.7,0.3,16-0.2,20.7
			c-0.8,8-3,21.4-5.2,29.1c-1.1,3.9-2.3,6.8-3.5,10c-1.6,2.9-5.3-1.9-7.7-2.9c-4-1.8-7.5-1.9-11.4,0s-6.1,4.7-7,9.1
			c-0.9,4.3,1.2,9.6,4.8,12.5c3.5,2.8,8.6,3.2,12.8,1.9c4.1-1.4,7.8-5.3,9.3-9.3c4.2-11.2,6.4-19.5,7.4-23.8
			c1.5-5.9,4.2-18.9,4.5-35.2c0.1-3,0.1-11.4-0.6-18.2C103.4,23.2,101.2,12.5,99.6,12.1L99.6,12.1z"/>
		<path id="path5178" class="st4" d="M35.5,98.3c-4.2,3.8-9.8,4.2-12.6,1s-1.7-8.9,2.5-12.6c4.2-3.8,9.8-4.2,12.6-1
			S39.7,94.5,35.5,98.3"/>
		<path id="path5180" class="st4" d="M80,103c-4.2,3.8-9.8,4.2-12.6,1c-2.8-3.2-1.7-8.9,2.5-12.6c4.2-3.8,9.8-4.2,12.6-1
			C85.3,93.6,84.2,99.2,80,103"/>
		<path id="path5182" class="st4" d="M98.9,12.8c-0.2,0-0.5,0.2-0.9,0.4c-5.7,3.1-12.2,3.6-16.9,4.2c-4.7,0.5-8.5,0.7-13.1,0.5
			c-1.5-0.1-2.6-0.1-3.8-0.2c4.4,2.3,8.7,3.4,12.9,4.4c11.6,2.7,17.2,0.9,25.2,0.3c-0.4-1.9-0.8-4.1-1.3-6c-0.3-1-0.6-1.9-0.9-2.6
			c-0.1-0.3-0.3-0.6-0.4-0.7s-0.2-0.2-0.2-0.2C99.3,12.8,99.1,12.8,98.9,12.8L98.9,12.8z"/>
		<path id="path5184" class="st4" d="M55.3,15.8c-0.3,0-0.6,0-0.9,0c-0.2,0-0.4,0.1-0.5,0.2c2.9,6.8,4,16,3.8,21.3
			c-0.3,9.8-1.3,16.9-2.7,25.1c-1.4,8.1-4.1,15.2-6.7,22.7c0.4-0.4,1.3-2,1.8-3.6c2.5-7.8,4.3-11.1,6.7-26l0,0l0.1-0.2l0,0
			c2.3-14.6,2.3-27.4-0.7-39.3C55.8,15.9,55.5,15.8,55.3,15.8L55.3,15.8z"/>
		<path id="path5186" class="st4" d="M99.9,24.9L99.9,24.9C99.8,24.9,99.8,24.9,99.9,24.9C99.8,24.9,99.8,24.9,99.9,24.9
			C99.8,24.9,99.8,24.9,99.9,24.9C99.8,25,99.8,25,99.8,25l0,0l0,0c0.5,2.1,0.6,3.6,0.9,6.9c0.5,5.7,0.3,16-0.2,20.7
			c-0.8,8-3,21.4-5.2,29.1c-1,3.6-2,6.3-3.2,9.2l0,0l0,0l0,0l0,0l0,0l0,0l0,0l0,0l0,0l0,0l0,0l0,0l0,0c0.5-0.6,1.1-1.6,1.8-3.4
			c1.6-4.4,4.1-13.8,6.2-28.1v-0.3c1-7,1.3-14.4,1.1-22c-0.1-3.8-0.3-7.2-0.7-9.5C100.3,26.4,100.1,25.5,99.9,24.9
			c-0.1-0.1-0.1-0.1-0.2-0.1s0,0-0.1-0.1l0,0l0,0C100,24.9,100,24.9,99.9,24.9C100,24.9,100,24.9,99.9,24.9L99.9,24.9L99.9,24.9
			L99.9,24.9z"/>
	</g>
</g>
</svg>
